<?xml version="1.0" encoding="UTF-8"?>
<svg xmlns="http://www.w3.org/2000/svg" xmlns:xlink="http://www.w3.org/1999/xlink" width="360pt" height="210pt" viewBox="0 0 360 210" version="1.1">
<g id="surface20">
<path style="fill:none;stroke-width:1;stroke-linecap:square;stroke-linejoin:miter;stroke:rgb(84.999084%,84.999084%,84.999084%);stroke-opacity:0.7;stroke-miterlimit:3.25;" d="M 119.238281 30.359375 L 146.417969 74.769531 "/>
<path style="fill:none;stroke-width:1;stroke-linecap:square;stroke-linejoin:miter;stroke:rgb(84.999084%,84.999084%,84.999084%);stroke-opacity:0.7;stroke-miterlimit:3.25;" d="M 349.066406 9.648438 L 299.703125 49.011719 "/>
<path style="fill:none;stroke-width:1;stroke-linecap:square;stroke-linejoin:miter;stroke:rgb(84.999084%,84.999084%,84.999084%);stroke-opacity:0.7;stroke-miterlimit:3.25;" d="M 263.816406 48.488281 L 242.183594 83.972656 "/>
<path style="fill:none;stroke-width:1;stroke-linecap:square;stroke-linejoin:miter;stroke:rgb(69.999695%,0%,0%);stroke-opacity:1;stroke-miterlimit:3.25;" d="M 263.816406 48.488281 L 277.679688 91.9375 "/>
<path style="fill:none;stroke-width:1;stroke-linecap:square;stroke-linejoin:miter;stroke:rgb(69.999695%,0%,0%);stroke-opacity:1;stroke-miterlimit:3.25;" d="M 263.816406 48.488281 L 299.703125 49.011719 "/>
<path style="fill:none;stroke-width:1;stroke-linecap:square;stroke-linejoin:miter;stroke:rgb(84.999084%,84.999084%,84.999084%);stroke-opacity:0.7;stroke-miterlimit:3.25;" d="M 272.621094 143.386719 L 242.183594 83.972656 "/>
<path style="fill:none;stroke-width:1;stroke-linecap:square;stroke-linejoin:miter;stroke:rgb(69.999695%,0%,0%);stroke-opacity:1;stroke-miterlimit:3.25;" d="M 272.621094 143.386719 L 277.679688 91.9375 "/>
<path style="fill:none;stroke-width:1;stroke-linecap:square;stroke-linejoin:miter;stroke:rgb(84.999084%,84.999084%,84.999084%);stroke-opacity:0.7;stroke-miterlimit:3.25;" d="M 272.621094 143.386719 L 294.199219 199.667969 "/>
<path style="fill:none;stroke-width:1;stroke-linecap:square;stroke-linejoin:miter;stroke:rgb(69.999695%,0%,0%);stroke-opacity:1;stroke-miterlimit:3.25;" d="M 63.628906 87.105469 L 9.933594 66.1875 "/>
<path style="fill:none;stroke-width:1;stroke-linecap:square;stroke-linejoin:miter;stroke:rgb(69.999695%,0%,0%);stroke-opacity:1;stroke-miterlimit:3.25;" d="M 63.628906 87.105469 L 146.417969 74.769531 "/>
<path style="fill:none;stroke-width:1;stroke-linecap:square;stroke-linejoin:miter;stroke:rgb(69.999695%,0%,0%);stroke-opacity:1;stroke-miterlimit:3.25;" d="M 63.628906 87.105469 L 17.855469 121.015625 "/>
<path style="fill:none;stroke-width:1;stroke-linecap:square;stroke-linejoin:miter;stroke:rgb(84.999084%,84.999084%,84.999084%);stroke-opacity:0.7;stroke-miterlimit:3.25;" d="M 242.183594 83.972656 L 146.417969 74.769531 "/>
<path style="fill:none;stroke-width:1;stroke-linecap:square;stroke-linejoin:miter;stroke:rgb(84.999084%,84.999084%,84.999084%);stroke-opacity:0.7;stroke-miterlimit:3.25;" d="M 242.183594 83.972656 L 303.492188 83.558594 "/>
<path style="fill:none;stroke-width:1;stroke-linecap:square;stroke-linejoin:miter;stroke:rgb(84.999084%,84.999084%,84.999084%);stroke-opacity:0.7;stroke-miterlimit:3.25;" d="M 242.183594 83.972656 L 277.679688 91.9375 "/>
<path style="fill:none;stroke-width:1;stroke-linecap:square;stroke-linejoin:miter;stroke:rgb(84.999084%,84.999084%,84.999084%);stroke-opacity:0.7;stroke-miterlimit:3.25;" d="M 242.183594 83.972656 L 299.703125 49.011719 "/>
<path style="fill:none;stroke-width:1;stroke-linecap:square;stroke-linejoin:miter;stroke:rgb(84.999084%,84.999084%,84.999084%);stroke-opacity:0.7;stroke-miterlimit:3.25;" d="M 303.492188 83.558594 L 277.679688 91.9375 "/>
<path style="fill:none;stroke-width:1;stroke-linecap:square;stroke-linejoin:miter;stroke:rgb(84.999084%,84.999084%,84.999084%);stroke-opacity:0.7;stroke-miterlimit:3.25;" d="M 303.492188 83.558594 L 299.703125 49.011719 "/>
<path style="fill:none;stroke-width:1;stroke-linecap:square;stroke-linejoin:miter;stroke:rgb(69.999695%,0%,0%);stroke-opacity:1;stroke-miterlimit:3.25;" d="M 277.679688 91.9375 L 299.703125 49.011719 "/>
<path style="fill-rule:evenodd;fill:rgb(63.998413%,70.399475%,79.998779%);fill-opacity:1;stroke-width:1;stroke-linecap:square;stroke-linejoin:miter;stroke:rgb(0%,0%,0%);stroke-opacity:0.7;stroke-miterlimit:3.25;" d="M 121.996094 30.359375 C 121.996094 29.628906 121.703125 28.929688 121.1875 28.410156 C 120.671875 27.894531 119.96875 27.605469 119.238281 27.605469 C 118.507813 27.605469 117.808594 27.894531 117.292969 28.410156 C 116.773438 28.929688 116.484375 29.628906 116.484375 30.359375 C 116.484375 31.089844 116.773438 31.792969 117.292969 32.308594 C 117.808594 32.824219 118.507813 33.113281 119.238281 33.113281 C 119.96875 33.113281 120.671875 32.824219 121.1875 32.308594 C 121.703125 31.792969 121.996094 31.089844 121.996094 30.359375 Z M 121.996094 30.359375 "/>
<path style="fill-rule:evenodd;fill:rgb(63.998413%,70.399475%,79.998779%);fill-opacity:1;stroke-width:1;stroke-linecap:square;stroke-linejoin:miter;stroke:rgb(0%,0%,0%);stroke-opacity:0.7;stroke-miterlimit:3.25;" d="M 351.820313 9.648438 C 351.820313 8.917969 351.53125 8.214844 351.011719 7.699219 C 350.496094 7.183594 349.796875 6.894531 349.066406 6.894531 C 348.335938 6.894531 347.632813 7.183594 347.117188 7.699219 C 346.601563 8.214844 346.308594 8.917969 346.308594 9.648438 C 346.308594 10.378906 346.601563 11.078125 347.117188 11.597656 C 347.632813 12.113281 348.335938 12.402344 349.066406 12.402344 C 349.796875 12.402344 350.496094 12.113281 351.011719 11.597656 C 351.53125 11.078125 351.820313 10.378906 351.820313 9.648438 Z M 351.820313 9.648438 "/>
<path style="fill-rule:evenodd;fill:rgb(69.999695%,0%,0%);fill-opacity:1;stroke-width:1;stroke-linecap:square;stroke-linejoin:miter;stroke:rgb(69.999695%,0%,0%);stroke-opacity:1;stroke-miterlimit:3.25;" d="M 266.570313 48.488281 C 266.570313 47.757813 266.28125 47.054688 265.765625 46.539063 C 265.246094 46.023438 264.546875 45.734375 263.816406 45.734375 C 263.085938 45.734375 262.382813 46.023438 261.867188 46.539063 C 261.351563 47.054688 261.0625 47.757813 261.0625 48.488281 C 261.0625 49.21875 261.351563 49.917969 261.867188 50.4375 C 262.382813 50.953125 263.085938 51.242188 263.816406 51.242188 C 264.546875 51.242188 265.246094 50.953125 265.765625 50.4375 C 266.28125 49.917969 266.570313 49.21875 266.570313 48.488281 Z M 266.570313 48.488281 "/>
<path style="fill-rule:evenodd;fill:rgb(69.999695%,0%,0%);fill-opacity:1;stroke-width:1;stroke-linecap:square;stroke-linejoin:miter;stroke:rgb(69.999695%,0%,0%);stroke-opacity:1;stroke-miterlimit:3.25;" d="M 275.375 143.386719 C 275.375 142.65625 275.085938 141.957031 274.566406 141.4375 C 274.050781 140.921875 273.351563 140.632813 272.621094 140.632813 C 271.890625 140.632813 271.1875 140.921875 270.671875 141.4375 C 270.15625 141.957031 269.863281 142.65625 269.863281 143.386719 C 269.863281 144.117188 270.15625 144.820313 270.671875 145.335938 C 271.1875 145.851563 271.890625 146.140625 272.621094 146.140625 C 273.351563 146.140625 274.050781 145.851563 274.566406 145.335938 C 275.085938 144.820313 275.375 144.117188 275.375 143.386719 Z M 275.375 143.386719 "/>
<path style="fill-rule:evenodd;fill:rgb(69.999695%,0%,0%);fill-opacity:1;stroke-width:1;stroke-linecap:square;stroke-linejoin:miter;stroke:rgb(69.999695%,0%,0%);stroke-opacity:1;stroke-miterlimit:3.25;" d="M 66.382813 87.105469 C 66.382813 86.375 66.09375 85.671875 65.578125 85.15625 C 65.058594 84.640625 64.359375 84.351563 63.628906 84.351563 C 62.898438 84.351563 62.199219 84.640625 61.679688 85.15625 C 61.164063 85.671875 60.875 86.375 60.875 87.105469 C 60.875 87.835938 61.164063 88.535156 61.679688 89.054688 C 62.199219 89.570313 62.898438 89.859375 63.628906 89.859375 C 64.359375 89.859375 65.058594 89.570313 65.578125 89.054688 C 66.09375 88.535156 66.382813 87.835938 66.382813 87.105469 Z M 66.382813 87.105469 "/>
<path style="fill-rule:evenodd;fill:rgb(63.998413%,70.399475%,79.998779%);fill-opacity:1;stroke-width:1;stroke-linecap:square;stroke-linejoin:miter;stroke:rgb(0%,0%,0%);stroke-opacity:0.7;stroke-miterlimit:3.25;" d="M 244.9375 83.972656 C 244.9375 83.242188 244.644531 82.539063 244.128906 82.023438 C 243.613281 81.507813 242.914063 81.214844 242.183594 81.214844 C 241.449219 81.214844 240.75 81.507813 240.234375 82.023438 C 239.71875 82.539063 239.425781 83.242188 239.425781 83.972656 C 239.425781 84.703125 239.71875 85.402344 240.234375 85.917969 C 240.75 86.4375 241.449219 86.726563 242.183594 86.726563 C 242.914063 86.726563 243.613281 86.4375 244.128906 85.917969 C 244.644531 85.402344 244.9375 84.703125 244.9375 83.972656 Z M 244.9375 83.972656 "/>
<path style="fill-rule:evenodd;fill:rgb(69.999695%,0%,0%);fill-opacity:1;stroke-width:1;stroke-linecap:square;stroke-linejoin:miter;stroke:rgb(69.999695%,0%,0%);stroke-opacity:1;stroke-miterlimit:3.25;" d="M 12.691406 66.1875 C 12.691406 65.457031 12.398438 64.757813 11.882813 64.238281 C 11.367188 63.722656 10.664063 63.433594 9.933594 63.433594 C 9.203125 63.433594 8.503906 63.722656 7.988281 64.238281 C 7.46875 64.757813 7.179688 65.457031 7.179688 66.1875 C 7.179688 66.917969 7.46875 67.621094 7.988281 68.136719 C 8.503906 68.652344 9.203125 68.941406 9.933594 68.941406 C 10.664063 68.941406 11.367188 68.652344 11.882813 68.136719 C 12.398438 67.621094 12.691406 66.917969 12.691406 66.1875 Z M 12.691406 66.1875 "/>
<path style="fill-rule:evenodd;fill:rgb(69.999695%,0%,0%);fill-opacity:1;stroke-width:1;stroke-linecap:square;stroke-linejoin:miter;stroke:rgb(69.999695%,0%,0%);stroke-opacity:1;stroke-miterlimit:3.25;" d="M 149.171875 74.769531 C 149.171875 74.039063 148.882813 73.335938 148.363281 72.820313 C 147.847656 72.304688 147.148438 72.015625 146.417969 72.015625 C 145.6875 72.015625 144.984375 72.304688 144.46875 72.820313 C 143.953125 73.335938 143.660156 74.039063 143.660156 74.769531 C 143.660156 75.5 143.953125 76.199219 144.46875 76.71875 C 144.984375 77.234375 145.6875 77.523438 146.417969 77.523438 C 147.148438 77.523438 147.847656 77.234375 148.363281 76.71875 C 148.882813 76.199219 149.171875 75.5 149.171875 74.769531 Z M 149.171875 74.769531 "/>
<path style="fill-rule:evenodd;fill:rgb(63.998413%,70.399475%,79.998779%);fill-opacity:1;stroke-width:1;stroke-linecap:square;stroke-linejoin:miter;stroke:rgb(0%,0%,0%);stroke-opacity:0.7;stroke-miterlimit:3.25;" d="M 306.25 83.558594 C 306.25 82.828125 305.957031 82.128906 305.441406 81.613281 C 304.925781 81.09375 304.222656 80.804688 303.492188 80.804688 C 302.761719 80.804688 302.0625 81.09375 301.546875 81.613281 C 301.027344 82.128906 300.738281 82.828125 300.738281 83.558594 C 300.738281 84.289063 301.027344 84.992188 301.546875 85.507813 C 302.0625 86.023438 302.761719 86.316406 303.492188 86.316406 C 304.222656 86.316406 304.925781 86.023438 305.441406 85.507813 C 305.957031 84.992188 306.25 84.289063 306.25 83.558594 Z M 306.25 83.558594 "/>
<path style="fill-rule:evenodd;fill:rgb(69.999695%,0%,0%);fill-opacity:1;stroke-width:1;stroke-linecap:square;stroke-linejoin:miter;stroke:rgb(69.999695%,0%,0%);stroke-opacity:1;stroke-miterlimit:3.25;" d="M 280.433594 91.9375 C 280.433594 91.207031 280.144531 90.503906 279.628906 89.988281 C 279.113281 89.472656 278.410156 89.179688 277.679688 89.179688 C 276.949219 89.179688 276.25 89.472656 275.730469 89.988281 C 275.214844 90.503906 274.925781 91.207031 274.925781 91.9375 C 274.925781 92.667969 275.214844 93.367188 275.730469 93.882813 C 276.25 94.402344 276.949219 94.691406 277.679688 94.691406 C 278.410156 94.691406 279.113281 94.402344 279.628906 93.882813 C 280.144531 93.367188 280.433594 92.667969 280.433594 91.9375 Z M 280.433594 91.9375 "/>
<path style="fill-rule:evenodd;fill:rgb(69.999695%,0%,0%);fill-opacity:1;stroke-width:1;stroke-linecap:square;stroke-linejoin:miter;stroke:rgb(69.999695%,0%,0%);stroke-opacity:1;stroke-miterlimit:3.25;" d="M 302.457031 49.011719 C 302.457031 48.28125 302.167969 47.578125 301.652344 47.0625 C 301.132813 46.546875 300.433594 46.253906 299.703125 46.253906 C 298.972656 46.253906 298.273438 46.546875 297.753906 47.0625 C 297.238281 47.578125 296.949219 48.28125 296.949219 49.011719 C 296.949219 49.742188 297.238281 50.441406 297.753906 50.957031 C 298.273438 51.476563 298.972656 51.765625 299.703125 51.765625 C 300.433594 51.765625 301.132813 51.476563 301.652344 50.957031 C 302.167969 50.441406 302.457031 49.742188 302.457031 49.011719 Z M 302.457031 49.011719 "/>
<path style="fill-rule:evenodd;fill:rgb(69.999695%,0%,0%);fill-opacity:1;stroke-width:1;stroke-linecap:square;stroke-linejoin:miter;stroke:rgb(69.999695%,0%,0%);stroke-opacity:1;stroke-miterlimit:3.25;" d="M 20.613281 121.015625 C 20.613281 120.285156 20.320313 119.585938 19.804688 119.066406 C 19.289063 118.550781 18.585938 118.261719 17.855469 118.261719 C 17.125 118.261719 16.425781 118.550781 15.910156 119.066406 C 15.390625 119.585938 15.101563 120.285156 15.101563 121.015625 C 15.101563 121.746094 15.390625 122.445313 15.910156 122.964844 C 16.425781 123.480469 17.125 123.769531 17.855469 123.769531 C 18.585938 123.769531 19.289063 123.480469 19.804688 122.964844 C 20.320313 122.445313 20.613281 121.746094 20.613281 121.015625 Z M 20.613281 121.015625 "/>
<path style="fill-rule:evenodd;fill:rgb(63.998413%,70.399475%,79.998779%);fill-opacity:1;stroke-width:1;stroke-linecap:square;stroke-linejoin:miter;stroke:rgb(0%,0%,0%);stroke-opacity:0.7;stroke-miterlimit:3.25;" d="M 296.953125 199.667969 C 296.953125 198.9375 296.664063 198.238281 296.148438 197.722656 C 295.628906 197.203125 294.929688 196.914063 294.199219 196.914063 C 293.46875 196.914063 292.765625 197.203125 292.25 197.722656 C 291.734375 198.238281 291.445313 198.9375 291.445313 199.667969 C 291.445313 200.398438 291.734375 201.101563 292.25 201.617188 C 292.765625 202.132813 293.46875 202.425781 294.199219 202.425781 C 294.929688 202.425781 295.628906 202.132813 296.148438 201.617188 C 296.664063 201.101563 296.953125 200.398438 296.953125 199.667969 Z M 296.953125 199.667969 "/>
</g>
</svg>
