<?xml version="1.0" encoding="UTF-8"?>
<svg xmlns="http://www.w3.org/2000/svg" xmlns:xlink="http://www.w3.org/1999/xlink" width="360pt" height="311pt" viewBox="0 0 360 311" version="1.1">
<g id="surface24">
<path style="fill:none;stroke-width:1;stroke-linecap:square;stroke-linejoin:miter;stroke:rgb(84.999084%,84.999084%,84.999084%);stroke-opacity:0.7;stroke-miterlimit:3.25;" d="M 164.390625 139.191406 L 242.777344 153.949219 "/>
<path style="fill:none;stroke-width:1;stroke-linecap:square;stroke-linejoin:miter;stroke:rgb(84.999084%,84.999084%,84.999084%);stroke-opacity:0.7;stroke-miterlimit:3.25;" d="M 164.390625 139.191406 L 185.308594 190.625 "/>
<path style="fill:none;stroke-width:1;stroke-linecap:square;stroke-linejoin:miter;stroke:rgb(84.999084%,84.999084%,84.999084%);stroke-opacity:0.7;stroke-miterlimit:3.25;" d="M 164.390625 139.191406 L 129.082031 105.046875 "/>
<path style="fill:none;stroke-width:1;stroke-linecap:square;stroke-linejoin:miter;stroke:rgb(84.999084%,84.999084%,84.999084%);stroke-opacity:0.7;stroke-miterlimit:3.25;" d="M 164.390625 139.191406 L 243.789063 107.425781 "/>
<path style="fill:none;stroke-width:1;stroke-linecap:square;stroke-linejoin:miter;stroke:rgb(84.999084%,84.999084%,84.999084%);stroke-opacity:0.7;stroke-miterlimit:3.25;" d="M 242.777344 153.949219 L 301.214844 279.285156 "/>
<path style="fill:none;stroke-width:1;stroke-linecap:square;stroke-linejoin:miter;stroke:rgb(84.999084%,84.999084%,84.999084%);stroke-opacity:0.7;stroke-miterlimit:3.25;" d="M 242.777344 153.949219 L 340.425781 169.554688 "/>
<path style="fill:none;stroke-width:1;stroke-linecap:square;stroke-linejoin:miter;stroke:rgb(84.999084%,84.999084%,84.999084%);stroke-opacity:0.7;stroke-miterlimit:3.25;" d="M 242.777344 153.949219 L 242.292969 10.203125 "/>
<path style="fill:none;stroke-width:1;stroke-linecap:square;stroke-linejoin:miter;stroke:rgb(84.999084%,84.999084%,84.999084%);stroke-opacity:0.7;stroke-miterlimit:3.25;" d="M 242.777344 153.949219 L 185.308594 190.625 "/>
<path style="fill:none;stroke-width:1;stroke-linecap:square;stroke-linejoin:miter;stroke:rgb(84.999084%,84.999084%,84.999084%);stroke-opacity:0.7;stroke-miterlimit:3.25;" d="M 242.777344 153.949219 L 297.117188 119.4375 "/>
<path style="fill:none;stroke-width:1;stroke-linecap:square;stroke-linejoin:miter;stroke:rgb(84.999084%,84.999084%,84.999084%);stroke-opacity:0.7;stroke-miterlimit:3.25;" d="M 242.777344 153.949219 L 129.082031 105.046875 "/>
<path style="fill:none;stroke-width:1;stroke-linecap:square;stroke-linejoin:miter;stroke:rgb(84.999084%,84.999084%,84.999084%);stroke-opacity:0.7;stroke-miterlimit:3.25;" d="M 242.777344 153.949219 L 243.789063 107.425781 "/>
<path style="fill:none;stroke-width:1;stroke-linecap:square;stroke-linejoin:miter;stroke:rgb(84.999084%,84.999084%,84.999084%);stroke-opacity:0.7;stroke-miterlimit:3.25;" d="M 340.425781 169.554688 L 243.789063 107.425781 "/>
<path style="fill:none;stroke-width:1;stroke-linecap:square;stroke-linejoin:miter;stroke:rgb(84.999084%,84.999084%,84.999084%);stroke-opacity:0.7;stroke-miterlimit:3.25;" d="M 348.507813 47.179688 L 297.117188 119.4375 "/>
<path style="fill:none;stroke-width:1;stroke-linecap:square;stroke-linejoin:miter;stroke:rgb(84.999084%,84.999084%,84.999084%);stroke-opacity:0.7;stroke-miterlimit:3.25;" d="M 348.507813 47.179688 L 243.789063 107.425781 "/>
<path style="fill:none;stroke-width:1;stroke-linecap:square;stroke-linejoin:miter;stroke:rgb(84.999084%,84.999084%,84.999084%);stroke-opacity:0.7;stroke-miterlimit:3.25;" d="M 10.492188 54.964844 L 129.082031 105.046875 "/>
<path style="fill:none;stroke-width:1;stroke-linecap:square;stroke-linejoin:miter;stroke:rgb(84.999084%,84.999084%,84.999084%);stroke-opacity:0.7;stroke-miterlimit:3.25;" d="M 112.078125 300.152344 L 185.308594 190.625 "/>
<path style="fill:none;stroke-width:1;stroke-linecap:square;stroke-linejoin:miter;stroke:rgb(84.999084%,84.999084%,84.999084%);stroke-opacity:0.7;stroke-miterlimit:3.25;" d="M 185.308594 190.625 L 297.117188 119.4375 "/>
<path style="fill:none;stroke-width:1;stroke-linecap:square;stroke-linejoin:miter;stroke:rgb(84.999084%,84.999084%,84.999084%);stroke-opacity:0.7;stroke-miterlimit:3.25;" d="M 185.308594 190.625 L 129.082031 105.046875 "/>
<path style="fill:none;stroke-width:1;stroke-linecap:square;stroke-linejoin:miter;stroke:rgb(84.999084%,84.999084%,84.999084%);stroke-opacity:0.7;stroke-miterlimit:3.25;" d="M 185.308594 190.625 L 243.789063 107.425781 "/>
<path style="fill:none;stroke-width:1;stroke-linecap:square;stroke-linejoin:miter;stroke:rgb(84.999084%,84.999084%,84.999084%);stroke-opacity:0.7;stroke-miterlimit:3.25;" d="M 297.117188 119.4375 L 243.789063 107.425781 "/>
<path style="fill:none;stroke-width:1;stroke-linecap:square;stroke-linejoin:miter;stroke:rgb(84.999084%,84.999084%,84.999084%);stroke-opacity:0.7;stroke-miterlimit:3.25;" d="M 129.082031 105.046875 L 243.789063 107.425781 "/>
<path style="fill-rule:evenodd;fill:rgb(63.998413%,70.399475%,79.998779%);fill-opacity:1;stroke-width:1;stroke-linecap:square;stroke-linejoin:miter;stroke:rgb(0%,0%,0%);stroke-opacity:0.7;stroke-miterlimit:3.25;" d="M 167.699219 139.191406 C 167.699219 138.3125 167.351563 137.472656 166.730469 136.851563 C 166.109375 136.230469 165.265625 135.878906 164.390625 135.878906 C 163.511719 135.878906 162.667969 136.230469 162.046875 136.851563 C 161.425781 137.472656 161.078125 138.3125 161.078125 139.191406 C 161.078125 140.070313 161.425781 140.914063 162.046875 141.535156 C 162.667969 142.152344 163.511719 142.503906 164.390625 142.503906 C 165.265625 142.503906 166.109375 142.152344 166.730469 141.535156 C 167.351563 140.914063 167.699219 140.070313 167.699219 139.191406 Z M 167.699219 139.191406 "/>
<path style="fill-rule:evenodd;fill:rgb(63.998413%,70.399475%,79.998779%);fill-opacity:1;stroke-width:1;stroke-linecap:square;stroke-linejoin:miter;stroke:rgb(0%,0%,0%);stroke-opacity:0.7;stroke-miterlimit:3.25;" d="M 246.085938 153.949219 C 246.085938 153.070313 245.738281 152.230469 245.117188 151.609375 C 244.496094 150.988281 243.652344 150.636719 242.777344 150.636719 C 241.898438 150.636719 241.054688 150.988281 240.433594 151.609375 C 239.8125 152.230469 239.464844 153.070313 239.464844 153.949219 C 239.464844 154.828125 239.8125 155.671875 240.433594 156.292969 C 241.054688 156.910156 241.898438 157.261719 242.777344 157.261719 C 243.652344 157.261719 244.496094 156.910156 245.117188 156.292969 C 245.738281 155.671875 246.085938 154.828125 246.085938 153.949219 Z M 246.085938 153.949219 "/>
<path style="fill-rule:evenodd;fill:rgb(69.999695%,0%,0%);fill-opacity:1;stroke-width:1;stroke-linecap:square;stroke-linejoin:miter;stroke:rgb(69.999695%,0%,0%);stroke-opacity:1;stroke-miterlimit:3.25;" d="M 304.527344 279.285156 C 304.527344 278.40625 304.179688 277.566406 303.558594 276.945313 C 302.9375 276.324219 302.09375 275.972656 301.214844 275.972656 C 300.339844 275.972656 299.496094 276.324219 298.875 276.945313 C 298.253906 277.566406 297.90625 278.40625 297.90625 279.285156 C 297.90625 280.164063 298.253906 281.007813 298.875 281.628906 C 299.496094 282.25 300.339844 282.597656 301.214844 282.597656 C 302.09375 282.597656 302.9375 282.25 303.558594 281.628906 C 304.179688 281.007813 304.527344 280.164063 304.527344 279.285156 Z M 304.527344 279.285156 "/>
<path style="fill-rule:evenodd;fill:rgb(63.998413%,70.399475%,79.998779%);fill-opacity:1;stroke-width:1;stroke-linecap:square;stroke-linejoin:miter;stroke:rgb(0%,0%,0%);stroke-opacity:0.7;stroke-miterlimit:3.25;" d="M 343.738281 169.554688 C 343.738281 168.675781 343.390625 167.832031 342.769531 167.214844 C 342.148438 166.59375 341.304688 166.242188 340.425781 166.242188 C 339.546875 166.242188 338.707031 166.59375 338.085938 167.214844 C 337.464844 167.832031 337.113281 168.675781 337.113281 169.554688 C 337.113281 170.433594 337.464844 171.273438 338.085938 171.894531 C 338.707031 172.515625 339.546875 172.867188 340.425781 172.867188 C 341.304688 172.867188 342.148438 172.515625 342.769531 171.894531 C 343.390625 171.273438 343.738281 170.433594 343.738281 169.554688 Z M 343.738281 169.554688 "/>
<path style="fill-rule:evenodd;fill:rgb(63.998413%,70.399475%,79.998779%);fill-opacity:1;stroke-width:1;stroke-linecap:square;stroke-linejoin:miter;stroke:rgb(0%,0%,0%);stroke-opacity:0.7;stroke-miterlimit:3.25;" d="M 351.820313 47.179688 C 351.820313 46.300781 351.472656 45.460938 350.851563 44.839844 C 350.230469 44.21875 349.386719 43.867188 348.507813 43.867188 C 347.628906 43.867188 346.789063 44.21875 346.167969 44.839844 C 345.546875 45.460938 345.199219 46.300781 345.199219 47.179688 C 345.199219 48.058594 345.546875 48.898438 346.167969 49.519531 C 346.789063 50.140625 347.628906 50.492188 348.507813 50.492188 C 349.386719 50.492188 350.230469 50.140625 350.851563 49.519531 C 351.472656 48.898438 351.820313 48.058594 351.820313 47.179688 Z M 351.820313 47.179688 "/>
<path style="fill-rule:evenodd;fill:rgb(63.998413%,70.399475%,79.998779%);fill-opacity:1;stroke-width:1;stroke-linecap:square;stroke-linejoin:miter;stroke:rgb(0%,0%,0%);stroke-opacity:0.7;stroke-miterlimit:3.25;" d="M 13.800781 54.964844 C 13.800781 54.085938 13.453125 53.242188 12.832031 52.621094 C 12.210938 52 11.371094 51.652344 10.492188 51.652344 C 9.613281 51.652344 8.769531 52 8.148438 52.621094 C 7.527344 53.242188 7.179688 54.085938 7.179688 54.964844 C 7.179688 55.839844 7.527344 56.683594 8.148438 57.304688 C 8.769531 57.925781 9.613281 58.273438 10.492188 58.273438 C 11.371094 58.273438 12.210938 57.925781 12.832031 57.304688 C 13.453125 56.683594 13.800781 55.839844 13.800781 54.964844 Z M 13.800781 54.964844 "/>
<path style="fill-rule:evenodd;fill:rgb(63.998413%,70.399475%,79.998779%);fill-opacity:1;stroke-width:1;stroke-linecap:square;stroke-linejoin:miter;stroke:rgb(0%,0%,0%);stroke-opacity:0.7;stroke-miterlimit:3.25;" d="M 245.601563 10.203125 C 245.601563 9.324219 245.253906 8.484375 244.632813 7.863281 C 244.011719 7.242188 243.171875 6.894531 242.292969 6.894531 C 241.414063 6.894531 240.570313 7.242188 239.949219 7.863281 C 239.328125 8.484375 238.980469 9.324219 238.980469 10.203125 C 238.980469 11.082031 239.328125 11.925781 239.949219 12.546875 C 240.570313 13.167969 241.414063 13.515625 242.292969 13.515625 C 243.171875 13.515625 244.011719 13.167969 244.632813 12.546875 C 245.253906 11.925781 245.601563 11.082031 245.601563 10.203125 Z M 245.601563 10.203125 "/>
<path style="fill-rule:evenodd;fill:rgb(63.998413%,70.399475%,79.998779%);fill-opacity:1;stroke-width:1;stroke-linecap:square;stroke-linejoin:miter;stroke:rgb(0%,0%,0%);stroke-opacity:0.7;stroke-miterlimit:3.25;" d="M 115.390625 300.152344 C 115.390625 299.273438 115.042969 298.433594 114.421875 297.8125 C 113.800781 297.191406 112.957031 296.84375 112.078125 296.84375 C 111.199219 296.84375 110.359375 297.191406 109.738281 297.8125 C 109.117188 298.433594 108.769531 299.273438 108.769531 300.152344 C 108.769531 301.03125 109.117188 301.875 109.738281 302.496094 C 110.359375 303.117188 111.199219 303.464844 112.078125 303.464844 C 112.957031 303.464844 113.800781 303.117188 114.421875 302.496094 C 115.042969 301.875 115.390625 301.03125 115.390625 300.152344 Z M 115.390625 300.152344 "/>
<path style="fill-rule:evenodd;fill:rgb(63.998413%,70.399475%,79.998779%);fill-opacity:1;stroke-width:1;stroke-linecap:square;stroke-linejoin:miter;stroke:rgb(0%,0%,0%);stroke-opacity:0.7;stroke-miterlimit:3.25;" d="M 188.621094 190.625 C 188.621094 189.746094 188.269531 188.90625 187.652344 188.285156 C 187.03125 187.664063 186.1875 187.316406 185.308594 187.316406 C 184.429688 187.316406 183.589844 187.664063 182.96875 188.285156 C 182.347656 188.90625 181.996094 189.746094 181.996094 190.625 C 181.996094 191.503906 182.347656 192.347656 182.96875 192.96875 C 183.589844 193.589844 184.429688 193.9375 185.308594 193.9375 C 186.1875 193.9375 187.03125 193.589844 187.652344 192.96875 C 188.269531 192.347656 188.621094 191.503906 188.621094 190.625 Z M 188.621094 190.625 "/>
<path style="fill-rule:evenodd;fill:rgb(69.999695%,0%,0%);fill-opacity:1;stroke-width:1;stroke-linecap:square;stroke-linejoin:miter;stroke:rgb(69.999695%,0%,0%);stroke-opacity:1;stroke-miterlimit:3.25;" d="M 300.429688 119.4375 C 300.429688 118.5625 300.082031 117.71875 299.460938 117.097656 C 298.839844 116.476563 297.996094 116.128906 297.117188 116.128906 C 296.242188 116.128906 295.398438 116.476563 294.777344 117.097656 C 294.15625 117.71875 293.808594 118.5625 293.808594 119.4375 C 293.808594 120.316406 294.15625 121.160156 294.777344 121.78125 C 295.398438 122.402344 296.242188 122.75 297.117188 122.75 C 297.996094 122.75 298.839844 122.402344 299.460938 121.78125 C 300.082031 121.160156 300.429688 120.316406 300.429688 119.4375 Z M 300.429688 119.4375 "/>
<path style="fill-rule:evenodd;fill:rgb(63.998413%,70.399475%,79.998779%);fill-opacity:1;stroke-width:1;stroke-linecap:square;stroke-linejoin:miter;stroke:rgb(0%,0%,0%);stroke-opacity:0.7;stroke-miterlimit:3.25;" d="M 132.394531 105.046875 C 132.394531 104.167969 132.042969 103.324219 131.421875 102.707031 C 130.800781 102.085938 129.960938 101.734375 129.082031 101.734375 C 128.203125 101.734375 127.359375 102.085938 126.738281 102.707031 C 126.117188 103.324219 125.769531 104.167969 125.769531 105.046875 C 125.769531 105.925781 126.117188 106.765625 126.738281 107.386719 C 127.359375 108.007813 128.203125 108.359375 129.082031 108.359375 C 129.960938 108.359375 130.800781 108.007813 131.421875 107.386719 C 132.042969 106.765625 132.394531 105.925781 132.394531 105.046875 Z M 132.394531 105.046875 "/>
<path style="fill-rule:evenodd;fill:rgb(63.998413%,70.399475%,79.998779%);fill-opacity:1;stroke-width:1;stroke-linecap:square;stroke-linejoin:miter;stroke:rgb(0%,0%,0%);stroke-opacity:0.7;stroke-miterlimit:3.25;" d="M 247.101563 107.425781 C 247.101563 106.546875 246.75 105.707031 246.128906 105.085938 C 245.511719 104.464844 244.667969 104.117188 243.789063 104.117188 C 242.910156 104.117188 242.070313 104.464844 241.449219 105.085938 C 240.828125 105.707031 240.476563 106.546875 240.476563 107.425781 C 240.476563 108.304688 240.828125 109.148438 241.449219 109.769531 C 242.070313 110.390625 242.910156 110.738281 243.789063 110.738281 C 244.667969 110.738281 245.511719 110.390625 246.128906 109.769531 C 246.75 109.148438 247.101563 108.304688 247.101563 107.425781 Z M 247.101563 107.425781 "/>
</g>
</svg>
