<?xml version="1.0" encoding="UTF-8"?>
<svg xmlns="http://www.w3.org/2000/svg" xmlns:xlink="http://www.w3.org/1999/xlink" width="360pt" height="238pt" viewBox="0 0 360 238" version="1.1">
<g id="surface12">
<path style="fill:none;stroke-width:1;stroke-linecap:square;stroke-linejoin:miter;stroke:rgb(84.999084%,84.999084%,84.999084%);stroke-opacity:0.7;stroke-miterlimit:3.25;" d="M 147.949219 91.335938 L 147.941406 61.289063 "/>
<path style="fill:none;stroke-width:1;stroke-linecap:square;stroke-linejoin:miter;stroke:rgb(84.999084%,84.999084%,84.999084%);stroke-opacity:0.7;stroke-miterlimit:3.25;" d="M 147.949219 91.335938 L 159.027344 89.703125 "/>
<path style="fill:none;stroke-width:1;stroke-linecap:square;stroke-linejoin:miter;stroke:rgb(84.999084%,84.999084%,84.999084%);stroke-opacity:0.7;stroke-miterlimit:3.25;" d="M 147.949219 91.335938 L 157.441406 111.085938 "/>
<path style="fill:none;stroke-width:1;stroke-linecap:square;stroke-linejoin:miter;stroke:rgb(84.999084%,84.999084%,84.999084%);stroke-opacity:0.7;stroke-miterlimit:3.25;" d="M 147.949219 91.335938 L 154.066406 123.546875 "/>
<path style="fill:none;stroke-width:1;stroke-linecap:square;stroke-linejoin:miter;stroke:rgb(84.999084%,84.999084%,84.999084%);stroke-opacity:0.7;stroke-miterlimit:3.25;" d="M 147.949219 91.335938 L 127.210938 99.980469 "/>
<path style="fill:none;stroke-width:1;stroke-linecap:square;stroke-linejoin:miter;stroke:rgb(84.999084%,84.999084%,84.999084%);stroke-opacity:0.7;stroke-miterlimit:3.25;" d="M 187.066406 133.078125 L 157.441406 111.085938 "/>
<path style="fill:none;stroke-width:1;stroke-linecap:square;stroke-linejoin:miter;stroke:rgb(84.999084%,84.999084%,84.999084%);stroke-opacity:0.7;stroke-miterlimit:3.25;" d="M 187.066406 133.078125 L 168.394531 127.15625 "/>
<path style="fill:none;stroke-width:1;stroke-linecap:square;stroke-linejoin:miter;stroke:rgb(84.999084%,84.999084%,84.999084%);stroke-opacity:0.7;stroke-miterlimit:3.25;" d="M 187.066406 133.078125 L 211.792969 161.054688 "/>
<path style="fill:none;stroke-width:1;stroke-linecap:square;stroke-linejoin:miter;stroke:rgb(84.999084%,84.999084%,84.999084%);stroke-opacity:0.7;stroke-miterlimit:3.25;" d="M 68.75 150.140625 L 105.351563 131.34375 "/>
<path style="fill:none;stroke-width:1;stroke-linecap:square;stroke-linejoin:miter;stroke:rgb(84.999084%,84.999084%,84.999084%);stroke-opacity:0.7;stroke-miterlimit:3.25;" d="M 68.75 150.140625 L 43.332031 164.882813 "/>
<path style="fill:none;stroke-width:1;stroke-linecap:square;stroke-linejoin:miter;stroke:rgb(84.999084%,84.999084%,84.999084%);stroke-opacity:0.7;stroke-miterlimit:3.25;" d="M 342.753906 110.464844 L 321.796875 95.871094 "/>
<path style="fill:none;stroke-width:1;stroke-linecap:square;stroke-linejoin:miter;stroke:rgb(84.999084%,84.999084%,84.999084%);stroke-opacity:0.7;stroke-miterlimit:3.25;" d="M 105.351563 131.34375 L 115.496094 148.84375 "/>
<path style="fill:none;stroke-width:1;stroke-linecap:square;stroke-linejoin:miter;stroke:rgb(84.999084%,84.999084%,84.999084%);stroke-opacity:0.7;stroke-miterlimit:3.25;" d="M 105.351563 131.34375 L 141.769531 128.746094 "/>
<path style="fill:none;stroke-width:1;stroke-linecap:square;stroke-linejoin:miter;stroke:rgb(84.999084%,84.999084%,84.999084%);stroke-opacity:0.7;stroke-miterlimit:3.25;" d="M 105.351563 131.34375 L 127.210938 99.980469 "/>
<path style="fill:none;stroke-width:1;stroke-linecap:square;stroke-linejoin:miter;stroke:rgb(84.999084%,84.999084%,84.999084%);stroke-opacity:0.7;stroke-miterlimit:3.25;" d="M 105.835938 45.90625 L 118.371094 73.132813 "/>
<path style="fill:none;stroke-width:1;stroke-linecap:square;stroke-linejoin:miter;stroke:rgb(84.999084%,84.999084%,84.999084%);stroke-opacity:0.7;stroke-miterlimit:3.25;" d="M 115.496094 148.84375 L 94.789063 172.078125 "/>
<path style="fill:none;stroke-width:1;stroke-linecap:square;stroke-linejoin:miter;stroke:rgb(84.999084%,84.999084%,84.999084%);stroke-opacity:0.7;stroke-miterlimit:3.25;" d="M 115.496094 148.84375 L 135.945313 129.238281 "/>
<path style="fill:none;stroke-width:1;stroke-linecap:square;stroke-linejoin:miter;stroke:rgb(84.999084%,84.999084%,84.999084%);stroke-opacity:0.7;stroke-miterlimit:3.25;" d="M 115.496094 148.84375 L 145.597656 136.285156 "/>
<path style="fill:none;stroke-width:1;stroke-linecap:square;stroke-linejoin:miter;stroke:rgb(84.999084%,84.999084%,84.999084%);stroke-opacity:0.7;stroke-miterlimit:3.25;" d="M 193.972656 73.757813 L 159.027344 89.703125 "/>
<path style="fill:none;stroke-width:1;stroke-linecap:square;stroke-linejoin:miter;stroke:rgb(84.999084%,84.999084%,84.999084%);stroke-opacity:0.7;stroke-miterlimit:3.25;" d="M 193.972656 73.757813 L 207.984375 35.859375 "/>
<path style="fill:none;stroke-width:1;stroke-linecap:square;stroke-linejoin:miter;stroke:rgb(84.999084%,84.999084%,84.999084%);stroke-opacity:0.7;stroke-miterlimit:3.25;" d="M 193.972656 73.757813 L 209.796875 53.734375 "/>
<path style="fill:none;stroke-width:1;stroke-linecap:square;stroke-linejoin:miter;stroke:rgb(84.999084%,84.999084%,84.999084%);stroke-opacity:0.7;stroke-miterlimit:3.25;" d="M 193.972656 73.757813 L 240.382813 77.28125 "/>
<path style="fill:none;stroke-width:1;stroke-linecap:square;stroke-linejoin:miter;stroke:rgb(84.999084%,84.999084%,84.999084%);stroke-opacity:0.7;stroke-miterlimit:3.25;" d="M 193.972656 73.757813 L 152.289063 106.222656 "/>
<path style="fill:none;stroke-width:1;stroke-linecap:square;stroke-linejoin:miter;stroke:rgb(84.999084%,84.999084%,84.999084%);stroke-opacity:0.7;stroke-miterlimit:3.25;" d="M 192.175781 137.054688 L 194.328125 163.714844 "/>
<path style="fill:none;stroke-width:1;stroke-linecap:square;stroke-linejoin:miter;stroke:rgb(84.999084%,84.999084%,84.999084%);stroke-opacity:0.7;stroke-miterlimit:3.25;" d="M 192.175781 137.054688 L 154.066406 123.546875 "/>
<path style="fill:none;stroke-width:1;stroke-linecap:square;stroke-linejoin:miter;stroke:rgb(84.999084%,84.999084%,84.999084%);stroke-opacity:0.7;stroke-miterlimit:3.25;" d="M 192.175781 137.054688 L 220.835938 121.429688 "/>
<path style="fill:none;stroke-width:1;stroke-linecap:square;stroke-linejoin:miter;stroke:rgb(84.999084%,84.999084%,84.999084%);stroke-opacity:0.7;stroke-miterlimit:3.25;" d="M 192.175781 137.054688 L 173.738281 134.117188 "/>
<path style="fill:none;stroke-width:1;stroke-linecap:square;stroke-linejoin:miter;stroke:rgb(84.999084%,84.999084%,84.999084%);stroke-opacity:0.7;stroke-miterlimit:3.25;" d="M 147.941406 61.289063 L 161.136719 60.628906 "/>
<path style="fill:none;stroke-width:1;stroke-linecap:square;stroke-linejoin:miter;stroke:rgb(84.999084%,84.999084%,84.999084%);stroke-opacity:0.7;stroke-miterlimit:3.25;" d="M 159.027344 89.703125 L 161.136719 60.628906 "/>
<path style="fill:none;stroke-width:1;stroke-linecap:square;stroke-linejoin:miter;stroke:rgb(84.999084%,84.999084%,84.999084%);stroke-opacity:0.7;stroke-miterlimit:3.25;" d="M 159.027344 89.703125 L 157.441406 111.085938 "/>
<path style="fill:none;stroke-width:1;stroke-linecap:square;stroke-linejoin:miter;stroke:rgb(84.999084%,84.999084%,84.999084%);stroke-opacity:0.7;stroke-miterlimit:3.25;" d="M 159.027344 89.703125 L 154.066406 123.546875 "/>
<path style="fill:none;stroke-width:1;stroke-linecap:square;stroke-linejoin:miter;stroke:rgb(84.999084%,84.999084%,84.999084%);stroke-opacity:0.7;stroke-miterlimit:3.25;" d="M 159.027344 89.703125 L 127.210938 99.980469 "/>
<path style="fill:none;stroke-width:1;stroke-linecap:square;stroke-linejoin:miter;stroke:rgb(84.999084%,84.999084%,84.999084%);stroke-opacity:0.7;stroke-miterlimit:3.25;" d="M 159.027344 89.703125 L 138.703125 97.242188 "/>
<path style="fill:none;stroke-width:1;stroke-linecap:square;stroke-linejoin:miter;stroke:rgb(84.999084%,84.999084%,84.999084%);stroke-opacity:0.7;stroke-miterlimit:3.25;" d="M 157.441406 111.085938 L 141.769531 128.746094 "/>
<path style="fill:none;stroke-width:1;stroke-linecap:square;stroke-linejoin:miter;stroke:rgb(84.999084%,84.999084%,84.999084%);stroke-opacity:0.7;stroke-miterlimit:3.25;" d="M 157.441406 111.085938 L 154.066406 123.546875 "/>
<path style="fill:none;stroke-width:1;stroke-linecap:square;stroke-linejoin:miter;stroke:rgb(84.999084%,84.999084%,84.999084%);stroke-opacity:0.7;stroke-miterlimit:3.25;" d="M 157.441406 111.085938 L 152.289063 106.222656 "/>
<path style="fill:none;stroke-width:1;stroke-linecap:square;stroke-linejoin:miter;stroke:rgb(84.999084%,84.999084%,84.999084%);stroke-opacity:0.7;stroke-miterlimit:3.25;" d="M 157.441406 111.085938 L 127.210938 99.980469 "/>
<path style="fill:none;stroke-width:1;stroke-linecap:square;stroke-linejoin:miter;stroke:rgb(84.999084%,84.999084%,84.999084%);stroke-opacity:0.7;stroke-miterlimit:3.25;" d="M 168.394531 127.15625 L 194.328125 163.714844 "/>
<path style="fill:none;stroke-width:1;stroke-linecap:square;stroke-linejoin:miter;stroke:rgb(84.999084%,84.999084%,84.999084%);stroke-opacity:0.7;stroke-miterlimit:3.25;" d="M 168.394531 127.15625 L 154.066406 123.546875 "/>
<path style="fill:none;stroke-width:1;stroke-linecap:square;stroke-linejoin:miter;stroke:rgb(84.999084%,84.999084%,84.999084%);stroke-opacity:0.7;stroke-miterlimit:3.25;" d="M 168.394531 127.15625 L 152.289063 106.222656 "/>
<path style="fill:none;stroke-width:1;stroke-linecap:square;stroke-linejoin:miter;stroke:rgb(84.999084%,84.999084%,84.999084%);stroke-opacity:0.7;stroke-miterlimit:3.25;" d="M 168.394531 127.15625 L 173.738281 134.117188 "/>
<path style="fill:none;stroke-width:1;stroke-linecap:square;stroke-linejoin:miter;stroke:rgb(84.999084%,84.999084%,84.999084%);stroke-opacity:0.7;stroke-miterlimit:3.25;" d="M 168.394531 127.15625 L 138.703125 97.242188 "/>
<path style="fill:none;stroke-width:1;stroke-linecap:square;stroke-linejoin:miter;stroke:rgb(84.999084%,84.999084%,84.999084%);stroke-opacity:0.7;stroke-miterlimit:3.25;" d="M 211.792969 161.054688 L 234.851563 179.40625 "/>
<path style="fill:none;stroke-width:1;stroke-linecap:square;stroke-linejoin:miter;stroke:rgb(84.999084%,84.999084%,84.999084%);stroke-opacity:0.7;stroke-miterlimit:3.25;" d="M 211.792969 161.054688 L 197.226563 154.425781 "/>
<path style="fill:none;stroke-width:1;stroke-linecap:square;stroke-linejoin:miter;stroke:rgb(84.999084%,84.999084%,84.999084%);stroke-opacity:0.7;stroke-miterlimit:3.25;" d="M 211.792969 161.054688 L 194.328125 163.714844 "/>
<path style="fill:none;stroke-width:1;stroke-linecap:square;stroke-linejoin:miter;stroke:rgb(84.999084%,84.999084%,84.999084%);stroke-opacity:0.7;stroke-miterlimit:3.25;" d="M 51.09375 83.761719 L 78.402344 82.054688 "/>
<path style="fill:none;stroke-width:1;stroke-linecap:square;stroke-linejoin:miter;stroke:rgb(84.999084%,84.999084%,84.999084%);stroke-opacity:0.7;stroke-miterlimit:3.25;" d="M 125.128906 185.175781 L 135.222656 155.269531 "/>
<path style="fill:none;stroke-width:1;stroke-linecap:square;stroke-linejoin:miter;stroke:rgb(84.999084%,84.999084%,84.999084%);stroke-opacity:0.7;stroke-miterlimit:3.25;" d="M 61.488281 58.445313 L 55.453125 66.363281 "/>
<path style="fill:none;stroke-width:1;stroke-linecap:square;stroke-linejoin:miter;stroke:rgb(84.999084%,84.999084%,84.999084%);stroke-opacity:0.7;stroke-miterlimit:3.25;" d="M 61.488281 58.445313 L 78.402344 82.054688 "/>
<path style="fill:none;stroke-width:1;stroke-linecap:square;stroke-linejoin:miter;stroke:rgb(84.999084%,84.999084%,84.999084%);stroke-opacity:0.7;stroke-miterlimit:3.25;" d="M 118.371094 73.132813 L 127.210938 99.980469 "/>
<path style="fill:none;stroke-width:1;stroke-linecap:square;stroke-linejoin:miter;stroke:rgb(84.999084%,84.999084%,84.999084%);stroke-opacity:0.7;stroke-miterlimit:3.25;" d="M 118.371094 73.132813 L 138.703125 97.242188 "/>
<path style="fill:none;stroke-width:1;stroke-linecap:square;stroke-linejoin:miter;stroke:rgb(84.999084%,84.999084%,84.999084%);stroke-opacity:0.7;stroke-miterlimit:3.25;" d="M 207.984375 35.859375 L 218.15625 9.023438 "/>
<path style="fill:none;stroke-width:1;stroke-linecap:square;stroke-linejoin:miter;stroke:rgb(84.999084%,84.999084%,84.999084%);stroke-opacity:0.7;stroke-miterlimit:3.25;" d="M 197.226563 154.425781 L 194.328125 163.714844 "/>
<path style="fill:none;stroke-width:1;stroke-linecap:square;stroke-linejoin:miter;stroke:rgb(84.999084%,84.999084%,84.999084%);stroke-opacity:0.7;stroke-miterlimit:3.25;" d="M 197.226563 154.425781 L 173.738281 134.117188 "/>
<path style="fill:none;stroke-width:1;stroke-linecap:square;stroke-linejoin:miter;stroke:rgb(84.999084%,84.999084%,84.999084%);stroke-opacity:0.7;stroke-miterlimit:3.25;" d="M 116.355469 101.484375 L 152.289063 106.222656 "/>
<path style="fill:none;stroke-width:1;stroke-linecap:square;stroke-linejoin:miter;stroke:rgb(84.999084%,84.999084%,84.999084%);stroke-opacity:0.7;stroke-miterlimit:3.25;" d="M 116.355469 101.484375 L 135.945313 129.238281 "/>
<path style="fill:none;stroke-width:1;stroke-linecap:square;stroke-linejoin:miter;stroke:rgb(84.999084%,84.999084%,84.999084%);stroke-opacity:0.7;stroke-miterlimit:3.25;" d="M 116.355469 101.484375 L 138.703125 97.242188 "/>
<path style="fill:none;stroke-width:1;stroke-linecap:square;stroke-linejoin:miter;stroke:rgb(84.999084%,84.999084%,84.999084%);stroke-opacity:0.7;stroke-miterlimit:3.25;" d="M 116.355469 101.484375 L 78.402344 82.054688 "/>
<path style="fill:none;stroke-width:1;stroke-linecap:square;stroke-linejoin:miter;stroke:rgb(84.999084%,84.999084%,84.999084%);stroke-opacity:0.7;stroke-miterlimit:3.25;" d="M 141.769531 128.746094 L 154.066406 123.546875 "/>
<path style="fill:none;stroke-width:1;stroke-linecap:square;stroke-linejoin:miter;stroke:rgb(84.999084%,84.999084%,84.999084%);stroke-opacity:0.7;stroke-miterlimit:3.25;" d="M 141.769531 128.746094 L 173.738281 134.117188 "/>
<path style="fill:none;stroke-width:1;stroke-linecap:square;stroke-linejoin:miter;stroke:rgb(84.999084%,84.999084%,84.999084%);stroke-opacity:0.7;stroke-miterlimit:3.25;" d="M 141.769531 128.746094 L 135.945313 129.238281 "/>
<path style="fill:none;stroke-width:1;stroke-linecap:square;stroke-linejoin:miter;stroke:rgb(84.999084%,84.999084%,84.999084%);stroke-opacity:0.7;stroke-miterlimit:3.25;" d="M 141.769531 128.746094 L 145.597656 136.285156 "/>
<path style="fill:none;stroke-width:1;stroke-linecap:square;stroke-linejoin:miter;stroke:rgb(84.999084%,84.999084%,84.999084%);stroke-opacity:0.7;stroke-miterlimit:3.25;" d="M 194.328125 163.714844 L 209.800781 201.320313 "/>
<path style="fill:none;stroke-width:1;stroke-linecap:square;stroke-linejoin:miter;stroke:rgb(84.999084%,84.999084%,84.999084%);stroke-opacity:0.7;stroke-miterlimit:3.25;" d="M 154.066406 123.546875 L 135.222656 155.269531 "/>
<path style="fill:none;stroke-width:1;stroke-linecap:square;stroke-linejoin:miter;stroke:rgb(84.999084%,84.999084%,84.999084%);stroke-opacity:0.7;stroke-miterlimit:3.25;" d="M 154.066406 123.546875 L 152.289063 106.222656 "/>
<path style="fill:none;stroke-width:1;stroke-linecap:square;stroke-linejoin:miter;stroke:rgb(84.999084%,84.999084%,84.999084%);stroke-opacity:0.7;stroke-miterlimit:3.25;" d="M 154.066406 123.546875 L 173.738281 134.117188 "/>
<path style="fill:none;stroke-width:1;stroke-linecap:square;stroke-linejoin:miter;stroke:rgb(84.999084%,84.999084%,84.999084%);stroke-opacity:0.7;stroke-miterlimit:3.25;" d="M 154.066406 123.546875 L 127.210938 99.980469 "/>
<path style="fill:none;stroke-width:1;stroke-linecap:square;stroke-linejoin:miter;stroke:rgb(84.999084%,84.999084%,84.999084%);stroke-opacity:0.7;stroke-miterlimit:3.25;" d="M 154.066406 123.546875 L 155.21875 154.597656 "/>
<path style="fill:none;stroke-width:1;stroke-linecap:square;stroke-linejoin:miter;stroke:rgb(84.999084%,84.999084%,84.999084%);stroke-opacity:0.7;stroke-miterlimit:3.25;" d="M 154.066406 123.546875 L 135.945313 129.238281 "/>
<path style="fill:none;stroke-width:1;stroke-linecap:square;stroke-linejoin:miter;stroke:rgb(84.999084%,84.999084%,84.999084%);stroke-opacity:0.7;stroke-miterlimit:3.25;" d="M 154.066406 123.546875 L 145.597656 136.285156 "/>
<path style="fill:none;stroke-width:1;stroke-linecap:square;stroke-linejoin:miter;stroke:rgb(84.999084%,84.999084%,84.999084%);stroke-opacity:0.7;stroke-miterlimit:3.25;" d="M 349.691406 99.820313 L 321.796875 95.871094 "/>
<path style="fill:none;stroke-width:1;stroke-linecap:square;stroke-linejoin:miter;stroke:rgb(84.999084%,84.999084%,84.999084%);stroke-opacity:0.7;stroke-miterlimit:3.25;" d="M 220.835938 121.429688 L 268.382813 100.371094 "/>
<path style="fill:none;stroke-width:1;stroke-linecap:square;stroke-linejoin:miter;stroke:rgb(84.999084%,84.999084%,84.999084%);stroke-opacity:0.7;stroke-miterlimit:3.25;" d="M 220.835938 121.429688 L 173.738281 134.117188 "/>
<path style="fill:none;stroke-width:1;stroke-linecap:square;stroke-linejoin:miter;stroke:rgb(84.999084%,84.999084%,84.999084%);stroke-opacity:0.7;stroke-miterlimit:3.25;" d="M 268.382813 100.371094 L 240.382813 77.28125 "/>
<path style="fill:none;stroke-width:1;stroke-linecap:square;stroke-linejoin:miter;stroke:rgb(84.999084%,84.999084%,84.999084%);stroke-opacity:0.7;stroke-miterlimit:3.25;" d="M 268.382813 100.371094 L 321.796875 95.871094 "/>
<path style="fill:none;stroke-width:1;stroke-linecap:square;stroke-linejoin:miter;stroke:rgb(84.999084%,84.999084%,84.999084%);stroke-opacity:0.7;stroke-miterlimit:3.25;" d="M 221.21875 227.855469 L 209.800781 201.320313 "/>
<path style="fill:none;stroke-width:1;stroke-linecap:square;stroke-linejoin:miter;stroke:rgb(84.999084%,84.999084%,84.999084%);stroke-opacity:0.7;stroke-miterlimit:3.25;" d="M 240.382813 77.28125 L 262.445313 61.335938 "/>
<path style="fill:none;stroke-width:1;stroke-linecap:square;stroke-linejoin:miter;stroke:rgb(84.999084%,84.999084%,84.999084%);stroke-opacity:0.7;stroke-miterlimit:3.25;" d="M 135.222656 155.269531 L 135.945313 129.238281 "/>
<path style="fill:none;stroke-width:1;stroke-linecap:square;stroke-linejoin:miter;stroke:rgb(84.999084%,84.999084%,84.999084%);stroke-opacity:0.7;stroke-miterlimit:3.25;" d="M 55.453125 66.363281 L 78.402344 82.054688 "/>
<path style="fill:none;stroke-width:1;stroke-linecap:square;stroke-linejoin:miter;stroke:rgb(84.999084%,84.999084%,84.999084%);stroke-opacity:0.7;stroke-miterlimit:3.25;" d="M 321.796875 95.871094 L 348.601563 87.578125 "/>
<path style="fill:none;stroke-width:1;stroke-linecap:square;stroke-linejoin:miter;stroke:rgb(84.999084%,84.999084%,84.999084%);stroke-opacity:0.7;stroke-miterlimit:3.25;" d="M 321.796875 95.871094 L 340.160156 77.875 "/>
<path style="fill:none;stroke-width:1;stroke-linecap:square;stroke-linejoin:miter;stroke:rgb(84.999084%,84.999084%,84.999084%);stroke-opacity:0.7;stroke-miterlimit:3.25;" d="M 152.289063 106.222656 L 127.210938 99.980469 "/>
<path style="fill:none;stroke-width:1;stroke-linecap:square;stroke-linejoin:miter;stroke:rgb(84.999084%,84.999084%,84.999084%);stroke-opacity:0.7;stroke-miterlimit:3.25;" d="M 152.289063 106.222656 L 135.945313 129.238281 "/>
<path style="fill:none;stroke-width:1;stroke-linecap:square;stroke-linejoin:miter;stroke:rgb(84.999084%,84.999084%,84.999084%);stroke-opacity:0.7;stroke-miterlimit:3.25;" d="M 152.289063 106.222656 L 145.597656 136.285156 "/>
<path style="fill:none;stroke-width:1;stroke-linecap:square;stroke-linejoin:miter;stroke:rgb(84.999084%,84.999084%,84.999084%);stroke-opacity:0.7;stroke-miterlimit:3.25;" d="M 173.738281 134.117188 L 135.945313 129.238281 "/>
<path style="fill:none;stroke-width:1;stroke-linecap:square;stroke-linejoin:miter;stroke:rgb(84.999084%,84.999084%,84.999084%);stroke-opacity:0.7;stroke-miterlimit:3.25;" d="M 173.738281 134.117188 L 145.597656 136.285156 "/>
<path style="fill:none;stroke-width:1;stroke-linecap:square;stroke-linejoin:miter;stroke:rgb(84.999084%,84.999084%,84.999084%);stroke-opacity:0.7;stroke-miterlimit:3.25;" d="M 127.210938 99.980469 L 138.703125 97.242188 "/>
<path style="fill:none;stroke-width:1;stroke-linecap:square;stroke-linejoin:miter;stroke:rgb(84.999084%,84.999084%,84.999084%);stroke-opacity:0.7;stroke-miterlimit:3.25;" d="M 127.210938 99.980469 L 78.402344 82.054688 "/>
<path style="fill:none;stroke-width:1;stroke-linecap:square;stroke-linejoin:miter;stroke:rgb(84.999084%,84.999084%,84.999084%);stroke-opacity:0.7;stroke-miterlimit:3.25;" d="M 9.308594 64.65625 L 37.558594 71.199219 "/>
<path style="fill:none;stroke-width:1;stroke-linecap:square;stroke-linejoin:miter;stroke:rgb(84.999084%,84.999084%,84.999084%);stroke-opacity:0.7;stroke-miterlimit:3.25;" d="M 37.558594 71.199219 L 78.402344 82.054688 "/>
<path style="fill-rule:evenodd;fill:rgb(63.998413%,70.399475%,79.998779%);fill-opacity:1;stroke-width:1;stroke-linecap:square;stroke-linejoin:miter;stroke:rgb(0%,0%,0%);stroke-opacity:0.7;stroke-miterlimit:3.25;" d="M 150.078125 91.335938 C 150.078125 90.769531 149.851563 90.226563 149.453125 89.828125 C 149.054688 89.429688 148.511719 89.207031 147.949219 89.207031 C 147.382813 89.207031 146.839844 89.429688 146.441406 89.828125 C 146.042969 90.226563 145.820313 90.769531 145.820313 91.335938 C 145.820313 91.898438 146.042969 92.441406 146.441406 92.839844 C 146.839844 93.238281 147.382813 93.464844 147.949219 93.464844 C 148.511719 93.464844 149.054688 93.238281 149.453125 92.839844 C 149.851563 92.441406 150.078125 91.898438 150.078125 91.335938 Z M 150.078125 91.335938 "/>
<path style="fill-rule:evenodd;fill:rgb(63.998413%,70.399475%,79.998779%);fill-opacity:1;stroke-width:1;stroke-linecap:square;stroke-linejoin:miter;stroke:rgb(0%,0%,0%);stroke-opacity:0.7;stroke-miterlimit:3.25;" d="M 189.195313 133.078125 C 189.195313 132.511719 188.972656 131.96875 188.574219 131.570313 C 188.171875 131.171875 187.632813 130.949219 187.066406 130.949219 C 186.503906 130.949219 185.960938 131.171875 185.5625 131.570313 C 185.164063 131.96875 184.9375 132.511719 184.9375 133.078125 C 184.9375 133.640625 185.164063 134.183594 185.5625 134.582031 C 185.960938 134.980469 186.503906 135.207031 187.066406 135.207031 C 187.632813 135.207031 188.171875 134.980469 188.574219 134.582031 C 188.972656 134.183594 189.195313 133.640625 189.195313 133.078125 Z M 189.195313 133.078125 "/>
<path style="fill-rule:evenodd;fill:rgb(63.998413%,70.399475%,79.998779%);fill-opacity:1;stroke-width:1;stroke-linecap:square;stroke-linejoin:miter;stroke:rgb(0%,0%,0%);stroke-opacity:0.7;stroke-miterlimit:3.25;" d="M 70.878906 150.140625 C 70.878906 149.574219 70.652344 149.035156 70.253906 148.636719 C 69.855469 148.234375 69.3125 148.011719 68.75 148.011719 C 68.183594 148.011719 67.644531 148.234375 67.242188 148.636719 C 66.84375 149.035156 66.621094 149.574219 66.621094 150.140625 C 66.621094 150.703125 66.84375 151.246094 67.242188 151.644531 C 67.644531 152.042969 68.183594 152.269531 68.75 152.269531 C 69.3125 152.269531 69.855469 152.042969 70.253906 151.644531 C 70.652344 151.246094 70.878906 150.703125 70.878906 150.140625 Z M 70.878906 150.140625 "/>
<path style="fill-rule:evenodd;fill:rgb(63.998413%,70.399475%,79.998779%);fill-opacity:1;stroke-width:1;stroke-linecap:square;stroke-linejoin:miter;stroke:rgb(0%,0%,0%);stroke-opacity:0.7;stroke-miterlimit:3.25;" d="M 344.882813 110.464844 C 344.882813 109.898438 344.660156 109.359375 344.261719 108.957031 C 343.859375 108.558594 343.320313 108.335938 342.753906 108.335938 C 342.191406 108.335938 341.648438 108.558594 341.25 108.957031 C 340.851563 109.359375 340.625 109.898438 340.625 110.464844 C 340.625 111.027344 340.851563 111.570313 341.25 111.96875 C 341.648438 112.367188 342.191406 112.59375 342.753906 112.59375 C 343.320313 112.59375 343.859375 112.367188 344.261719 111.96875 C 344.660156 111.570313 344.882813 111.027344 344.882813 110.464844 Z M 344.882813 110.464844 "/>
<path style="fill-rule:evenodd;fill:rgb(63.998413%,70.399475%,79.998779%);fill-opacity:1;stroke-width:1;stroke-linecap:square;stroke-linejoin:miter;stroke:rgb(0%,0%,0%);stroke-opacity:0.7;stroke-miterlimit:3.25;" d="M 107.480469 131.34375 C 107.480469 130.78125 107.253906 130.238281 106.855469 129.839844 C 106.457031 129.441406 105.914063 129.214844 105.351563 129.214844 C 104.785156 129.214844 104.246094 129.441406 103.84375 129.839844 C 103.445313 130.238281 103.222656 130.78125 103.222656 131.34375 C 103.222656 131.910156 103.445313 132.449219 103.84375 132.851563 C 104.246094 133.25 104.785156 133.472656 105.351563 133.472656 C 105.914063 133.472656 106.457031 133.25 106.855469 132.851563 C 107.253906 132.449219 107.480469 131.910156 107.480469 131.34375 Z M 107.480469 131.34375 "/>
<path style="fill-rule:evenodd;fill:rgb(63.998413%,70.399475%,79.998779%);fill-opacity:1;stroke-width:1;stroke-linecap:square;stroke-linejoin:miter;stroke:rgb(0%,0%,0%);stroke-opacity:0.7;stroke-miterlimit:3.25;" d="M 107.964844 45.90625 C 107.964844 45.339844 107.738281 44.796875 107.339844 44.398438 C 106.941406 44 106.398438 43.777344 105.835938 43.777344 C 105.269531 43.777344 104.730469 44 104.328125 44.398438 C 103.929688 44.796875 103.707031 45.339844 103.707031 45.90625 C 103.707031 46.46875 103.929688 47.011719 104.328125 47.410156 C 104.730469 47.808594 105.269531 48.03125 105.835938 48.03125 C 106.398438 48.03125 106.941406 47.808594 107.339844 47.410156 C 107.738281 47.011719 107.964844 46.46875 107.964844 45.90625 Z M 107.964844 45.90625 "/>
<path style="fill-rule:evenodd;fill:rgb(63.998413%,70.399475%,79.998779%);fill-opacity:1;stroke-width:1;stroke-linecap:square;stroke-linejoin:miter;stroke:rgb(0%,0%,0%);stroke-opacity:0.7;stroke-miterlimit:3.25;" d="M 117.625 148.84375 C 117.625 148.277344 117.398438 147.738281 117 147.335938 C 116.601563 146.9375 116.058594 146.714844 115.496094 146.714844 C 114.929688 146.714844 114.386719 146.9375 113.988281 147.335938 C 113.589844 147.738281 113.367188 148.277344 113.367188 148.84375 C 113.367188 149.40625 113.589844 149.949219 113.988281 150.347656 C 114.386719 150.746094 114.929688 150.972656 115.496094 150.972656 C 116.058594 150.972656 116.601563 150.746094 117 150.347656 C 117.398438 149.949219 117.625 149.40625 117.625 148.84375 Z M 117.625 148.84375 "/>
<path style="fill-rule:evenodd;fill:rgb(63.998413%,70.399475%,79.998779%);fill-opacity:1;stroke-width:1;stroke-linecap:square;stroke-linejoin:miter;stroke:rgb(0%,0%,0%);stroke-opacity:0.7;stroke-miterlimit:3.25;" d="M 196.101563 73.757813 C 196.101563 73.195313 195.878906 72.652344 195.480469 72.253906 C 195.078125 71.855469 194.539063 71.628906 193.972656 71.628906 C 193.410156 71.628906 192.867188 71.855469 192.46875 72.253906 C 192.070313 72.652344 191.84375 73.195313 191.84375 73.757813 C 191.84375 74.324219 192.070313 74.863281 192.46875 75.261719 C 192.867188 75.664063 193.410156 75.886719 193.972656 75.886719 C 194.539063 75.886719 195.078125 75.664063 195.480469 75.261719 C 195.878906 74.863281 196.101563 74.324219 196.101563 73.757813 Z M 196.101563 73.757813 "/>
<path style="fill-rule:evenodd;fill:rgb(63.998413%,70.399475%,79.998779%);fill-opacity:1;stroke-width:1;stroke-linecap:square;stroke-linejoin:miter;stroke:rgb(0%,0%,0%);stroke-opacity:0.7;stroke-miterlimit:3.25;" d="M 194.304688 137.054688 C 194.304688 136.492188 194.082031 135.949219 193.683594 135.550781 C 193.28125 135.152344 192.742188 134.925781 192.175781 134.925781 C 191.613281 134.925781 191.070313 135.152344 190.671875 135.550781 C 190.273438 135.949219 190.046875 136.492188 190.046875 137.054688 C 190.046875 137.621094 190.273438 138.160156 190.671875 138.558594 C 191.070313 138.960938 191.613281 139.183594 192.175781 139.183594 C 192.742188 139.183594 193.28125 138.960938 193.683594 138.558594 C 194.082031 138.160156 194.304688 137.621094 194.304688 137.054688 Z M 194.304688 137.054688 "/>
<path style="fill-rule:evenodd;fill:rgb(63.998413%,70.399475%,79.998779%);fill-opacity:1;stroke-width:1;stroke-linecap:square;stroke-linejoin:miter;stroke:rgb(0%,0%,0%);stroke-opacity:0.7;stroke-miterlimit:3.25;" d="M 150.070313 61.289063 C 150.070313 60.722656 149.84375 60.183594 149.445313 59.785156 C 149.046875 59.382813 148.503906 59.160156 147.941406 59.160156 C 147.375 59.160156 146.835938 59.382813 146.4375 59.785156 C 146.035156 60.183594 145.8125 60.722656 145.8125 61.289063 C 145.8125 61.851563 146.035156 62.394531 146.4375 62.792969 C 146.835938 63.191406 147.375 63.417969 147.941406 63.417969 C 148.503906 63.417969 149.046875 63.191406 149.445313 62.792969 C 149.84375 62.394531 150.070313 61.851563 150.070313 61.289063 Z M 150.070313 61.289063 "/>
<path style="fill-rule:evenodd;fill:rgb(63.998413%,70.399475%,79.998779%);fill-opacity:1;stroke-width:1;stroke-linecap:square;stroke-linejoin:miter;stroke:rgb(0%,0%,0%);stroke-opacity:0.7;stroke-miterlimit:3.25;" d="M 161.15625 89.703125 C 161.15625 89.136719 160.929688 88.59375 160.53125 88.195313 C 160.132813 87.796875 159.589844 87.574219 159.027344 87.574219 C 158.460938 87.574219 157.921875 87.796875 157.519531 88.195313 C 157.121094 88.59375 156.898438 89.136719 156.898438 89.703125 C 156.898438 90.265625 157.121094 90.808594 157.519531 91.207031 C 157.921875 91.605469 158.460938 91.832031 159.027344 91.832031 C 159.589844 91.832031 160.132813 91.605469 160.53125 91.207031 C 160.929688 90.808594 161.15625 90.265625 161.15625 89.703125 Z M 161.15625 89.703125 "/>
<path style="fill-rule:evenodd;fill:rgb(63.998413%,70.399475%,79.998779%);fill-opacity:1;stroke-width:1;stroke-linecap:square;stroke-linejoin:miter;stroke:rgb(0%,0%,0%);stroke-opacity:0.7;stroke-miterlimit:3.25;" d="M 163.265625 60.628906 C 163.265625 60.0625 163.039063 59.523438 162.640625 59.125 C 162.242188 58.722656 161.699219 58.5 161.136719 58.5 C 160.570313 58.5 160.03125 58.722656 159.632813 59.125 C 159.230469 59.523438 159.007813 60.0625 159.007813 60.628906 C 159.007813 61.191406 159.230469 61.734375 159.632813 62.132813 C 160.03125 62.53125 160.570313 62.757813 161.136719 62.757813 C 161.699219 62.757813 162.242188 62.53125 162.640625 62.132813 C 163.039063 61.734375 163.265625 61.191406 163.265625 60.628906 Z M 163.265625 60.628906 "/>
<path style="fill-rule:evenodd;fill:rgb(63.998413%,70.399475%,79.998779%);fill-opacity:1;stroke-width:1;stroke-linecap:square;stroke-linejoin:miter;stroke:rgb(0%,0%,0%);stroke-opacity:0.7;stroke-miterlimit:3.25;" d="M 159.570313 111.085938 C 159.570313 110.523438 159.34375 109.980469 158.945313 109.582031 C 158.546875 109.183594 158.003906 108.957031 157.441406 108.957031 C 156.875 108.957031 156.335938 109.183594 155.9375 109.582031 C 155.535156 109.980469 155.3125 110.523438 155.3125 111.085938 C 155.3125 111.652344 155.535156 112.191406 155.9375 112.589844 C 156.335938 112.992188 156.875 113.214844 157.441406 113.214844 C 158.003906 113.214844 158.546875 112.992188 158.945313 112.589844 C 159.34375 112.191406 159.570313 111.652344 159.570313 111.085938 Z M 159.570313 111.085938 "/>
<path style="fill-rule:evenodd;fill:rgb(63.998413%,70.399475%,79.998779%);fill-opacity:1;stroke-width:1;stroke-linecap:square;stroke-linejoin:miter;stroke:rgb(0%,0%,0%);stroke-opacity:0.7;stroke-miterlimit:3.25;" d="M 170.523438 127.15625 C 170.523438 126.59375 170.300781 126.050781 169.902344 125.652344 C 169.503906 125.253906 168.960938 125.027344 168.394531 125.027344 C 167.832031 125.027344 167.289063 125.253906 166.890625 125.652344 C 166.492188 126.050781 166.265625 126.59375 166.265625 127.15625 C 166.265625 127.722656 166.492188 128.261719 166.890625 128.664063 C 167.289063 129.0625 167.832031 129.285156 168.394531 129.285156 C 168.960938 129.285156 169.503906 129.0625 169.902344 128.664063 C 170.300781 128.261719 170.523438 127.722656 170.523438 127.15625 Z M 170.523438 127.15625 "/>
<path style="fill-rule:evenodd;fill:rgb(63.998413%,70.399475%,79.998779%);fill-opacity:1;stroke-width:1;stroke-linecap:square;stroke-linejoin:miter;stroke:rgb(0%,0%,0%);stroke-opacity:0.7;stroke-miterlimit:3.25;" d="M 213.921875 161.054688 C 213.921875 160.492188 213.699219 159.949219 213.300781 159.550781 C 212.902344 159.152344 212.359375 158.925781 211.792969 158.925781 C 211.230469 158.925781 210.6875 159.152344 210.289063 159.550781 C 209.890625 159.949219 209.667969 160.492188 209.667969 161.054688 C 209.667969 161.621094 209.890625 162.160156 210.289063 162.5625 C 210.6875 162.960938 211.230469 163.183594 211.792969 163.183594 C 212.359375 163.183594 212.902344 162.960938 213.300781 162.5625 C 213.699219 162.160156 213.921875 161.621094 213.921875 161.054688 Z M 213.921875 161.054688 "/>
<path style="fill-rule:evenodd;fill:rgb(63.998413%,70.399475%,79.998779%);fill-opacity:1;stroke-width:1;stroke-linecap:square;stroke-linejoin:miter;stroke:rgb(0%,0%,0%);stroke-opacity:0.7;stroke-miterlimit:3.25;" d="M 53.222656 83.761719 C 53.222656 83.195313 53 82.65625 52.601563 82.253906 C 52.203125 81.855469 51.660156 81.632813 51.09375 81.632813 C 50.53125 81.632813 49.988281 81.855469 49.589844 82.253906 C 49.191406 82.65625 48.964844 83.195313 48.964844 83.761719 C 48.964844 84.324219 49.191406 84.867188 49.589844 85.265625 C 49.988281 85.664063 50.53125 85.890625 51.09375 85.890625 C 51.660156 85.890625 52.203125 85.664063 52.601563 85.265625 C 53 84.867188 53.222656 84.324219 53.222656 83.761719 Z M 53.222656 83.761719 "/>
<path style="fill-rule:evenodd;fill:rgb(63.998413%,70.399475%,79.998779%);fill-opacity:1;stroke-width:1;stroke-linecap:square;stroke-linejoin:miter;stroke:rgb(0%,0%,0%);stroke-opacity:0.7;stroke-miterlimit:3.25;" d="M 127.257813 185.175781 C 127.257813 184.613281 127.03125 184.070313 126.632813 183.671875 C 126.234375 183.273438 125.691406 183.046875 125.128906 183.046875 C 124.5625 183.046875 124.019531 183.273438 123.621094 183.671875 C 123.222656 184.070313 123 184.613281 123 185.175781 C 123 185.742188 123.222656 186.28125 123.621094 186.679688 C 124.019531 187.082031 124.5625 187.304688 125.128906 187.304688 C 125.691406 187.304688 126.234375 187.082031 126.632813 186.679688 C 127.03125 186.28125 127.257813 185.742188 127.257813 185.175781 Z M 127.257813 185.175781 "/>
<path style="fill-rule:evenodd;fill:rgb(63.998413%,70.399475%,79.998779%);fill-opacity:1;stroke-width:1;stroke-linecap:square;stroke-linejoin:miter;stroke:rgb(0%,0%,0%);stroke-opacity:0.7;stroke-miterlimit:3.25;" d="M 63.617188 58.445313 C 63.617188 57.878906 63.390625 57.339844 62.992188 56.941406 C 62.59375 56.539063 62.050781 56.316406 61.488281 56.316406 C 60.921875 56.316406 60.382813 56.539063 59.984375 56.941406 C 59.582031 57.339844 59.359375 57.878906 59.359375 58.445313 C 59.359375 59.011719 59.582031 59.550781 59.984375 59.949219 C 60.382813 60.351563 60.921875 60.574219 61.488281 60.574219 C 62.050781 60.574219 62.59375 60.351563 62.992188 59.949219 C 63.390625 59.550781 63.617188 59.011719 63.617188 58.445313 Z M 63.617188 58.445313 "/>
<path style="fill-rule:evenodd;fill:rgb(63.998413%,70.399475%,79.998779%);fill-opacity:1;stroke-width:1;stroke-linecap:square;stroke-linejoin:miter;stroke:rgb(0%,0%,0%);stroke-opacity:0.7;stroke-miterlimit:3.25;" d="M 120.5 73.132813 C 120.5 72.566406 120.273438 72.027344 119.875 71.628906 C 119.476563 71.226563 118.933594 71.003906 118.371094 71.003906 C 117.804688 71.003906 117.265625 71.226563 116.867188 71.628906 C 116.464844 72.027344 116.242188 72.566406 116.242188 73.132813 C 116.242188 73.695313 116.464844 74.238281 116.867188 74.636719 C 117.265625 75.035156 117.804688 75.261719 118.371094 75.261719 C 118.933594 75.261719 119.476563 75.035156 119.875 74.636719 C 120.273438 74.238281 120.5 73.695313 120.5 73.132813 Z M 120.5 73.132813 "/>
<path style="fill-rule:evenodd;fill:rgb(63.998413%,70.399475%,79.998779%);fill-opacity:1;stroke-width:1;stroke-linecap:square;stroke-linejoin:miter;stroke:rgb(0%,0%,0%);stroke-opacity:0.7;stroke-miterlimit:3.25;" d="M 210.113281 35.859375 C 210.113281 35.292969 209.890625 34.753906 209.492188 34.351563 C 209.089844 33.953125 208.550781 33.730469 207.984375 33.730469 C 207.421875 33.730469 206.878906 33.953125 206.480469 34.351563 C 206.082031 34.753906 205.855469 35.292969 205.855469 35.859375 C 205.855469 36.421875 206.082031 36.964844 206.480469 37.363281 C 206.878906 37.761719 207.421875 37.988281 207.984375 37.988281 C 208.550781 37.988281 209.089844 37.761719 209.492188 37.363281 C 209.890625 36.964844 210.113281 36.421875 210.113281 35.859375 Z M 210.113281 35.859375 "/>
<path style="fill-rule:evenodd;fill:rgb(63.998413%,70.399475%,79.998779%);fill-opacity:1;stroke-width:1;stroke-linecap:square;stroke-linejoin:miter;stroke:rgb(0%,0%,0%);stroke-opacity:0.7;stroke-miterlimit:3.25;" d="M 236.980469 179.40625 C 236.980469 178.839844 236.753906 178.296875 236.355469 177.898438 C 235.957031 177.5 235.414063 177.277344 234.851563 177.277344 C 234.285156 177.277344 233.746094 177.5 233.347656 177.898438 C 232.945313 178.296875 232.722656 178.839844 232.722656 179.40625 C 232.722656 179.96875 232.945313 180.511719 233.347656 180.910156 C 233.746094 181.308594 234.285156 181.535156 234.851563 181.535156 C 235.414063 181.535156 235.957031 181.308594 236.355469 180.910156 C 236.753906 180.511719 236.980469 179.96875 236.980469 179.40625 Z M 236.980469 179.40625 "/>
<path style="fill-rule:evenodd;fill:rgb(63.998413%,70.399475%,79.998779%);fill-opacity:1;stroke-width:1;stroke-linecap:square;stroke-linejoin:miter;stroke:rgb(0%,0%,0%);stroke-opacity:0.7;stroke-miterlimit:3.25;" d="M 199.355469 154.425781 C 199.355469 153.863281 199.132813 153.320313 198.730469 152.921875 C 198.332031 152.523438 197.792969 152.296875 197.226563 152.296875 C 196.664063 152.296875 196.121094 152.523438 195.722656 152.921875 C 195.324219 153.320313 195.097656 153.863281 195.097656 154.425781 C 195.097656 154.992188 195.324219 155.53125 195.722656 155.929688 C 196.121094 156.332031 196.664063 156.554688 197.226563 156.554688 C 197.792969 156.554688 198.332031 156.332031 198.730469 155.929688 C 199.132813 155.53125 199.355469 154.992188 199.355469 154.425781 Z M 199.355469 154.425781 "/>
<path style="fill-rule:evenodd;fill:rgb(63.998413%,70.399475%,79.998779%);fill-opacity:1;stroke-width:1;stroke-linecap:square;stroke-linejoin:miter;stroke:rgb(0%,0%,0%);stroke-opacity:0.7;stroke-miterlimit:3.25;" d="M 118.484375 101.484375 C 118.484375 100.917969 118.257813 100.375 117.859375 99.976563 C 117.460938 99.578125 116.917969 99.355469 116.355469 99.355469 C 115.789063 99.355469 115.246094 99.578125 114.847656 99.976563 C 114.449219 100.375 114.226563 100.917969 114.226563 101.484375 C 114.226563 102.046875 114.449219 102.589844 114.847656 102.988281 C 115.246094 103.386719 115.789063 103.609375 116.355469 103.609375 C 116.917969 103.609375 117.460938 103.386719 117.859375 102.988281 C 118.257813 102.589844 118.484375 102.046875 118.484375 101.484375 Z M 118.484375 101.484375 "/>
<path style="fill-rule:evenodd;fill:rgb(63.998413%,70.399475%,79.998779%);fill-opacity:1;stroke-width:1;stroke-linecap:square;stroke-linejoin:miter;stroke:rgb(0%,0%,0%);stroke-opacity:0.7;stroke-miterlimit:3.25;" d="M 143.898438 128.746094 C 143.898438 128.179688 143.671875 127.640625 143.273438 127.238281 C 142.875 126.839844 142.332031 126.617188 141.769531 126.617188 C 141.203125 126.617188 140.660156 126.839844 140.261719 127.238281 C 139.863281 127.640625 139.640625 128.179688 139.640625 128.746094 C 139.640625 129.308594 139.863281 129.851563 140.261719 130.25 C 140.660156 130.648438 141.203125 130.875 141.769531 130.875 C 142.332031 130.875 142.875 130.648438 143.273438 130.25 C 143.671875 129.851563 143.898438 129.308594 143.898438 128.746094 Z M 143.898438 128.746094 "/>
<path style="fill-rule:evenodd;fill:rgb(63.998413%,70.399475%,79.998779%);fill-opacity:1;stroke-width:1;stroke-linecap:square;stroke-linejoin:miter;stroke:rgb(0%,0%,0%);stroke-opacity:0.7;stroke-miterlimit:3.25;" d="M 196.457031 163.714844 C 196.457031 163.148438 196.234375 162.609375 195.835938 162.210938 C 195.4375 161.808594 194.894531 161.585938 194.328125 161.585938 C 193.765625 161.585938 193.222656 161.808594 192.824219 162.210938 C 192.425781 162.609375 192.203125 163.148438 192.203125 163.714844 C 192.203125 164.277344 192.425781 164.820313 192.824219 165.21875 C 193.222656 165.617188 193.765625 165.84375 194.328125 165.84375 C 194.894531 165.84375 195.4375 165.617188 195.835938 165.21875 C 196.234375 164.820313 196.457031 164.277344 196.457031 163.714844 Z M 196.457031 163.714844 "/>
<path style="fill-rule:evenodd;fill:rgb(63.998413%,70.399475%,79.998779%);fill-opacity:1;stroke-width:1;stroke-linecap:square;stroke-linejoin:miter;stroke:rgb(0%,0%,0%);stroke-opacity:0.7;stroke-miterlimit:3.25;" d="M 211.925781 53.734375 C 211.925781 53.171875 211.703125 52.628906 211.304688 52.230469 C 210.902344 51.832031 210.363281 51.605469 209.796875 51.605469 C 209.234375 51.605469 208.691406 51.832031 208.292969 52.230469 C 207.894531 52.628906 207.667969 53.171875 207.667969 53.734375 C 207.667969 54.300781 207.894531 54.84375 208.292969 55.242188 C 208.691406 55.640625 209.234375 55.863281 209.796875 55.863281 C 210.363281 55.863281 210.902344 55.640625 211.304688 55.242188 C 211.703125 54.84375 211.925781 54.300781 211.925781 53.734375 Z M 211.925781 53.734375 "/>
<path style="fill-rule:evenodd;fill:rgb(63.998413%,70.399475%,79.998779%);fill-opacity:1;stroke-width:1;stroke-linecap:square;stroke-linejoin:miter;stroke:rgb(0%,0%,0%);stroke-opacity:0.7;stroke-miterlimit:3.25;" d="M 156.195313 123.546875 C 156.195313 122.984375 155.96875 122.441406 155.570313 122.042969 C 155.171875 121.644531 154.628906 121.417969 154.066406 121.417969 C 153.5 121.417969 152.957031 121.644531 152.558594 122.042969 C 152.160156 122.441406 151.9375 122.984375 151.9375 123.546875 C 151.9375 124.113281 152.160156 124.652344 152.558594 125.054688 C 152.957031 125.453125 153.5 125.675781 154.066406 125.675781 C 154.628906 125.675781 155.171875 125.453125 155.570313 125.054688 C 155.96875 124.652344 156.195313 124.113281 156.195313 123.546875 Z M 156.195313 123.546875 "/>
<path style="fill-rule:evenodd;fill:rgb(63.998413%,70.399475%,79.998779%);fill-opacity:1;stroke-width:1;stroke-linecap:square;stroke-linejoin:miter;stroke:rgb(0%,0%,0%);stroke-opacity:0.7;stroke-miterlimit:3.25;" d="M 351.820313 99.820313 C 351.820313 99.257813 351.597656 98.714844 351.195313 98.316406 C 350.796875 97.917969 350.257813 97.691406 349.691406 97.691406 C 349.125 97.691406 348.585938 97.917969 348.1875 98.316406 C 347.785156 98.714844 347.5625 99.257813 347.5625 99.820313 C 347.5625 100.386719 347.785156 100.925781 348.1875 101.324219 C 348.585938 101.726563 349.125 101.949219 349.691406 101.949219 C 350.257813 101.949219 350.796875 101.726563 351.195313 101.324219 C 351.597656 100.925781 351.820313 100.386719 351.820313 99.820313 Z M 351.820313 99.820313 "/>
<path style="fill-rule:evenodd;fill:rgb(63.998413%,70.399475%,79.998779%);fill-opacity:1;stroke-width:1;stroke-linecap:square;stroke-linejoin:miter;stroke:rgb(0%,0%,0%);stroke-opacity:0.7;stroke-miterlimit:3.25;" d="M 222.964844 121.429688 C 222.964844 120.863281 222.742188 120.324219 222.34375 119.925781 C 221.945313 119.523438 221.402344 119.300781 220.835938 119.300781 C 220.273438 119.300781 219.730469 119.523438 219.332031 119.925781 C 218.933594 120.324219 218.710938 120.863281 218.710938 121.429688 C 218.710938 121.992188 218.933594 122.535156 219.332031 122.933594 C 219.730469 123.332031 220.273438 123.558594 220.835938 123.558594 C 221.402344 123.558594 221.945313 123.332031 222.34375 122.933594 C 222.742188 122.535156 222.964844 121.992188 222.964844 121.429688 Z M 222.964844 121.429688 "/>
<path style="fill-rule:evenodd;fill:rgb(63.998413%,70.399475%,79.998779%);fill-opacity:1;stroke-width:1;stroke-linecap:square;stroke-linejoin:miter;stroke:rgb(0%,0%,0%);stroke-opacity:0.7;stroke-miterlimit:3.25;" d="M 270.511719 100.371094 C 270.511719 99.804688 270.285156 99.261719 269.886719 98.863281 C 269.488281 98.464844 268.945313 98.242188 268.382813 98.242188 C 267.816406 98.242188 267.277344 98.464844 266.875 98.863281 C 266.476563 99.261719 266.253906 99.804688 266.253906 100.371094 C 266.253906 100.933594 266.476563 101.476563 266.875 101.875 C 267.277344 102.273438 267.816406 102.5 268.382813 102.5 C 268.945313 102.5 269.488281 102.273438 269.886719 101.875 C 270.285156 101.476563 270.511719 100.933594 270.511719 100.371094 Z M 270.511719 100.371094 "/>
<path style="fill-rule:evenodd;fill:rgb(69.999695%,0%,0%);fill-opacity:1;stroke-width:1;stroke-linecap:square;stroke-linejoin:miter;stroke:rgb(69.999695%,0%,0%);stroke-opacity:1;stroke-miterlimit:3.25;" d="M 223.347656 227.855469 C 223.347656 227.289063 223.121094 226.75 222.722656 226.347656 C 222.324219 225.949219 221.78125 225.726563 221.21875 225.726563 C 220.652344 225.726563 220.113281 225.949219 219.710938 226.347656 C 219.3125 226.75 219.089844 227.289063 219.089844 227.855469 C 219.089844 228.417969 219.3125 228.960938 219.710938 229.359375 C 220.113281 229.757813 220.652344 229.984375 221.21875 229.984375 C 221.78125 229.984375 222.324219 229.757813 222.722656 229.359375 C 223.121094 228.960938 223.347656 228.417969 223.347656 227.855469 Z M 223.347656 227.855469 "/>
<path style="fill-rule:evenodd;fill:rgb(63.998413%,70.399475%,79.998779%);fill-opacity:1;stroke-width:1;stroke-linecap:square;stroke-linejoin:miter;stroke:rgb(0%,0%,0%);stroke-opacity:0.7;stroke-miterlimit:3.25;" d="M 220.285156 9.023438 C 220.285156 8.457031 220.058594 7.914063 219.660156 7.515625 C 219.261719 7.117188 218.71875 6.894531 218.15625 6.894531 C 217.589844 6.894531 217.046875 7.117188 216.648438 7.515625 C 216.25 7.914063 216.027344 8.457031 216.027344 9.023438 C 216.027344 9.585938 216.25 10.128906 216.648438 10.527344 C 217.046875 10.925781 217.589844 11.148438 218.15625 11.148438 C 218.71875 11.148438 219.261719 10.925781 219.660156 10.527344 C 220.058594 10.128906 220.285156 9.585938 220.285156 9.023438 Z M 220.285156 9.023438 "/>
<path style="fill-rule:evenodd;fill:rgb(63.998413%,70.399475%,79.998779%);fill-opacity:1;stroke-width:1;stroke-linecap:square;stroke-linejoin:miter;stroke:rgb(0%,0%,0%);stroke-opacity:0.7;stroke-miterlimit:3.25;" d="M 242.511719 77.28125 C 242.511719 76.71875 242.289063 76.175781 241.890625 75.777344 C 241.492188 75.378906 240.949219 75.152344 240.382813 75.152344 C 239.820313 75.152344 239.277344 75.378906 238.878906 75.777344 C 238.480469 76.175781 238.253906 76.71875 238.253906 77.28125 C 238.253906 77.847656 238.480469 78.386719 238.878906 78.789063 C 239.277344 79.1875 239.820313 79.410156 240.382813 79.410156 C 240.949219 79.410156 241.492188 79.1875 241.890625 78.789063 C 242.289063 78.386719 242.511719 77.847656 242.511719 77.28125 Z M 242.511719 77.28125 "/>
<path style="fill-rule:evenodd;fill:rgb(63.998413%,70.399475%,79.998779%);fill-opacity:1;stroke-width:1;stroke-linecap:square;stroke-linejoin:miter;stroke:rgb(0%,0%,0%);stroke-opacity:0.7;stroke-miterlimit:3.25;" d="M 137.347656 155.269531 C 137.347656 154.703125 137.125 154.164063 136.726563 153.765625 C 136.328125 153.363281 135.785156 153.140625 135.222656 153.140625 C 134.65625 153.140625 134.113281 153.363281 133.714844 153.765625 C 133.316406 154.164063 133.09375 154.703125 133.09375 155.269531 C 133.09375 155.832031 133.316406 156.375 133.714844 156.773438 C 134.113281 157.171875 134.65625 157.398438 135.222656 157.398438 C 135.785156 157.398438 136.328125 157.171875 136.726563 156.773438 C 137.125 156.375 137.347656 155.832031 137.347656 155.269531 Z M 137.347656 155.269531 "/>
<path style="fill-rule:evenodd;fill:rgb(63.998413%,70.399475%,79.998779%);fill-opacity:1;stroke-width:1;stroke-linecap:square;stroke-linejoin:miter;stroke:rgb(0%,0%,0%);stroke-opacity:0.7;stroke-miterlimit:3.25;" d="M 57.582031 66.363281 C 57.582031 65.796875 57.359375 65.257813 56.957031 64.859375 C 56.558594 64.457031 56.019531 64.234375 55.453125 64.234375 C 54.886719 64.234375 54.347656 64.457031 53.949219 64.859375 C 53.546875 65.257813 53.324219 65.796875 53.324219 66.363281 C 53.324219 66.925781 53.546875 67.46875 53.949219 67.867188 C 54.347656 68.265625 54.886719 68.492188 55.453125 68.492188 C 56.019531 68.492188 56.558594 68.265625 56.957031 67.867188 C 57.359375 67.46875 57.582031 66.925781 57.582031 66.363281 Z M 57.582031 66.363281 "/>
<path style="fill-rule:evenodd;fill:rgb(63.998413%,70.399475%,79.998779%);fill-opacity:1;stroke-width:1;stroke-linecap:square;stroke-linejoin:miter;stroke:rgb(0%,0%,0%);stroke-opacity:0.7;stroke-miterlimit:3.25;" d="M 323.925781 95.871094 C 323.925781 95.308594 323.703125 94.765625 323.300781 94.367188 C 322.902344 93.96875 322.363281 93.742188 321.796875 93.742188 C 321.234375 93.742188 320.691406 93.96875 320.292969 94.367188 C 319.894531 94.765625 319.667969 95.308594 319.667969 95.871094 C 319.667969 96.4375 319.894531 96.976563 320.292969 97.378906 C 320.691406 97.777344 321.234375 98 321.796875 98 C 322.363281 98 322.902344 97.777344 323.300781 97.378906 C 323.703125 96.976563 323.925781 96.4375 323.925781 95.871094 Z M 323.925781 95.871094 "/>
<path style="fill-rule:evenodd;fill:rgb(63.998413%,70.399475%,79.998779%);fill-opacity:1;stroke-width:1;stroke-linecap:square;stroke-linejoin:miter;stroke:rgb(0%,0%,0%);stroke-opacity:0.7;stroke-miterlimit:3.25;" d="M 154.417969 106.222656 C 154.417969 105.660156 154.195313 105.117188 153.796875 104.71875 C 153.394531 104.320313 152.855469 104.097656 152.289063 104.097656 C 151.726563 104.097656 151.183594 104.320313 150.785156 104.71875 C 150.386719 105.117188 150.160156 105.660156 150.160156 106.222656 C 150.160156 106.789063 150.386719 107.332031 150.785156 107.730469 C 151.183594 108.128906 151.726563 108.351563 152.289063 108.351563 C 152.855469 108.351563 153.394531 108.128906 153.796875 107.730469 C 154.195313 107.332031 154.417969 106.789063 154.417969 106.222656 Z M 154.417969 106.222656 "/>
<path style="fill-rule:evenodd;fill:rgb(63.998413%,70.399475%,79.998779%);fill-opacity:1;stroke-width:1;stroke-linecap:square;stroke-linejoin:miter;stroke:rgb(0%,0%,0%);stroke-opacity:0.7;stroke-miterlimit:3.25;" d="M 45.460938 164.882813 C 45.460938 164.320313 45.238281 163.777344 44.835938 163.378906 C 44.4375 162.980469 43.898438 162.753906 43.332031 162.753906 C 42.769531 162.753906 42.226563 162.980469 41.828125 163.378906 C 41.429688 163.777344 41.203125 164.320313 41.203125 164.882813 C 41.203125 165.449219 41.429688 165.988281 41.828125 166.390625 C 42.226563 166.789063 42.769531 167.011719 43.332031 167.011719 C 43.898438 167.011719 44.4375 166.789063 44.835938 166.390625 C 45.238281 165.988281 45.460938 165.449219 45.460938 164.882813 Z M 45.460938 164.882813 "/>
<path style="fill-rule:evenodd;fill:rgb(63.998413%,70.399475%,79.998779%);fill-opacity:1;stroke-width:1;stroke-linecap:square;stroke-linejoin:miter;stroke:rgb(0%,0%,0%);stroke-opacity:0.7;stroke-miterlimit:3.25;" d="M 96.917969 172.078125 C 96.917969 171.511719 96.691406 170.972656 96.292969 170.570313 C 95.894531 170.171875 95.351563 169.949219 94.789063 169.949219 C 94.222656 169.949219 93.683594 170.171875 93.28125 170.570313 C 92.882813 170.972656 92.660156 171.511719 92.660156 172.078125 C 92.660156 172.640625 92.882813 173.183594 93.28125 173.582031 C 93.683594 173.980469 94.222656 174.207031 94.789063 174.207031 C 95.351563 174.207031 95.894531 173.980469 96.292969 173.582031 C 96.691406 173.183594 96.917969 172.640625 96.917969 172.078125 Z M 96.917969 172.078125 "/>
<path style="fill-rule:evenodd;fill:rgb(63.998413%,70.399475%,79.998779%);fill-opacity:1;stroke-width:1;stroke-linecap:square;stroke-linejoin:miter;stroke:rgb(0%,0%,0%);stroke-opacity:0.7;stroke-miterlimit:3.25;" d="M 175.867188 134.117188 C 175.867188 133.550781 175.640625 133.011719 175.242188 132.609375 C 174.84375 132.210938 174.300781 131.988281 173.738281 131.988281 C 173.171875 131.988281 172.632813 132.210938 172.234375 132.609375 C 171.832031 133.011719 171.609375 133.550781 171.609375 134.117188 C 171.609375 134.679688 171.832031 135.222656 172.234375 135.621094 C 172.632813 136.019531 173.171875 136.246094 173.738281 136.246094 C 174.300781 136.246094 174.84375 136.019531 175.242188 135.621094 C 175.640625 135.222656 175.867188 134.679688 175.867188 134.117188 Z M 175.867188 134.117188 "/>
<path style="fill-rule:evenodd;fill:rgb(63.998413%,70.399475%,79.998779%);fill-opacity:1;stroke-width:1;stroke-linecap:square;stroke-linejoin:miter;stroke:rgb(0%,0%,0%);stroke-opacity:0.7;stroke-miterlimit:3.25;" d="M 211.929688 201.320313 C 211.929688 200.753906 211.703125 200.214844 211.304688 199.816406 C 210.90625 199.414063 210.363281 199.191406 209.800781 199.191406 C 209.234375 199.191406 208.695313 199.414063 208.292969 199.816406 C 207.894531 200.214844 207.671875 200.753906 207.671875 201.320313 C 207.671875 201.882813 207.894531 202.425781 208.292969 202.824219 C 208.695313 203.222656 209.234375 203.449219 209.800781 203.449219 C 210.363281 203.449219 210.90625 203.222656 211.304688 202.824219 C 211.703125 202.425781 211.929688 201.882813 211.929688 201.320313 Z M 211.929688 201.320313 "/>
<path style="fill-rule:evenodd;fill:rgb(63.998413%,70.399475%,79.998779%);fill-opacity:1;stroke-width:1;stroke-linecap:square;stroke-linejoin:miter;stroke:rgb(0%,0%,0%);stroke-opacity:0.7;stroke-miterlimit:3.25;" d="M 264.574219 61.335938 C 264.574219 60.773438 264.347656 60.230469 263.949219 59.832031 C 263.550781 59.433594 263.007813 59.207031 262.445313 59.207031 C 261.878906 59.207031 261.339844 59.433594 260.9375 59.832031 C 260.539063 60.230469 260.316406 60.773438 260.316406 61.335938 C 260.316406 61.902344 260.539063 62.441406 260.9375 62.84375 C 261.339844 63.242188 261.878906 63.464844 262.445313 63.464844 C 263.007813 63.464844 263.550781 63.242188 263.949219 62.84375 C 264.347656 62.441406 264.574219 61.902344 264.574219 61.335938 Z M 264.574219 61.335938 "/>
<path style="fill-rule:evenodd;fill:rgb(63.998413%,70.399475%,79.998779%);fill-opacity:1;stroke-width:1;stroke-linecap:square;stroke-linejoin:miter;stroke:rgb(0%,0%,0%);stroke-opacity:0.7;stroke-miterlimit:3.25;" d="M 129.339844 99.980469 C 129.339844 99.417969 129.117188 98.875 128.71875 98.476563 C 128.316406 98.078125 127.777344 97.851563 127.210938 97.851563 C 126.648438 97.851563 126.105469 98.078125 125.707031 98.476563 C 125.308594 98.875 125.082031 99.417969 125.082031 99.980469 C 125.082031 100.546875 125.308594 101.089844 125.707031 101.488281 C 126.105469 101.886719 126.648438 102.109375 127.210938 102.109375 C 127.777344 102.109375 128.316406 101.886719 128.71875 101.488281 C 129.117188 101.089844 129.339844 100.546875 129.339844 99.980469 Z M 129.339844 99.980469 "/>
<path style="fill-rule:evenodd;fill:rgb(63.998413%,70.399475%,79.998779%);fill-opacity:1;stroke-width:1;stroke-linecap:square;stroke-linejoin:miter;stroke:rgb(0%,0%,0%);stroke-opacity:0.7;stroke-miterlimit:3.25;" d="M 350.730469 87.578125 C 350.730469 87.015625 350.507813 86.472656 350.109375 86.074219 C 349.707031 85.675781 349.167969 85.453125 348.601563 85.453125 C 348.039063 85.453125 347.496094 85.675781 347.097656 86.074219 C 346.699219 86.472656 346.472656 87.015625 346.472656 87.578125 C 346.472656 88.144531 346.699219 88.6875 347.097656 89.085938 C 347.496094 89.484375 348.039063 89.707031 348.601563 89.707031 C 349.167969 89.707031 349.707031 89.484375 350.109375 89.085938 C 350.507813 88.6875 350.730469 88.144531 350.730469 87.578125 Z M 350.730469 87.578125 "/>
<path style="fill-rule:evenodd;fill:rgb(63.998413%,70.399475%,79.998779%);fill-opacity:1;stroke-width:1;stroke-linecap:square;stroke-linejoin:miter;stroke:rgb(0%,0%,0%);stroke-opacity:0.7;stroke-miterlimit:3.25;" d="M 157.347656 154.597656 C 157.347656 154.03125 157.121094 153.492188 156.722656 153.089844 C 156.324219 152.691406 155.78125 152.46875 155.21875 152.46875 C 154.652344 152.46875 154.113281 152.691406 153.714844 153.089844 C 153.3125 153.492188 153.089844 154.03125 153.089844 154.597656 C 153.089844 155.160156 153.3125 155.703125 153.714844 156.101563 C 154.113281 156.5 154.652344 156.726563 155.21875 156.726563 C 155.78125 156.726563 156.324219 156.5 156.722656 156.101563 C 157.121094 155.703125 157.347656 155.160156 157.347656 154.597656 Z M 157.347656 154.597656 "/>
<path style="fill-rule:evenodd;fill:rgb(63.998413%,70.399475%,79.998779%);fill-opacity:1;stroke-width:1;stroke-linecap:square;stroke-linejoin:miter;stroke:rgb(0%,0%,0%);stroke-opacity:0.7;stroke-miterlimit:3.25;" d="M 11.4375 64.65625 C 11.4375 64.089844 11.214844 63.550781 10.8125 63.152344 C 10.414063 62.75 9.875 62.527344 9.308594 62.527344 C 8.742188 62.527344 8.203125 62.75 7.804688 63.152344 C 7.402344 63.550781 7.179688 64.089844 7.179688 64.65625 C 7.179688 65.21875 7.402344 65.761719 7.804688 66.160156 C 8.203125 66.558594 8.742188 66.785156 9.308594 66.785156 C 9.875 66.785156 10.414063 66.558594 10.8125 66.160156 C 11.214844 65.761719 11.4375 65.21875 11.4375 64.65625 Z M 11.4375 64.65625 "/>
<path style="fill-rule:evenodd;fill:rgb(63.998413%,70.399475%,79.998779%);fill-opacity:1;stroke-width:1;stroke-linecap:square;stroke-linejoin:miter;stroke:rgb(0%,0%,0%);stroke-opacity:0.7;stroke-miterlimit:3.25;" d="M 138.074219 129.238281 C 138.074219 128.671875 137.847656 128.132813 137.449219 127.734375 C 137.050781 127.332031 136.507813 127.109375 135.945313 127.109375 C 135.378906 127.109375 134.839844 127.332031 134.4375 127.734375 C 134.039063 128.132813 133.816406 128.671875 133.816406 129.238281 C 133.816406 129.800781 134.039063 130.34375 134.4375 130.742188 C 134.839844 131.140625 135.378906 131.367188 135.945313 131.367188 C 136.507813 131.367188 137.050781 131.140625 137.449219 130.742188 C 137.847656 130.34375 138.074219 129.800781 138.074219 129.238281 Z M 138.074219 129.238281 "/>
<path style="fill-rule:evenodd;fill:rgb(63.998413%,70.399475%,79.998779%);fill-opacity:1;stroke-width:1;stroke-linecap:square;stroke-linejoin:miter;stroke:rgb(0%,0%,0%);stroke-opacity:0.7;stroke-miterlimit:3.25;" d="M 140.832031 97.242188 C 140.832031 96.679688 140.605469 96.136719 140.207031 95.738281 C 139.808594 95.339844 139.265625 95.113281 138.703125 95.113281 C 138.136719 95.113281 137.597656 95.339844 137.195313 95.738281 C 136.796875 96.136719 136.574219 96.679688 136.574219 97.242188 C 136.574219 97.808594 136.796875 98.347656 137.195313 98.75 C 137.597656 99.148438 138.136719 99.371094 138.703125 99.371094 C 139.265625 99.371094 139.808594 99.148438 140.207031 98.75 C 140.605469 98.347656 140.832031 97.808594 140.832031 97.242188 Z M 140.832031 97.242188 "/>
<path style="fill-rule:evenodd;fill:rgb(63.998413%,70.399475%,79.998779%);fill-opacity:1;stroke-width:1;stroke-linecap:square;stroke-linejoin:miter;stroke:rgb(0%,0%,0%);stroke-opacity:0.7;stroke-miterlimit:3.25;" d="M 39.6875 71.199219 C 39.6875 70.632813 39.460938 70.089844 39.0625 69.691406 C 38.664063 69.292969 38.121094 69.070313 37.558594 69.070313 C 36.992188 69.070313 36.453125 69.292969 36.050781 69.691406 C 35.652344 70.089844 35.429688 70.632813 35.429688 71.199219 C 35.429688 71.761719 35.652344 72.304688 36.050781 72.703125 C 36.453125 73.101563 36.992188 73.328125 37.558594 73.328125 C 38.121094 73.328125 38.664063 73.101563 39.0625 72.703125 C 39.460938 72.304688 39.6875 71.761719 39.6875 71.199219 Z M 39.6875 71.199219 "/>
<path style="fill-rule:evenodd;fill:rgb(63.998413%,70.399475%,79.998779%);fill-opacity:1;stroke-width:1;stroke-linecap:square;stroke-linejoin:miter;stroke:rgb(0%,0%,0%);stroke-opacity:0.7;stroke-miterlimit:3.25;" d="M 80.53125 82.054688 C 80.53125 81.488281 80.308594 80.945313 79.910156 80.546875 C 79.507813 80.148438 78.96875 79.925781 78.402344 79.925781 C 77.839844 79.925781 77.296875 80.148438 76.898438 80.546875 C 76.5 80.945313 76.273438 81.488281 76.273438 82.054688 C 76.273438 82.617188 76.5 83.160156 76.898438 83.558594 C 77.296875 83.957031 77.839844 84.179688 78.402344 84.179688 C 78.96875 84.179688 79.507813 83.957031 79.910156 83.558594 C 80.308594 83.160156 80.53125 82.617188 80.53125 82.054688 Z M 80.53125 82.054688 "/>
<path style="fill-rule:evenodd;fill:rgb(63.998413%,70.399475%,79.998779%);fill-opacity:1;stroke-width:1;stroke-linecap:square;stroke-linejoin:miter;stroke:rgb(0%,0%,0%);stroke-opacity:0.7;stroke-miterlimit:3.25;" d="M 342.289063 77.875 C 342.289063 77.3125 342.066406 76.769531 341.664063 76.371094 C 341.265625 75.96875 340.726563 75.746094 340.160156 75.746094 C 339.597656 75.746094 339.054688 75.96875 338.65625 76.371094 C 338.257813 76.769531 338.03125 77.3125 338.03125 77.875 C 338.03125 78.441406 338.257813 78.980469 338.65625 79.378906 C 339.054688 79.78125 339.597656 80.003906 340.160156 80.003906 C 340.726563 80.003906 341.265625 79.78125 341.664063 79.378906 C 342.066406 78.980469 342.289063 78.441406 342.289063 77.875 Z M 342.289063 77.875 "/>
<path style="fill-rule:evenodd;fill:rgb(63.998413%,70.399475%,79.998779%);fill-opacity:1;stroke-width:1;stroke-linecap:square;stroke-linejoin:miter;stroke:rgb(0%,0%,0%);stroke-opacity:0.7;stroke-miterlimit:3.25;" d="M 147.726563 136.285156 C 147.726563 135.722656 147.503906 135.179688 147.105469 134.78125 C 146.707031 134.382813 146.164063 134.15625 145.597656 134.15625 C 145.035156 134.15625 144.492188 134.382813 144.09375 134.78125 C 143.695313 135.179688 143.472656 135.722656 143.472656 136.285156 C 143.472656 136.851563 143.695313 137.390625 144.09375 137.792969 C 144.492188 138.191406 145.035156 138.414063 145.597656 138.414063 C 146.164063 138.414063 146.707031 138.191406 147.105469 137.792969 C 147.503906 137.390625 147.726563 136.851563 147.726563 136.285156 Z M 147.726563 136.285156 "/>
</g>
</svg>
