<?xml version="1.0" encoding="UTF-8"?>
<svg xmlns="http://www.w3.org/2000/svg" xmlns:xlink="http://www.w3.org/1999/xlink" width="360pt" height="164pt" viewBox="0 0 360 164" version="1.1">
<g id="surface20">
<path style="fill:none;stroke-width:1;stroke-linecap:square;stroke-linejoin:miter;stroke:rgb(84.999084%,84.999084%,84.999084%);stroke-opacity:0.7;stroke-miterlimit:3.25;" d="M 41.253906 101.589844 L 9.796875 83.648438 "/>
<path style="fill:none;stroke-width:1;stroke-linecap:square;stroke-linejoin:miter;stroke:rgb(84.999084%,84.999084%,84.999084%);stroke-opacity:0.7;stroke-miterlimit:3.25;" d="M 41.253906 101.589844 L 93.035156 101.800781 "/>
<path style="fill:none;stroke-width:1;stroke-linecap:square;stroke-linejoin:miter;stroke:rgb(84.999084%,84.999084%,84.999084%);stroke-opacity:0.7;stroke-miterlimit:3.25;" d="M 41.253906 101.589844 L 9.660156 119.332031 "/>
<path style="fill:none;stroke-width:1;stroke-linecap:square;stroke-linejoin:miter;stroke:rgb(84.999084%,84.999084%,84.999084%);stroke-opacity:0.7;stroke-miterlimit:3.25;" d="M 150.027344 102.476563 L 93.035156 101.800781 "/>
<path style="fill:none;stroke-width:1;stroke-linecap:square;stroke-linejoin:miter;stroke:rgb(84.999084%,84.999084%,84.999084%);stroke-opacity:0.7;stroke-miterlimit:3.25;" d="M 150.027344 102.476563 L 169.640625 129.035156 "/>
<path style="fill:none;stroke-width:1;stroke-linecap:square;stroke-linejoin:miter;stroke:rgb(84.999084%,84.999084%,84.999084%);stroke-opacity:0.7;stroke-miterlimit:3.25;" d="M 150.027344 102.476563 L 207.769531 92.976563 "/>
<path style="fill:none;stroke-width:1;stroke-linecap:square;stroke-linejoin:miter;stroke:rgb(84.999084%,84.999084%,84.999084%);stroke-opacity:0.7;stroke-miterlimit:3.25;" d="M 169.640625 129.035156 L 205.148438 131.542969 "/>
<path style="fill:none;stroke-width:1;stroke-linecap:square;stroke-linejoin:miter;stroke:rgb(84.999084%,84.999084%,84.999084%);stroke-opacity:0.7;stroke-miterlimit:3.25;" d="M 207.769531 92.976563 L 213.058594 46.089844 "/>
<path style="fill:none;stroke-width:1;stroke-linecap:square;stroke-linejoin:miter;stroke:rgb(84.999084%,84.999084%,84.999084%);stroke-opacity:0.7;stroke-miterlimit:3.25;" d="M 207.769531 92.976563 L 205.148438 131.542969 "/>
<path style="fill:none;stroke-width:1;stroke-linecap:square;stroke-linejoin:miter;stroke:rgb(84.999084%,84.999084%,84.999084%);stroke-opacity:0.7;stroke-miterlimit:3.25;" d="M 207.769531 92.976563 L 263.714844 104.402344 "/>
<path style="fill:none;stroke-width:1;stroke-linecap:square;stroke-linejoin:miter;stroke:rgb(84.999084%,84.999084%,84.999084%);stroke-opacity:0.7;stroke-miterlimit:3.25;" d="M 312.222656 98.644531 L 349.339844 95.214844 "/>
<path style="fill:none;stroke-width:1;stroke-linecap:square;stroke-linejoin:miter;stroke:rgb(84.999084%,84.999084%,84.999084%);stroke-opacity:0.7;stroke-miterlimit:3.25;" d="M 312.222656 98.644531 L 263.714844 104.402344 "/>
<path style="fill:none;stroke-width:1;stroke-linecap:square;stroke-linejoin:miter;stroke:rgb(84.999084%,84.999084%,84.999084%);stroke-opacity:0.7;stroke-miterlimit:3.25;" d="M 236.582031 154.027344 L 205.148438 131.542969 "/>
<path style="fill:none;stroke-width:1;stroke-linecap:square;stroke-linejoin:miter;stroke:rgb(84.999084%,84.999084%,84.999084%);stroke-opacity:0.7;stroke-miterlimit:3.25;" d="M 236.582031 154.027344 L 265.980469 140.269531 "/>
<path style="fill:none;stroke-width:1;stroke-linecap:square;stroke-linejoin:miter;stroke:rgb(84.999084%,84.999084%,84.999084%);stroke-opacity:0.7;stroke-miterlimit:3.25;" d="M 213.058594 46.089844 L 217.742188 9.375 "/>
<path style="fill:none;stroke-width:1;stroke-linecap:square;stroke-linejoin:miter;stroke:rgb(84.999084%,84.999084%,84.999084%);stroke-opacity:0.7;stroke-miterlimit:3.25;" d="M 263.714844 104.402344 L 265.980469 140.269531 "/>
<path style="fill-rule:evenodd;fill:rgb(63.998413%,70.399475%,79.998779%);fill-opacity:1;stroke-width:1;stroke-linecap:square;stroke-linejoin:miter;stroke:rgb(0%,0%,0%);stroke-opacity:0.7;stroke-miterlimit:3.25;" d="M 43.734375 101.589844 C 43.734375 100.933594 43.472656 100.300781 43.007813 99.835938 C 42.542969 99.371094 41.910156 99.109375 41.253906 99.109375 C 40.59375 99.109375 39.964844 99.371094 39.5 99.835938 C 39.035156 100.300781 38.773438 100.933594 38.773438 101.589844 C 38.773438 102.25 39.035156 102.878906 39.5 103.34375 C 39.964844 103.808594 40.59375 104.070313 41.253906 104.070313 C 41.910156 104.070313 42.542969 103.808594 43.007813 103.34375 C 43.472656 102.878906 43.734375 102.25 43.734375 101.589844 Z M 43.734375 101.589844 "/>
<path style="fill-rule:evenodd;fill:rgb(63.998413%,70.399475%,79.998779%);fill-opacity:1;stroke-width:1;stroke-linecap:square;stroke-linejoin:miter;stroke:rgb(0%,0%,0%);stroke-opacity:0.7;stroke-miterlimit:3.25;" d="M 152.507813 102.476563 C 152.507813 101.820313 152.246094 101.1875 151.78125 100.722656 C 151.316406 100.257813 150.6875 99.996094 150.027344 99.996094 C 149.371094 99.996094 148.738281 100.257813 148.273438 100.722656 C 147.808594 101.1875 147.546875 101.820313 147.546875 102.476563 C 147.546875 103.136719 147.808594 103.765625 148.273438 104.230469 C 148.738281 104.695313 149.371094 104.957031 150.027344 104.957031 C 150.6875 104.957031 151.316406 104.695313 151.78125 104.230469 C 152.246094 103.765625 152.507813 103.136719 152.507813 102.476563 Z M 152.507813 102.476563 "/>
<path style="fill-rule:evenodd;fill:rgb(63.998413%,70.399475%,79.998779%);fill-opacity:1;stroke-width:1;stroke-linecap:square;stroke-linejoin:miter;stroke:rgb(0%,0%,0%);stroke-opacity:0.7;stroke-miterlimit:3.25;" d="M 12.277344 83.648438 C 12.277344 82.988281 12.015625 82.359375 11.550781 81.894531 C 11.085938 81.429688 10.453125 81.167969 9.796875 81.167969 C 9.136719 81.167969 8.507813 81.429688 8.042969 81.894531 C 7.578125 82.359375 7.316406 82.988281 7.316406 83.648438 C 7.316406 84.304688 7.578125 84.9375 8.042969 85.402344 C 8.507813 85.867188 9.136719 86.128906 9.796875 86.128906 C 10.453125 86.128906 11.085938 85.867188 11.550781 85.402344 C 12.015625 84.9375 12.277344 84.304688 12.277344 83.648438 Z M 12.277344 83.648438 "/>
<path style="fill-rule:evenodd;fill:rgb(63.998413%,70.399475%,79.998779%);fill-opacity:1;stroke-width:1;stroke-linecap:square;stroke-linejoin:miter;stroke:rgb(0%,0%,0%);stroke-opacity:0.7;stroke-miterlimit:3.25;" d="M 95.515625 101.800781 C 95.515625 101.140625 95.253906 100.511719 94.789063 100.042969 C 94.324219 99.578125 93.691406 99.316406 93.035156 99.316406 C 92.378906 99.316406 91.746094 99.578125 91.28125 100.042969 C 90.816406 100.511719 90.554688 101.140625 90.554688 101.800781 C 90.554688 102.457031 90.816406 103.085938 91.28125 103.554688 C 91.746094 104.019531 92.378906 104.28125 93.035156 104.28125 C 93.691406 104.28125 94.324219 104.019531 94.789063 103.554688 C 95.253906 103.085938 95.515625 102.457031 95.515625 101.800781 Z M 95.515625 101.800781 "/>
<path style="fill-rule:evenodd;fill:rgb(63.998413%,70.399475%,79.998779%);fill-opacity:1;stroke-width:1;stroke-linecap:square;stroke-linejoin:miter;stroke:rgb(0%,0%,0%);stroke-opacity:0.7;stroke-miterlimit:3.25;" d="M 172.121094 129.035156 C 172.121094 128.375 171.859375 127.746094 171.394531 127.28125 C 170.929688 126.816406 170.300781 126.554688 169.640625 126.554688 C 168.984375 126.554688 168.351563 126.816406 167.886719 127.28125 C 167.421875 127.746094 167.160156 128.375 167.160156 129.035156 C 167.160156 129.691406 167.421875 130.324219 167.886719 130.789063 C 168.351563 131.253906 168.984375 131.515625 169.640625 131.515625 C 170.300781 131.515625 170.929688 131.253906 171.394531 130.789063 C 171.859375 130.324219 172.121094 129.691406 172.121094 129.035156 Z M 172.121094 129.035156 "/>
<path style="fill-rule:evenodd;fill:rgb(69.999695%,0%,0%);fill-opacity:1;stroke-width:1;stroke-linecap:square;stroke-linejoin:miter;stroke:rgb(69.999695%,0%,0%);stroke-opacity:1;stroke-miterlimit:3.25;" d="M 210.25 92.976563 C 210.25 92.320313 209.992188 91.6875 209.523438 91.222656 C 209.058594 90.757813 208.429688 90.496094 207.769531 90.496094 C 207.113281 90.496094 206.484375 90.757813 206.015625 91.222656 C 205.550781 91.6875 205.289063 92.320313 205.289063 92.976563 C 205.289063 93.632813 205.550781 94.265625 206.015625 94.730469 C 206.484375 95.195313 207.113281 95.457031 207.769531 95.457031 C 208.429688 95.457031 209.058594 95.195313 209.523438 94.730469 C 209.992188 94.265625 210.25 93.632813 210.25 92.976563 Z M 210.25 92.976563 "/>
<path style="fill-rule:evenodd;fill:rgb(63.998413%,70.399475%,79.998779%);fill-opacity:1;stroke-width:1;stroke-linecap:square;stroke-linejoin:miter;stroke:rgb(0%,0%,0%);stroke-opacity:0.7;stroke-miterlimit:3.25;" d="M 314.703125 98.644531 C 314.703125 97.984375 314.441406 97.355469 313.976563 96.890625 C 313.511719 96.421875 312.878906 96.164063 312.222656 96.164063 C 311.566406 96.164063 310.933594 96.421875 310.46875 96.890625 C 310.003906 97.355469 309.742188 97.984375 309.742188 98.644531 C 309.742188 99.300781 310.003906 99.929688 310.46875 100.398438 C 310.933594 100.863281 311.566406 101.125 312.222656 101.125 C 312.878906 101.125 313.511719 100.863281 313.976563 100.398438 C 314.441406 99.929688 314.703125 99.300781 314.703125 98.644531 Z M 314.703125 98.644531 "/>
<path style="fill-rule:evenodd;fill:rgb(69.999695%,0%,0%);fill-opacity:1;stroke-width:1;stroke-linecap:square;stroke-linejoin:miter;stroke:rgb(69.999695%,0%,0%);stroke-opacity:1;stroke-miterlimit:3.25;" d="M 351.820313 95.214844 C 351.820313 94.554688 351.558594 93.925781 351.09375 93.460938 C 350.628906 92.996094 349.996094 92.734375 349.339844 92.734375 C 348.679688 92.734375 348.050781 92.996094 347.585938 93.460938 C 347.121094 93.925781 346.859375 94.554688 346.859375 95.214844 C 346.859375 95.871094 347.121094 96.503906 347.585938 96.96875 C 348.050781 97.433594 348.679688 97.695313 349.339844 97.695313 C 349.996094 97.695313 350.628906 97.433594 351.09375 96.96875 C 351.558594 96.503906 351.820313 95.871094 351.820313 95.214844 Z M 351.820313 95.214844 "/>
<path style="fill-rule:evenodd;fill:rgb(63.998413%,70.399475%,79.998779%);fill-opacity:1;stroke-width:1;stroke-linecap:square;stroke-linejoin:miter;stroke:rgb(0%,0%,0%);stroke-opacity:0.7;stroke-miterlimit:3.25;" d="M 239.0625 154.027344 C 239.0625 153.371094 238.800781 152.738281 238.335938 152.273438 C 237.871094 151.808594 237.238281 151.546875 236.582031 151.546875 C 235.921875 151.546875 235.292969 151.808594 234.828125 152.273438 C 234.363281 152.738281 234.101563 153.371094 234.101563 154.027344 C 234.101563 154.6875 234.363281 155.316406 234.828125 155.78125 C 235.292969 156.246094 235.921875 156.507813 236.582031 156.507813 C 237.238281 156.507813 237.871094 156.246094 238.335938 155.78125 C 238.800781 155.316406 239.0625 154.6875 239.0625 154.027344 Z M 239.0625 154.027344 "/>
<path style="fill-rule:evenodd;fill:rgb(63.998413%,70.399475%,79.998779%);fill-opacity:1;stroke-width:1;stroke-linecap:square;stroke-linejoin:miter;stroke:rgb(0%,0%,0%);stroke-opacity:0.7;stroke-miterlimit:3.25;" d="M 215.539063 46.089844 C 215.539063 45.429688 215.277344 44.800781 214.8125 44.335938 C 214.347656 43.867188 213.71875 43.609375 213.058594 43.609375 C 212.402344 43.609375 211.769531 43.867188 211.304688 44.335938 C 210.839844 44.800781 210.578125 45.429688 210.578125 46.089844 C 210.578125 46.746094 210.839844 47.378906 211.304688 47.84375 C 211.769531 48.308594 212.402344 48.570313 213.058594 48.570313 C 213.71875 48.570313 214.347656 48.308594 214.8125 47.84375 C 215.277344 47.378906 215.539063 46.746094 215.539063 46.089844 Z M 215.539063 46.089844 "/>
<path style="fill-rule:evenodd;fill:rgb(63.998413%,70.399475%,79.998779%);fill-opacity:1;stroke-width:1;stroke-linecap:square;stroke-linejoin:miter;stroke:rgb(0%,0%,0%);stroke-opacity:0.7;stroke-miterlimit:3.25;" d="M 207.628906 131.542969 C 207.628906 130.882813 207.367188 130.253906 206.902344 129.789063 C 206.433594 129.324219 205.804688 129.0625 205.148438 129.0625 C 204.488281 129.0625 203.859375 129.324219 203.394531 129.789063 C 202.925781 130.253906 202.667969 130.882813 202.667969 131.542969 C 202.667969 132.199219 202.925781 132.832031 203.394531 133.296875 C 203.859375 133.761719 204.488281 134.023438 205.148438 134.023438 C 205.804688 134.023438 206.433594 133.761719 206.902344 133.296875 C 207.367188 132.832031 207.628906 132.199219 207.628906 131.542969 Z M 207.628906 131.542969 "/>
<path style="fill-rule:evenodd;fill:rgb(63.998413%,70.399475%,79.998779%);fill-opacity:1;stroke-width:1;stroke-linecap:square;stroke-linejoin:miter;stroke:rgb(0%,0%,0%);stroke-opacity:0.7;stroke-miterlimit:3.25;" d="M 266.199219 104.402344 C 266.199219 103.746094 265.9375 103.113281 265.472656 102.648438 C 265.003906 102.183594 264.375 101.921875 263.714844 101.921875 C 263.058594 101.921875 262.429688 102.183594 261.960938 102.648438 C 261.496094 103.113281 261.234375 103.746094 261.234375 104.402344 C 261.234375 105.0625 261.496094 105.691406 261.960938 106.15625 C 262.429688 106.621094 263.058594 106.882813 263.714844 106.882813 C 264.375 106.882813 265.003906 106.621094 265.472656 106.15625 C 265.9375 105.691406 266.199219 105.0625 266.199219 104.402344 Z M 266.199219 104.402344 "/>
<path style="fill-rule:evenodd;fill:rgb(63.998413%,70.399475%,79.998779%);fill-opacity:1;stroke-width:1;stroke-linecap:square;stroke-linejoin:miter;stroke:rgb(0%,0%,0%);stroke-opacity:0.7;stroke-miterlimit:3.25;" d="M 268.460938 140.269531 C 268.460938 139.609375 268.199219 138.980469 267.734375 138.515625 C 267.269531 138.050781 266.636719 137.789063 265.980469 137.789063 C 265.320313 137.789063 264.691406 138.050781 264.226563 138.515625 C 263.761719 138.980469 263.5 139.609375 263.5 140.269531 C 263.5 140.925781 263.761719 141.558594 264.226563 142.023438 C 264.691406 142.488281 265.320313 142.75 265.980469 142.75 C 266.636719 142.75 267.269531 142.488281 267.734375 142.023438 C 268.199219 141.558594 268.460938 140.925781 268.460938 140.269531 Z M 268.460938 140.269531 "/>
<path style="fill-rule:evenodd;fill:rgb(63.998413%,70.399475%,79.998779%);fill-opacity:1;stroke-width:1;stroke-linecap:square;stroke-linejoin:miter;stroke:rgb(0%,0%,0%);stroke-opacity:0.7;stroke-miterlimit:3.25;" d="M 12.140625 119.332031 C 12.140625 118.675781 11.878906 118.042969 11.414063 117.578125 C 10.949219 117.113281 10.320313 116.851563 9.660156 116.851563 C 9.003906 116.851563 8.371094 117.113281 7.90625 117.578125 C 7.441406 118.042969 7.179688 118.675781 7.179688 119.332031 C 7.179688 119.988281 7.441406 120.621094 7.90625 121.085938 C 8.371094 121.550781 9.003906 121.8125 9.660156 121.8125 C 10.320313 121.8125 10.949219 121.550781 11.414063 121.085938 C 11.878906 120.621094 12.140625 119.988281 12.140625 119.332031 Z M 12.140625 119.332031 "/>
<path style="fill-rule:evenodd;fill:rgb(63.998413%,70.399475%,79.998779%);fill-opacity:1;stroke-width:1;stroke-linecap:square;stroke-linejoin:miter;stroke:rgb(0%,0%,0%);stroke-opacity:0.7;stroke-miterlimit:3.25;" d="M 220.222656 9.375 C 220.222656 8.714844 219.960938 8.085938 219.496094 7.621094 C 219.03125 7.152344 218.402344 6.894531 217.742188 6.894531 C 217.085938 6.894531 216.453125 7.152344 215.988281 7.621094 C 215.523438 8.085938 215.261719 8.714844 215.261719 9.375 C 215.261719 10.03125 215.523438 10.664063 215.988281 11.128906 C 216.453125 11.59375 217.085938 11.855469 217.742188 11.855469 C 218.402344 11.855469 219.03125 11.59375 219.496094 11.128906 C 219.960938 10.664063 220.222656 10.03125 220.222656 9.375 Z M 220.222656 9.375 "/>
</g>
</svg>
