<?xml version="1.0" encoding="UTF-8"?>
<svg xmlns="http://www.w3.org/2000/svg" xmlns:xlink="http://www.w3.org/1999/xlink" width="360pt" height="181pt" viewBox="0 0 360 181" version="1.1">
<g id="surface24">
<path style="fill:none;stroke-width:1;stroke-linecap:square;stroke-linejoin:miter;stroke:rgb(84.999084%,84.999084%,84.999084%);stroke-opacity:0.7;stroke-miterlimit:3.25;" d="M 95.292969 99.765625 L 79.757813 61.652344 "/>
<path style="fill:none;stroke-width:1;stroke-linecap:square;stroke-linejoin:miter;stroke:rgb(84.999084%,84.999084%,84.999084%);stroke-opacity:0.7;stroke-miterlimit:3.25;" d="M 95.292969 99.765625 L 40.074219 128.175781 "/>
<path style="fill:none;stroke-width:1;stroke-linecap:square;stroke-linejoin:miter;stroke:rgb(84.999084%,84.999084%,84.999084%);stroke-opacity:0.7;stroke-miterlimit:3.25;" d="M 95.292969 99.765625 L 190.996094 84.511719 "/>
<path style="fill:none;stroke-width:1;stroke-linecap:square;stroke-linejoin:miter;stroke:rgb(84.999084%,84.999084%,84.999084%);stroke-opacity:0.7;stroke-miterlimit:3.25;" d="M 95.292969 99.765625 L 24.996094 59.5625 "/>
<path style="fill:none;stroke-width:1;stroke-linecap:square;stroke-linejoin:miter;stroke:rgb(84.999084%,84.999084%,84.999084%);stroke-opacity:0.7;stroke-miterlimit:3.25;" d="M 284.183594 87.101563 L 242.777344 49.832031 "/>
<path style="fill:none;stroke-width:1;stroke-linecap:square;stroke-linejoin:miter;stroke:rgb(84.999084%,84.999084%,84.999084%);stroke-opacity:0.7;stroke-miterlimit:3.25;" d="M 284.183594 87.101563 L 190.996094 84.511719 "/>
<path style="fill:none;stroke-width:1;stroke-linecap:square;stroke-linejoin:miter;stroke:rgb(84.999084%,84.999084%,84.999084%);stroke-opacity:0.7;stroke-miterlimit:3.25;" d="M 284.183594 87.101563 L 348.785156 51.828125 "/>
<path style="fill:none;stroke-width:1;stroke-linecap:square;stroke-linejoin:miter;stroke:rgb(84.999084%,84.999084%,84.999084%);stroke-opacity:0.7;stroke-miterlimit:3.25;" d="M 281.015625 34.289063 L 242.777344 49.832031 "/>
<path style="fill:none;stroke-width:1;stroke-linecap:square;stroke-linejoin:miter;stroke:rgb(84.999084%,84.999084%,84.999084%);stroke-opacity:0.7;stroke-miterlimit:3.25;" d="M 281.015625 34.289063 L 190.996094 84.511719 "/>
<path style="fill:none;stroke-width:1;stroke-linecap:square;stroke-linejoin:miter;stroke:rgb(84.999084%,84.999084%,84.999084%);stroke-opacity:0.7;stroke-miterlimit:3.25;" d="M 281.015625 34.289063 L 348.785156 51.828125 "/>
<path style="fill:none;stroke-width:1;stroke-linecap:square;stroke-linejoin:miter;stroke:rgb(84.999084%,84.999084%,84.999084%);stroke-opacity:0.7;stroke-miterlimit:3.25;" d="M 79.757813 61.652344 L 40.074219 128.175781 "/>
<path style="fill:none;stroke-width:1;stroke-linecap:square;stroke-linejoin:miter;stroke:rgb(84.999084%,84.999084%,84.999084%);stroke-opacity:0.7;stroke-miterlimit:3.25;" d="M 79.757813 61.652344 L 10.214844 9.925781 "/>
<path style="fill:none;stroke-width:1;stroke-linecap:square;stroke-linejoin:miter;stroke:rgb(84.999084%,84.999084%,84.999084%);stroke-opacity:0.7;stroke-miterlimit:3.25;" d="M 79.757813 61.652344 L 190.996094 84.511719 "/>
<path style="fill:none;stroke-width:1;stroke-linecap:square;stroke-linejoin:miter;stroke:rgb(84.999084%,84.999084%,84.999084%);stroke-opacity:0.7;stroke-miterlimit:3.25;" d="M 79.757813 61.652344 L 24.996094 59.5625 "/>
<path style="fill:none;stroke-width:1;stroke-linecap:square;stroke-linejoin:miter;stroke:rgb(84.999084%,84.999084%,84.999084%);stroke-opacity:0.7;stroke-miterlimit:3.25;" d="M 242.777344 49.832031 L 190.996094 84.511719 "/>
<path style="fill:none;stroke-width:1;stroke-linecap:square;stroke-linejoin:miter;stroke:rgb(84.999084%,84.999084%,84.999084%);stroke-opacity:0.7;stroke-miterlimit:3.25;" d="M 10.214844 9.925781 L 24.996094 59.5625 "/>
<path style="fill:none;stroke-width:1;stroke-linecap:square;stroke-linejoin:miter;stroke:rgb(84.999084%,84.999084%,84.999084%);stroke-opacity:0.7;stroke-miterlimit:3.25;" d="M 209.597656 170.066406 L 190.996094 84.511719 "/>
<path style="fill-rule:evenodd;fill:rgb(63.998413%,70.399475%,79.998779%);fill-opacity:1;stroke-width:1;stroke-linecap:square;stroke-linejoin:miter;stroke:rgb(0%,0%,0%);stroke-opacity:0.7;stroke-miterlimit:3.25;" d="M 98.328125 99.765625 C 98.328125 98.960938 98.007813 98.1875 97.4375 97.617188 C 96.871094 97.050781 96.097656 96.730469 95.292969 96.730469 C 94.488281 96.730469 93.714844 97.050781 93.148438 97.617188 C 92.578125 98.1875 92.257813 98.960938 92.257813 99.765625 C 92.257813 100.570313 92.578125 101.339844 93.148438 101.910156 C 93.714844 102.480469 94.488281 102.800781 95.292969 102.800781 C 96.097656 102.800781 96.871094 102.480469 97.4375 101.910156 C 98.007813 101.339844 98.328125 100.570313 98.328125 99.765625 Z M 98.328125 99.765625 "/>
<path style="fill-rule:evenodd;fill:rgb(63.998413%,70.399475%,79.998779%);fill-opacity:1;stroke-width:1;stroke-linecap:square;stroke-linejoin:miter;stroke:rgb(0%,0%,0%);stroke-opacity:0.7;stroke-miterlimit:3.25;" d="M 287.21875 87.101563 C 287.21875 86.296875 286.898438 85.527344 286.328125 84.957031 C 285.761719 84.386719 284.988281 84.066406 284.183594 84.066406 C 283.378906 84.066406 282.609375 84.386719 282.039063 84.957031 C 281.46875 85.527344 281.148438 86.296875 281.148438 87.101563 C 281.148438 87.90625 281.46875 88.679688 282.039063 89.25 C 282.609375 89.816406 283.378906 90.136719 284.183594 90.136719 C 284.988281 90.136719 285.761719 89.816406 286.328125 89.25 C 286.898438 88.679688 287.21875 87.90625 287.21875 87.101563 Z M 287.21875 87.101563 "/>
<path style="fill-rule:evenodd;fill:rgb(63.998413%,70.399475%,79.998779%);fill-opacity:1;stroke-width:1;stroke-linecap:square;stroke-linejoin:miter;stroke:rgb(0%,0%,0%);stroke-opacity:0.7;stroke-miterlimit:3.25;" d="M 284.050781 34.289063 C 284.050781 33.484375 283.730469 32.710938 283.164063 32.140625 C 282.59375 31.574219 281.820313 31.253906 281.015625 31.253906 C 280.210938 31.253906 279.441406 31.574219 278.871094 32.140625 C 278.300781 32.710938 277.984375 33.484375 277.984375 34.289063 C 277.984375 35.09375 278.300781 35.863281 278.871094 36.433594 C 279.441406 37.003906 280.210938 37.320313 281.015625 37.320313 C 281.820313 37.320313 282.59375 37.003906 283.164063 36.433594 C 283.730469 35.863281 284.050781 35.09375 284.050781 34.289063 Z M 284.050781 34.289063 "/>
<path style="fill-rule:evenodd;fill:rgb(63.998413%,70.399475%,79.998779%);fill-opacity:1;stroke-width:1;stroke-linecap:square;stroke-linejoin:miter;stroke:rgb(0%,0%,0%);stroke-opacity:0.7;stroke-miterlimit:3.25;" d="M 82.792969 61.652344 C 82.792969 60.84375 82.472656 60.074219 81.90625 59.503906 C 81.335938 58.9375 80.5625 58.617188 79.757813 58.617188 C 78.953125 58.617188 78.183594 58.9375 77.613281 59.503906 C 77.042969 60.074219 76.726563 60.84375 76.726563 61.652344 C 76.726563 62.457031 77.042969 63.226563 77.613281 63.796875 C 78.183594 64.363281 78.953125 64.683594 79.757813 64.683594 C 80.5625 64.683594 81.335938 64.363281 81.90625 63.796875 C 82.472656 63.226563 82.792969 62.457031 82.792969 61.652344 Z M 82.792969 61.652344 "/>
<path style="fill-rule:evenodd;fill:rgb(69.999695%,0%,0%);fill-opacity:1;stroke-width:1;stroke-linecap:square;stroke-linejoin:miter;stroke:rgb(69.999695%,0%,0%);stroke-opacity:1;stroke-miterlimit:3.25;" d="M 43.109375 128.175781 C 43.109375 127.371094 42.789063 126.597656 42.21875 126.027344 C 41.652344 125.460938 40.878906 125.140625 40.074219 125.140625 C 39.269531 125.140625 38.5 125.460938 37.929688 126.027344 C 37.359375 126.597656 37.039063 127.371094 37.039063 128.175781 C 37.039063 128.980469 37.359375 129.75 37.929688 130.320313 C 38.5 130.890625 39.269531 131.207031 40.074219 131.207031 C 40.878906 131.207031 41.652344 130.890625 42.21875 130.320313 C 42.789063 129.75 43.109375 128.980469 43.109375 128.175781 Z M 43.109375 128.175781 "/>
<path style="fill-rule:evenodd;fill:rgb(69.999695%,0%,0%);fill-opacity:1;stroke-width:1;stroke-linecap:square;stroke-linejoin:miter;stroke:rgb(69.999695%,0%,0%);stroke-opacity:1;stroke-miterlimit:3.25;" d="M 245.8125 49.832031 C 245.8125 49.027344 245.492188 48.257813 244.921875 47.6875 C 244.355469 47.117188 243.582031 46.800781 242.777344 46.800781 C 241.972656 46.800781 241.199219 47.117188 240.632813 47.6875 C 240.0625 48.257813 239.742188 49.027344 239.742188 49.832031 C 239.742188 50.636719 240.0625 51.410156 240.632813 51.980469 C 241.199219 52.546875 241.972656 52.867188 242.777344 52.867188 C 243.582031 52.867188 244.355469 52.546875 244.921875 51.980469 C 245.492188 51.410156 245.8125 50.636719 245.8125 49.832031 Z M 245.8125 49.832031 "/>
<path style="fill-rule:evenodd;fill:rgb(63.998413%,70.399475%,79.998779%);fill-opacity:1;stroke-width:1;stroke-linecap:square;stroke-linejoin:miter;stroke:rgb(0%,0%,0%);stroke-opacity:0.7;stroke-miterlimit:3.25;" d="M 13.25 9.925781 C 13.25 9.121094 12.929688 8.351563 12.359375 7.78125 C 11.792969 7.210938 11.019531 6.894531 10.214844 6.894531 C 9.410156 6.894531 8.636719 7.210938 8.070313 7.78125 C 7.5 8.351563 7.179688 9.121094 7.179688 9.925781 C 7.179688 10.730469 7.5 11.503906 8.070313 12.074219 C 8.636719 12.640625 9.410156 12.960938 10.214844 12.960938 C 11.019531 12.960938 11.792969 12.640625 12.359375 12.074219 C 12.929688 11.503906 13.25 10.730469 13.25 9.925781 Z M 13.25 9.925781 "/>
<path style="fill-rule:evenodd;fill:rgb(63.998413%,70.399475%,79.998779%);fill-opacity:1;stroke-width:1;stroke-linecap:square;stroke-linejoin:miter;stroke:rgb(0%,0%,0%);stroke-opacity:0.7;stroke-miterlimit:3.25;" d="M 212.628906 170.066406 C 212.628906 169.261719 212.3125 168.488281 211.742188 167.917969 C 211.171875 167.351563 210.402344 167.03125 209.597656 167.03125 C 208.792969 167.03125 208.019531 167.351563 207.449219 167.917969 C 206.882813 168.488281 206.5625 169.261719 206.5625 170.066406 C 206.5625 170.871094 206.882813 171.640625 207.449219 172.210938 C 208.019531 172.78125 208.792969 173.097656 209.597656 173.097656 C 210.402344 173.097656 211.171875 172.78125 211.742188 172.210938 C 212.3125 171.640625 212.628906 170.871094 212.628906 170.066406 Z M 212.628906 170.066406 "/>
<path style="fill-rule:evenodd;fill:rgb(63.998413%,70.399475%,79.998779%);fill-opacity:1;stroke-width:1;stroke-linecap:square;stroke-linejoin:miter;stroke:rgb(0%,0%,0%);stroke-opacity:0.7;stroke-miterlimit:3.25;" d="M 194.03125 84.511719 C 194.03125 83.707031 193.710938 82.933594 193.140625 82.363281 C 192.574219 81.796875 191.800781 81.476563 190.996094 81.476563 C 190.191406 81.476563 189.421875 81.796875 188.851563 82.363281 C 188.28125 82.933594 187.960938 83.707031 187.960938 84.511719 C 187.960938 85.316406 188.28125 86.085938 188.851563 86.65625 C 189.421875 87.226563 190.191406 87.542969 190.996094 87.542969 C 191.800781 87.542969 192.574219 87.226563 193.140625 86.65625 C 193.710938 86.085938 194.03125 85.316406 194.03125 84.511719 Z M 194.03125 84.511719 "/>
<path style="fill-rule:evenodd;fill:rgb(69.999695%,0%,0%);fill-opacity:1;stroke-width:1;stroke-linecap:square;stroke-linejoin:miter;stroke:rgb(69.999695%,0%,0%);stroke-opacity:1;stroke-miterlimit:3.25;" d="M 28.03125 59.5625 C 28.03125 58.757813 27.710938 57.984375 27.144531 57.417969 C 26.574219 56.847656 25.800781 56.527344 24.996094 56.527344 C 24.191406 56.527344 23.421875 56.847656 22.851563 57.417969 C 22.28125 57.984375 21.964844 58.757813 21.964844 59.5625 C 21.964844 60.367188 22.28125 61.140625 22.851563 61.707031 C 23.421875 62.277344 24.191406 62.597656 24.996094 62.597656 C 25.800781 62.597656 26.574219 62.277344 27.144531 61.707031 C 27.710938 61.140625 28.03125 60.367188 28.03125 59.5625 Z M 28.03125 59.5625 "/>
<path style="fill-rule:evenodd;fill:rgb(63.998413%,70.399475%,79.998779%);fill-opacity:1;stroke-width:1;stroke-linecap:square;stroke-linejoin:miter;stroke:rgb(0%,0%,0%);stroke-opacity:0.7;stroke-miterlimit:3.25;" d="M 351.820313 51.828125 C 351.820313 51.023438 351.5 50.25 350.929688 49.683594 C 350.363281 49.113281 349.589844 48.792969 348.785156 48.792969 C 347.980469 48.792969 347.207031 49.113281 346.640625 49.683594 C 346.070313 50.25 345.75 51.023438 345.75 51.828125 C 345.75 52.632813 346.070313 53.40625 346.640625 53.972656 C 347.207031 54.542969 347.980469 54.863281 348.785156 54.863281 C 349.589844 54.863281 350.363281 54.542969 350.929688 53.972656 C 351.5 53.40625 351.820313 52.632813 351.820313 51.828125 Z M 351.820313 51.828125 "/>
</g>
</svg>
