<?xml version="1.0" encoding="UTF-8"?>
<svg xmlns="http://www.w3.org/2000/svg" xmlns:xlink="http://www.w3.org/1999/xlink" width="360pt" height="427pt" viewBox="0 0 360 427" version="1.1">
<g id="surface36">
<path style="fill:none;stroke-width:1;stroke-linecap:square;stroke-linejoin:miter;stroke:rgb(84.999084%,84.999084%,84.999084%);stroke-opacity:0.7;stroke-miterlimit:3.25;" d="M 112.261719 11.117188 L 11.402344 145.59375 "/>
<path style="fill:none;stroke-width:1;stroke-linecap:square;stroke-linejoin:miter;stroke:rgb(84.999084%,84.999084%,84.999084%);stroke-opacity:0.7;stroke-miterlimit:3.25;" d="M 112.261719 11.117188 L 213.121094 145.59375 "/>
<path style="fill:none;stroke-width:1;stroke-linecap:square;stroke-linejoin:miter;stroke:rgb(84.999084%,84.999084%,84.999084%);stroke-opacity:0.7;stroke-miterlimit:3.25;" d="M 11.402344 280.070313 L 11.402344 145.59375 "/>
<path style="fill:none;stroke-width:1;stroke-linecap:square;stroke-linejoin:miter;stroke:rgb(84.999084%,84.999084%,84.999084%);stroke-opacity:0.7;stroke-miterlimit:3.25;" d="M 145.878906 280.070313 L 213.121094 145.59375 "/>
<path style="fill:none;stroke-width:1;stroke-linecap:square;stroke-linejoin:miter;stroke:rgb(84.999084%,84.999084%,84.999084%);stroke-opacity:0.7;stroke-miterlimit:3.25;" d="M 280.359375 280.070313 L 213.121094 414.546875 "/>
<path style="fill:none;stroke-width:1;stroke-linecap:square;stroke-linejoin:miter;stroke:rgb(84.999084%,84.999084%,84.999084%);stroke-opacity:0.7;stroke-miterlimit:3.25;" d="M 280.359375 280.070313 L 213.121094 145.59375 "/>
<path style="fill:none;stroke-width:1;stroke-linecap:square;stroke-linejoin:miter;stroke:rgb(69.999695%,0%,0%);stroke-opacity:1;stroke-miterlimit:3.25;" d="M 280.359375 280.070313 L 347.597656 414.546875 "/>
<path style="fill-rule:evenodd;fill:rgb(63.998413%,70.399475%,79.998779%);fill-opacity:1;stroke-width:1;stroke-linecap:square;stroke-linejoin:miter;stroke:rgb(0%,0%,0%);stroke-opacity:0.7;stroke-miterlimit:3.25;" d="M 116.484375 11.117188 C 116.484375 9.996094 116.039063 8.921875 115.246094 8.128906 C 114.457031 7.335938 113.382813 6.894531 112.261719 6.894531 C 111.140625 6.894531 110.066406 7.335938 109.273438 8.128906 C 108.484375 8.921875 108.039063 9.996094 108.039063 11.117188 C 108.039063 12.238281 108.484375 13.3125 109.273438 14.101563 C 110.066406 14.894531 111.140625 15.339844 112.261719 15.339844 C 113.382813 15.339844 114.457031 14.894531 115.246094 14.101563 C 116.039063 13.3125 116.484375 12.238281 116.484375 11.117188 Z M 116.484375 11.117188 "/>
<path style="fill-rule:evenodd;fill:rgb(69.999695%,0%,0%);fill-opacity:1;stroke-width:1;stroke-linecap:square;stroke-linejoin:miter;stroke:rgb(69.999695%,0%,0%);stroke-opacity:1;stroke-miterlimit:3.25;" d="M 15.628906 280.070313 C 15.628906 278.949219 15.183594 277.875 14.390625 277.085938 C 13.597656 276.292969 12.523438 275.847656 11.402344 275.847656 C 10.285156 275.847656 9.210938 276.292969 8.417969 277.085938 C 7.625 277.875 7.179688 278.949219 7.179688 280.070313 C 7.179688 281.191406 7.625 282.265625 8.417969 283.058594 C 9.210938 283.847656 10.285156 284.292969 11.402344 284.292969 C 12.523438 284.292969 13.597656 283.847656 14.390625 283.058594 C 15.183594 282.265625 15.628906 281.191406 15.628906 280.070313 Z M 15.628906 280.070313 "/>
<path style="fill-rule:evenodd;fill:rgb(69.999695%,0%,0%);fill-opacity:1;stroke-width:1;stroke-linecap:square;stroke-linejoin:miter;stroke:rgb(69.999695%,0%,0%);stroke-opacity:1;stroke-miterlimit:3.25;" d="M 150.105469 280.070313 C 150.105469 278.949219 149.660156 277.875 148.867188 277.085938 C 148.074219 276.292969 147 275.847656 145.878906 275.847656 C 144.761719 275.847656 143.6875 276.292969 142.894531 277.085938 C 142.101563 277.875 141.65625 278.949219 141.65625 280.070313 C 141.65625 281.191406 142.101563 282.265625 142.894531 283.058594 C 143.6875 283.847656 144.761719 284.292969 145.878906 284.292969 C 147 284.292969 148.074219 283.847656 148.867188 283.058594 C 149.660156 282.265625 150.105469 281.191406 150.105469 280.070313 Z M 150.105469 280.070313 "/>
<path style="fill-rule:evenodd;fill:rgb(69.999695%,0%,0%);fill-opacity:1;stroke-width:1;stroke-linecap:square;stroke-linejoin:miter;stroke:rgb(69.999695%,0%,0%);stroke-opacity:1;stroke-miterlimit:3.25;" d="M 284.582031 280.070313 C 284.582031 278.949219 284.136719 277.875 283.34375 277.085938 C 282.550781 276.292969 281.476563 275.847656 280.359375 275.847656 C 279.238281 275.847656 278.164063 276.292969 277.371094 277.085938 C 276.578125 277.875 276.132813 278.949219 276.132813 280.070313 C 276.132813 281.191406 276.578125 282.265625 277.371094 283.058594 C 278.164063 283.847656 279.238281 284.292969 280.359375 284.292969 C 281.476563 284.292969 282.550781 283.847656 283.34375 283.058594 C 284.136719 282.265625 284.582031 281.191406 284.582031 280.070313 Z M 284.582031 280.070313 "/>
<path style="fill-rule:evenodd;fill:rgb(63.998413%,70.399475%,79.998779%);fill-opacity:1;stroke-width:1;stroke-linecap:square;stroke-linejoin:miter;stroke:rgb(0%,0%,0%);stroke-opacity:0.7;stroke-miterlimit:3.25;" d="M 217.34375 414.546875 C 217.34375 413.429688 216.898438 412.351563 216.105469 411.5625 C 215.3125 410.769531 214.238281 410.324219 213.121094 410.324219 C 212 410.324219 210.925781 410.769531 210.132813 411.5625 C 209.339844 412.351563 208.894531 413.429688 208.894531 414.546875 C 208.894531 415.667969 209.339844 416.742188 210.132813 417.535156 C 210.925781 418.328125 212 418.769531 213.121094 418.769531 C 214.238281 418.769531 215.3125 418.328125 216.105469 417.535156 C 216.898438 416.742188 217.34375 415.667969 217.34375 414.546875 Z M 217.34375 414.546875 "/>
<path style="fill-rule:evenodd;fill:rgb(63.998413%,70.399475%,79.998779%);fill-opacity:1;stroke-width:1;stroke-linecap:square;stroke-linejoin:miter;stroke:rgb(0%,0%,0%);stroke-opacity:0.7;stroke-miterlimit:3.25;" d="M 15.628906 145.59375 C 15.628906 144.472656 15.183594 143.398438 14.390625 142.605469 C 13.597656 141.816406 12.523438 141.371094 11.402344 141.371094 C 10.285156 141.371094 9.210938 141.816406 8.417969 142.605469 C 7.625 143.398438 7.179688 144.472656 7.179688 145.59375 C 7.179688 146.714844 7.625 147.789063 8.417969 148.578125 C 9.210938 149.371094 10.285156 149.816406 11.402344 149.816406 C 12.523438 149.816406 13.597656 149.371094 14.390625 148.578125 C 15.183594 147.789063 15.628906 146.714844 15.628906 145.59375 Z M 15.628906 145.59375 "/>
<path style="fill-rule:evenodd;fill:rgb(63.998413%,70.399475%,79.998779%);fill-opacity:1;stroke-width:1;stroke-linecap:square;stroke-linejoin:miter;stroke:rgb(0%,0%,0%);stroke-opacity:0.7;stroke-miterlimit:3.25;" d="M 217.34375 145.59375 C 217.34375 144.472656 216.898438 143.398438 216.105469 142.605469 C 215.3125 141.816406 214.238281 141.371094 213.121094 141.371094 C 212 141.371094 210.925781 141.816406 210.132813 142.605469 C 209.339844 143.398438 208.894531 144.472656 208.894531 145.59375 C 208.894531 146.714844 209.339844 147.789063 210.132813 148.578125 C 210.925781 149.371094 212 149.816406 213.121094 149.816406 C 214.238281 149.816406 215.3125 149.371094 216.105469 148.578125 C 216.898438 147.789063 217.34375 146.714844 217.34375 145.59375 Z M 217.34375 145.59375 "/>
<path style="fill-rule:evenodd;fill:rgb(69.999695%,0%,0%);fill-opacity:1;stroke-width:1;stroke-linecap:square;stroke-linejoin:miter;stroke:rgb(69.999695%,0%,0%);stroke-opacity:1;stroke-miterlimit:3.25;" d="M 351.820313 414.546875 C 351.820313 413.429688 351.375 412.351563 350.582031 411.5625 C 349.789063 410.769531 348.714844 410.324219 347.597656 410.324219 C 346.476563 410.324219 345.402344 410.769531 344.609375 411.5625 C 343.816406 412.351563 343.371094 413.429688 343.371094 414.546875 C 343.371094 415.667969 343.816406 416.742188 344.609375 417.535156 C 345.402344 418.328125 346.476563 418.769531 347.597656 418.769531 C 348.714844 418.769531 349.789063 418.328125 350.582031 417.535156 C 351.375 416.742188 351.820313 415.667969 351.820313 414.546875 Z M 351.820313 414.546875 "/>
</g>
</svg>
