<?xml version="1.0" encoding="UTF-8"?>
<svg xmlns="http://www.w3.org/2000/svg" xmlns:xlink="http://www.w3.org/1999/xlink" width="360pt" height="185pt" viewBox="0 0 360 185" version="1.1">
<g id="surface32">
<path style="fill:none;stroke-width:1;stroke-linecap:square;stroke-linejoin:miter;stroke:rgb(84.999084%,84.999084%,84.999084%);stroke-opacity:0.7;stroke-miterlimit:3.25;" d="M 348.933594 135.34375 L 283.003906 125.636719 "/>
<path style="fill:none;stroke-width:1;stroke-linecap:square;stroke-linejoin:miter;stroke:rgb(69.999695%,0%,0%);stroke-opacity:1;stroke-miterlimit:3.25;" d="M 123.269531 9.777344 L 128.035156 82.953125 "/>
<path style="fill:none;stroke-width:1;stroke-linecap:square;stroke-linejoin:miter;stroke:rgb(84.999084%,84.999084%,84.999084%);stroke-opacity:0.7;stroke-miterlimit:3.25;" d="M 199.523438 113.261719 L 130.722656 125.941406 "/>
<path style="fill:none;stroke-width:1;stroke-linecap:square;stroke-linejoin:miter;stroke:rgb(84.999084%,84.999084%,84.999084%);stroke-opacity:0.7;stroke-miterlimit:3.25;" d="M 199.523438 113.261719 L 283.003906 125.636719 "/>
<path style="fill:none;stroke-width:1;stroke-linecap:square;stroke-linejoin:miter;stroke:rgb(69.999695%,0%,0%);stroke-opacity:1;stroke-miterlimit:3.25;" d="M 199.523438 113.261719 L 128.035156 82.953125 "/>
<path style="fill:none;stroke-width:1;stroke-linecap:square;stroke-linejoin:miter;stroke:rgb(84.999084%,84.999084%,84.999084%);stroke-opacity:0.7;stroke-miterlimit:3.25;" d="M 130.722656 125.941406 L 71.617188 136.320313 "/>
<path style="fill:none;stroke-width:1;stroke-linecap:square;stroke-linejoin:miter;stroke:rgb(84.999084%,84.999084%,84.999084%);stroke-opacity:0.7;stroke-miterlimit:3.25;" d="M 130.722656 125.941406 L 128.035156 82.953125 "/>
<path style="fill:none;stroke-width:1;stroke-linecap:square;stroke-linejoin:miter;stroke:rgb(84.999084%,84.999084%,84.999084%);stroke-opacity:0.7;stroke-miterlimit:3.25;" d="M 130.722656 125.941406 L 82.703125 96.644531 "/>
<path style="fill:none;stroke-width:1;stroke-linecap:square;stroke-linejoin:miter;stroke:rgb(84.999084%,84.999084%,84.999084%);stroke-opacity:0.7;stroke-miterlimit:3.25;" d="M 71.617188 136.320313 L 10.066406 174.6875 "/>
<path style="fill:none;stroke-width:1;stroke-linecap:square;stroke-linejoin:miter;stroke:rgb(69.999695%,0%,0%);stroke-opacity:1;stroke-miterlimit:3.25;" d="M 71.617188 136.320313 L 128.035156 82.953125 "/>
<path style="fill:none;stroke-width:1;stroke-linecap:square;stroke-linejoin:miter;stroke:rgb(69.999695%,0%,0%);stroke-opacity:1;stroke-miterlimit:3.25;" d="M 71.617188 136.320313 L 82.703125 96.644531 "/>
<path style="fill:none;stroke-width:1;stroke-linecap:square;stroke-linejoin:miter;stroke:rgb(69.999695%,0%,0%);stroke-opacity:1;stroke-miterlimit:3.25;" d="M 128.035156 82.953125 L 82.703125 96.644531 "/>
<path style="fill-rule:evenodd;fill:rgb(63.998413%,70.399475%,79.998779%);fill-opacity:1;stroke-width:1;stroke-linecap:square;stroke-linejoin:miter;stroke:rgb(0%,0%,0%);stroke-opacity:0.7;stroke-miterlimit:3.25;" d="M 351.820313 135.34375 C 351.820313 134.578125 351.515625 133.84375 350.976563 133.304688 C 350.433594 132.761719 349.699219 132.457031 348.933594 132.457031 C 348.167969 132.457031 347.433594 132.761719 346.894531 133.304688 C 346.351563 133.84375 346.046875 134.578125 346.046875 135.34375 C 346.046875 136.109375 346.351563 136.84375 346.894531 137.386719 C 347.433594 137.925781 348.167969 138.230469 348.933594 138.230469 C 349.699219 138.230469 350.433594 137.925781 350.976563 137.386719 C 351.515625 136.84375 351.820313 136.109375 351.820313 135.34375 Z M 351.820313 135.34375 "/>
<path style="fill-rule:evenodd;fill:rgb(69.999695%,0%,0%);fill-opacity:1;stroke-width:1;stroke-linecap:square;stroke-linejoin:miter;stroke:rgb(69.999695%,0%,0%);stroke-opacity:1;stroke-miterlimit:3.25;" d="M 126.15625 9.777344 C 126.15625 9.011719 125.851563 8.28125 125.308594 7.738281 C 124.769531 7.195313 124.035156 6.894531 123.269531 6.894531 C 122.503906 6.894531 121.769531 7.195313 121.226563 7.738281 C 120.6875 8.28125 120.382813 9.011719 120.382813 9.777344 C 120.382813 10.542969 120.6875 11.277344 121.226563 11.820313 C 121.769531 12.359375 122.503906 12.664063 123.269531 12.664063 C 124.035156 12.664063 124.769531 12.359375 125.308594 11.820313 C 125.851563 11.277344 126.15625 10.542969 126.15625 9.777344 Z M 126.15625 9.777344 "/>
<path style="fill-rule:evenodd;fill:rgb(69.999695%,0%,0%);fill-opacity:1;stroke-width:1;stroke-linecap:square;stroke-linejoin:miter;stroke:rgb(69.999695%,0%,0%);stroke-opacity:1;stroke-miterlimit:3.25;" d="M 202.410156 113.261719 C 202.410156 112.5 202.105469 111.765625 201.566406 111.222656 C 201.023438 110.679688 200.289063 110.378906 199.523438 110.378906 C 198.757813 110.378906 198.023438 110.679688 197.484375 111.222656 C 196.941406 111.765625 196.636719 112.5 196.636719 113.261719 C 196.636719 114.027344 196.941406 114.761719 197.484375 115.304688 C 198.023438 115.847656 198.757813 116.148438 199.523438 116.148438 C 200.289063 116.148438 201.023438 115.847656 201.566406 115.304688 C 202.105469 114.761719 202.410156 114.027344 202.410156 113.261719 Z M 202.410156 113.261719 "/>
<path style="fill-rule:evenodd;fill:rgb(63.998413%,70.399475%,79.998779%);fill-opacity:1;stroke-width:1;stroke-linecap:square;stroke-linejoin:miter;stroke:rgb(0%,0%,0%);stroke-opacity:0.7;stroke-miterlimit:3.25;" d="M 133.609375 125.941406 C 133.609375 125.175781 133.304688 124.441406 132.761719 123.898438 C 132.222656 123.359375 131.488281 123.054688 130.722656 123.054688 C 129.957031 123.054688 129.222656 123.359375 128.679688 123.898438 C 128.140625 124.441406 127.835938 125.175781 127.835938 125.941406 C 127.835938 126.707031 128.140625 127.441406 128.679688 127.980469 C 129.222656 128.523438 129.957031 128.828125 130.722656 128.828125 C 131.488281 128.828125 132.222656 128.523438 132.761719 127.980469 C 133.304688 127.441406 133.609375 126.707031 133.609375 125.941406 Z M 133.609375 125.941406 "/>
<path style="fill-rule:evenodd;fill:rgb(69.999695%,0%,0%);fill-opacity:1;stroke-width:1;stroke-linecap:square;stroke-linejoin:miter;stroke:rgb(69.999695%,0%,0%);stroke-opacity:1;stroke-miterlimit:3.25;" d="M 74.503906 136.320313 C 74.503906 135.554688 74.199219 134.824219 73.65625 134.28125 C 73.117188 133.738281 72.382813 133.4375 71.617188 133.4375 C 70.851563 133.4375 70.117188 133.738281 69.574219 134.28125 C 69.035156 134.824219 68.730469 135.554688 68.730469 136.320313 C 68.730469 137.085938 69.035156 137.820313 69.574219 138.363281 C 70.117188 138.902344 70.851563 139.207031 71.617188 139.207031 C 72.382813 139.207031 73.117188 138.902344 73.65625 138.363281 C 74.199219 137.820313 74.503906 137.085938 74.503906 136.320313 Z M 74.503906 136.320313 "/>
<path style="fill-rule:evenodd;fill:rgb(63.998413%,70.399475%,79.998779%);fill-opacity:1;stroke-width:1;stroke-linecap:square;stroke-linejoin:miter;stroke:rgb(0%,0%,0%);stroke-opacity:0.7;stroke-miterlimit:3.25;" d="M 12.953125 174.6875 C 12.953125 173.921875 12.648438 173.1875 12.105469 172.648438 C 11.566406 172.105469 10.832031 171.800781 10.066406 171.800781 C 9.300781 171.800781 8.566406 172.105469 8.023438 172.648438 C 7.484375 173.1875 7.179688 173.921875 7.179688 174.6875 C 7.179688 175.453125 7.484375 176.1875 8.023438 176.726563 C 8.566406 177.269531 9.300781 177.574219 10.066406 177.574219 C 10.832031 177.574219 11.566406 177.269531 12.105469 176.726563 C 12.648438 176.1875 12.953125 175.453125 12.953125 174.6875 Z M 12.953125 174.6875 "/>
<path style="fill-rule:evenodd;fill:rgb(63.998413%,70.399475%,79.998779%);fill-opacity:1;stroke-width:1;stroke-linecap:square;stroke-linejoin:miter;stroke:rgb(0%,0%,0%);stroke-opacity:0.7;stroke-miterlimit:3.25;" d="M 285.890625 125.636719 C 285.890625 124.871094 285.589844 124.136719 285.046875 123.597656 C 284.503906 123.054688 283.769531 122.75 283.003906 122.75 C 282.242188 122.75 281.507813 123.054688 280.964844 123.597656 C 280.421875 124.136719 280.121094 124.871094 280.121094 125.636719 C 280.121094 126.402344 280.421875 127.136719 280.964844 127.679688 C 281.507813 128.21875 282.242188 128.523438 283.003906 128.523438 C 283.769531 128.523438 284.503906 128.21875 285.046875 127.679688 C 285.589844 127.136719 285.890625 126.402344 285.890625 125.636719 Z M 285.890625 125.636719 "/>
<path style="fill-rule:evenodd;fill:rgb(69.999695%,0%,0%);fill-opacity:1;stroke-width:1;stroke-linecap:square;stroke-linejoin:miter;stroke:rgb(69.999695%,0%,0%);stroke-opacity:1;stroke-miterlimit:3.25;" d="M 130.921875 82.953125 C 130.921875 82.1875 130.617188 81.453125 130.078125 80.910156 C 129.535156 80.371094 128.800781 80.066406 128.035156 80.066406 C 127.269531 80.066406 126.535156 80.371094 125.996094 80.910156 C 125.453125 81.453125 125.148438 82.1875 125.148438 82.953125 C 125.148438 83.71875 125.453125 84.453125 125.996094 84.992188 C 126.535156 85.535156 127.269531 85.839844 128.035156 85.839844 C 128.800781 85.839844 129.535156 85.535156 130.078125 84.992188 C 130.617188 84.453125 130.921875 83.71875 130.921875 82.953125 Z M 130.921875 82.953125 "/>
<path style="fill-rule:evenodd;fill:rgb(69.999695%,0%,0%);fill-opacity:1;stroke-width:1;stroke-linecap:square;stroke-linejoin:miter;stroke:rgb(69.999695%,0%,0%);stroke-opacity:1;stroke-miterlimit:3.25;" d="M 85.589844 96.644531 C 85.589844 95.878906 85.285156 95.144531 84.742188 94.605469 C 84.203125 94.0625 83.46875 93.757813 82.703125 93.757813 C 81.9375 93.757813 81.203125 94.0625 80.664063 94.605469 C 80.121094 95.144531 79.816406 95.878906 79.816406 96.644531 C 79.816406 97.410156 80.121094 98.144531 80.664063 98.6875 C 81.203125 99.226563 81.9375 99.53125 82.703125 99.53125 C 83.46875 99.53125 84.203125 99.226563 84.742188 98.6875 C 85.285156 98.144531 85.589844 97.410156 85.589844 96.644531 Z M 85.589844 96.644531 "/>
</g>
</svg>
