<?xml version="1.0" encoding="UTF-8"?>
<svg xmlns="http://www.w3.org/2000/svg" xmlns:xlink="http://www.w3.org/1999/xlink" width="360pt" height="288pt" viewBox="0 0 360 288" version="1.1">
<g id="surface16">
<path style="fill:none;stroke-width:1;stroke-linecap:square;stroke-linejoin:miter;stroke:rgb(84.999084%,84.999084%,84.999084%);stroke-opacity:0.7;stroke-miterlimit:3.25;" d="M 162.84375 206.597656 L 75.359375 211.417969 "/>
<path style="fill:none;stroke-width:1;stroke-linecap:square;stroke-linejoin:miter;stroke:rgb(84.999084%,84.999084%,84.999084%);stroke-opacity:0.7;stroke-miterlimit:3.25;" d="M 162.84375 206.597656 L 199.195313 145.617188 "/>
<path style="fill:none;stroke-width:1;stroke-linecap:square;stroke-linejoin:miter;stroke:rgb(84.999084%,84.999084%,84.999084%);stroke-opacity:0.7;stroke-miterlimit:3.25;" d="M 162.84375 206.597656 L 233.695313 232.613281 "/>
<path style="fill:none;stroke-width:1;stroke-linecap:square;stroke-linejoin:miter;stroke:rgb(84.999084%,84.999084%,84.999084%);stroke-opacity:0.7;stroke-miterlimit:3.25;" d="M 61.023438 63.636719 L 24.476563 9.878906 "/>
<path style="fill:none;stroke-width:1;stroke-linecap:square;stroke-linejoin:miter;stroke:rgb(84.999084%,84.999084%,84.999084%);stroke-opacity:0.7;stroke-miterlimit:3.25;" d="M 61.023438 63.636719 L 108.917969 133.644531 "/>
<path style="fill:none;stroke-width:1;stroke-linecap:square;stroke-linejoin:miter;stroke:rgb(84.999084%,84.999084%,84.999084%);stroke-opacity:0.7;stroke-miterlimit:3.25;" d="M 223.5625 92.515625 L 199.195313 145.617188 "/>
<path style="fill:none;stroke-width:1;stroke-linecap:square;stroke-linejoin:miter;stroke:rgb(84.999084%,84.999084%,84.999084%);stroke-opacity:0.7;stroke-miterlimit:3.25;" d="M 293.941406 155.421875 L 298.222656 212.429688 "/>
<path style="fill:none;stroke-width:1;stroke-linecap:square;stroke-linejoin:miter;stroke:rgb(69.999695%,0%,0%);stroke-opacity:1;stroke-miterlimit:3.25;" d="M 293.941406 155.421875 L 342.542969 190.53125 "/>
<path style="fill:none;stroke-width:1;stroke-linecap:square;stroke-linejoin:miter;stroke:rgb(69.999695%,0%,0%);stroke-opacity:1;stroke-miterlimit:3.25;" d="M 293.941406 155.421875 L 348.832031 112.527344 "/>
<path style="fill:none;stroke-width:1;stroke-linecap:square;stroke-linejoin:miter;stroke:rgb(84.999084%,84.999084%,84.999084%);stroke-opacity:0.7;stroke-miterlimit:3.25;" d="M 293.941406 155.421875 L 199.195313 145.617188 "/>
<path style="fill:none;stroke-width:1;stroke-linecap:square;stroke-linejoin:miter;stroke:rgb(84.999084%,84.999084%,84.999084%);stroke-opacity:0.7;stroke-miterlimit:3.25;" d="M 298.222656 212.429688 L 342.542969 190.53125 "/>
<path style="fill:none;stroke-width:1;stroke-linecap:square;stroke-linejoin:miter;stroke:rgb(84.999084%,84.999084%,84.999084%);stroke-opacity:0.7;stroke-miterlimit:3.25;" d="M 298.222656 212.429688 L 233.695313 232.613281 "/>
<path style="fill:none;stroke-width:1;stroke-linecap:square;stroke-linejoin:miter;stroke:rgb(84.999084%,84.999084%,84.999084%);stroke-opacity:0.7;stroke-miterlimit:3.25;" d="M 75.359375 211.417969 L 10.167969 199.746094 "/>
<path style="fill:none;stroke-width:1;stroke-linecap:square;stroke-linejoin:miter;stroke:rgb(69.999695%,0%,0%);stroke-opacity:1;stroke-miterlimit:3.25;" d="M 75.359375 211.417969 L 108.917969 133.644531 "/>
<path style="fill:none;stroke-width:1;stroke-linecap:square;stroke-linejoin:miter;stroke:rgb(69.999695%,0%,0%);stroke-opacity:1;stroke-miterlimit:3.25;" d="M 75.359375 211.417969 L 16.496094 249.808594 "/>
<path style="fill:none;stroke-width:1;stroke-linecap:square;stroke-linejoin:miter;stroke:rgb(84.999084%,84.999084%,84.999084%);stroke-opacity:0.7;stroke-miterlimit:3.25;" d="M 75.359375 211.417969 L 61.128906 276.636719 "/>
<path style="fill:none;stroke-width:1;stroke-linecap:square;stroke-linejoin:miter;stroke:rgb(84.999084%,84.999084%,84.999084%);stroke-opacity:0.7;stroke-miterlimit:3.25;" d="M 108.917969 133.644531 L 199.195313 145.617188 "/>
<path style="fill-rule:evenodd;fill:rgb(63.998413%,70.399475%,79.998779%);fill-opacity:1;stroke-width:1;stroke-linecap:square;stroke-linejoin:miter;stroke:rgb(0%,0%,0%);stroke-opacity:0.7;stroke-miterlimit:3.25;" d="M 165.832031 206.597656 C 165.832031 205.804688 165.519531 205.042969 164.957031 204.484375 C 164.398438 203.921875 163.636719 203.609375 162.84375 203.609375 C 162.050781 203.609375 161.292969 203.921875 160.734375 204.484375 C 160.171875 205.042969 159.859375 205.804688 159.859375 206.597656 C 159.859375 207.390625 160.171875 208.148438 160.734375 208.707031 C 161.292969 209.269531 162.050781 209.582031 162.84375 209.582031 C 163.636719 209.582031 164.398438 209.269531 164.957031 208.707031 C 165.519531 208.148438 165.832031 207.390625 165.832031 206.597656 Z M 165.832031 206.597656 "/>
<path style="fill-rule:evenodd;fill:rgb(63.998413%,70.399475%,79.998779%);fill-opacity:1;stroke-width:1;stroke-linecap:square;stroke-linejoin:miter;stroke:rgb(0%,0%,0%);stroke-opacity:0.7;stroke-miterlimit:3.25;" d="M 64.011719 63.636719 C 64.011719 62.84375 63.695313 62.082031 63.136719 61.523438 C 62.574219 60.960938 61.816406 60.648438 61.023438 60.648438 C 60.230469 60.648438 59.472656 60.960938 58.910156 61.523438 C 58.351563 62.082031 58.035156 62.84375 58.035156 63.636719 C 58.035156 64.425781 58.351563 65.1875 58.910156 65.746094 C 59.472656 66.308594 60.230469 66.621094 61.023438 66.621094 C 61.816406 66.621094 62.574219 66.308594 63.136719 65.746094 C 63.695313 65.1875 64.011719 64.425781 64.011719 63.636719 Z M 64.011719 63.636719 "/>
<path style="fill-rule:evenodd;fill:rgb(69.999695%,0%,0%);fill-opacity:1;stroke-width:1;stroke-linecap:square;stroke-linejoin:miter;stroke:rgb(69.999695%,0%,0%);stroke-opacity:1;stroke-miterlimit:3.25;" d="M 27.464844 9.878906 C 27.464844 9.085938 27.148438 8.328125 26.589844 7.769531 C 26.027344 7.207031 25.269531 6.894531 24.476563 6.894531 C 23.683594 6.894531 22.925781 7.207031 22.363281 7.769531 C 21.804688 8.328125 21.488281 9.085938 21.488281 9.878906 C 21.488281 10.671875 21.804688 11.433594 22.363281 11.992188 C 22.925781 12.554688 23.683594 12.867188 24.476563 12.867188 C 25.269531 12.867188 26.027344 12.554688 26.589844 11.992188 C 27.148438 11.433594 27.464844 10.671875 27.464844 9.878906 Z M 27.464844 9.878906 "/>
<path style="fill-rule:evenodd;fill:rgb(69.999695%,0%,0%);fill-opacity:1;stroke-width:1;stroke-linecap:square;stroke-linejoin:miter;stroke:rgb(69.999695%,0%,0%);stroke-opacity:1;stroke-miterlimit:3.25;" d="M 226.550781 92.515625 C 226.550781 91.722656 226.234375 90.960938 225.675781 90.402344 C 225.113281 89.84375 224.355469 89.527344 223.5625 89.527344 C 222.769531 89.527344 222.011719 89.84375 221.449219 90.402344 C 220.890625 90.960938 220.574219 91.722656 220.574219 92.515625 C 220.574219 93.308594 220.890625 94.066406 221.449219 94.625 C 222.011719 95.1875 222.769531 95.5 223.5625 95.5 C 224.355469 95.5 225.113281 95.1875 225.675781 94.625 C 226.234375 94.066406 226.550781 93.308594 226.550781 92.515625 Z M 226.550781 92.515625 "/>
<path style="fill-rule:evenodd;fill:rgb(69.999695%,0%,0%);fill-opacity:1;stroke-width:1;stroke-linecap:square;stroke-linejoin:miter;stroke:rgb(69.999695%,0%,0%);stroke-opacity:1;stroke-miterlimit:3.25;" d="M 296.929688 155.421875 C 296.929688 154.628906 296.613281 153.871094 296.054688 153.308594 C 295.496094 152.75 294.734375 152.433594 293.941406 152.433594 C 293.148438 152.433594 292.390625 152.75 291.832031 153.308594 C 291.269531 153.871094 290.957031 154.628906 290.957031 155.421875 C 290.957031 156.214844 291.269531 156.972656 291.832031 157.535156 C 292.390625 158.09375 293.148438 158.410156 293.941406 158.410156 C 294.734375 158.410156 295.496094 158.09375 296.054688 157.535156 C 296.613281 156.972656 296.929688 156.214844 296.929688 155.421875 Z M 296.929688 155.421875 "/>
<path style="fill-rule:evenodd;fill:rgb(63.998413%,70.399475%,79.998779%);fill-opacity:1;stroke-width:1;stroke-linecap:square;stroke-linejoin:miter;stroke:rgb(0%,0%,0%);stroke-opacity:0.7;stroke-miterlimit:3.25;" d="M 301.210938 212.429688 C 301.210938 211.636719 300.894531 210.878906 300.335938 210.316406 C 299.777344 209.757813 299.015625 209.441406 298.222656 209.441406 C 297.429688 209.441406 296.671875 209.757813 296.109375 210.316406 C 295.550781 210.878906 295.238281 211.636719 295.238281 212.429688 C 295.238281 213.222656 295.550781 213.980469 296.109375 214.542969 C 296.671875 215.101563 297.429688 215.417969 298.222656 215.417969 C 299.015625 215.417969 299.777344 215.101563 300.335938 214.542969 C 300.894531 213.980469 301.210938 213.222656 301.210938 212.429688 Z M 301.210938 212.429688 "/>
<path style="fill-rule:evenodd;fill:rgb(69.999695%,0%,0%);fill-opacity:1;stroke-width:1;stroke-linecap:square;stroke-linejoin:miter;stroke:rgb(69.999695%,0%,0%);stroke-opacity:1;stroke-miterlimit:3.25;" d="M 78.34375 211.417969 C 78.34375 210.625 78.03125 209.867188 77.46875 209.304688 C 76.910156 208.746094 76.152344 208.429688 75.359375 208.429688 C 74.566406 208.429688 73.804688 208.746094 73.246094 209.304688 C 72.683594 209.867188 72.371094 210.625 72.371094 211.417969 C 72.371094 212.210938 72.683594 212.972656 73.246094 213.53125 C 73.804688 214.089844 74.566406 214.40625 75.359375 214.40625 C 76.152344 214.40625 76.910156 214.089844 77.46875 213.53125 C 78.03125 212.972656 78.34375 212.210938 78.34375 211.417969 Z M 78.34375 211.417969 "/>
<path style="fill-rule:evenodd;fill:rgb(69.999695%,0%,0%);fill-opacity:1;stroke-width:1;stroke-linecap:square;stroke-linejoin:miter;stroke:rgb(69.999695%,0%,0%);stroke-opacity:1;stroke-miterlimit:3.25;" d="M 345.53125 190.53125 C 345.53125 189.738281 345.214844 188.980469 344.65625 188.417969 C 344.09375 187.859375 343.335938 187.542969 342.542969 187.542969 C 341.75 187.542969 340.992188 187.859375 340.429688 188.417969 C 339.871094 188.980469 339.554688 189.738281 339.554688 190.53125 C 339.554688 191.324219 339.871094 192.082031 340.429688 192.644531 C 340.992188 193.203125 341.75 193.519531 342.542969 193.519531 C 343.335938 193.519531 344.09375 193.203125 344.65625 192.644531 C 345.214844 192.082031 345.53125 191.324219 345.53125 190.53125 Z M 345.53125 190.53125 "/>
<path style="fill-rule:evenodd;fill:rgb(63.998413%,70.399475%,79.998779%);fill-opacity:1;stroke-width:1;stroke-linecap:square;stroke-linejoin:miter;stroke:rgb(0%,0%,0%);stroke-opacity:0.7;stroke-miterlimit:3.25;" d="M 13.15625 199.746094 C 13.15625 198.953125 12.839844 198.195313 12.28125 197.632813 C 11.71875 197.074219 10.960938 196.757813 10.167969 196.757813 C 9.375 196.757813 8.613281 197.074219 8.054688 197.632813 C 7.496094 198.195313 7.179688 198.953125 7.179688 199.746094 C 7.179688 200.539063 7.496094 201.296875 8.054688 201.859375 C 8.613281 202.417969 9.375 202.734375 10.167969 202.734375 C 10.960938 202.734375 11.71875 202.417969 12.28125 201.859375 C 12.839844 201.296875 13.15625 200.539063 13.15625 199.746094 Z M 13.15625 199.746094 "/>
<path style="fill-rule:evenodd;fill:rgb(69.999695%,0%,0%);fill-opacity:1;stroke-width:1;stroke-linecap:square;stroke-linejoin:miter;stroke:rgb(69.999695%,0%,0%);stroke-opacity:1;stroke-miterlimit:3.25;" d="M 111.90625 133.644531 C 111.90625 132.851563 111.59375 132.09375 111.03125 131.535156 C 110.472656 130.972656 109.710938 130.660156 108.917969 130.660156 C 108.128906 130.660156 107.367188 130.972656 106.808594 131.535156 C 106.246094 132.09375 105.933594 132.851563 105.933594 133.644531 C 105.933594 134.4375 106.246094 135.199219 106.808594 135.757813 C 107.367188 136.316406 108.128906 136.632813 108.917969 136.632813 C 109.710938 136.632813 110.472656 136.316406 111.03125 135.757813 C 111.59375 135.199219 111.90625 134.4375 111.90625 133.644531 Z M 111.90625 133.644531 "/>
<path style="fill-rule:evenodd;fill:rgb(69.999695%,0%,0%);fill-opacity:1;stroke-width:1;stroke-linecap:square;stroke-linejoin:miter;stroke:rgb(69.999695%,0%,0%);stroke-opacity:1;stroke-miterlimit:3.25;" d="M 351.820313 112.527344 C 351.820313 111.734375 351.503906 110.976563 350.945313 110.417969 C 350.386719 109.855469 349.625 109.542969 348.832031 109.542969 C 348.039063 109.542969 347.28125 109.855469 346.71875 110.417969 C 346.160156 110.976563 345.84375 111.734375 345.84375 112.527344 C 345.84375 113.320313 346.160156 114.082031 346.71875 114.640625 C 347.28125 115.203125 348.039063 115.515625 348.832031 115.515625 C 349.625 115.515625 350.386719 115.203125 350.945313 114.640625 C 351.503906 114.082031 351.820313 113.320313 351.820313 112.527344 Z M 351.820313 112.527344 "/>
<path style="fill-rule:evenodd;fill:rgb(69.999695%,0%,0%);fill-opacity:1;stroke-width:1;stroke-linecap:square;stroke-linejoin:miter;stroke:rgb(69.999695%,0%,0%);stroke-opacity:1;stroke-miterlimit:3.25;" d="M 19.484375 249.808594 C 19.484375 249.019531 19.171875 248.257813 18.609375 247.699219 C 18.050781 247.136719 17.289063 246.824219 16.496094 246.824219 C 15.707031 246.824219 14.945313 247.136719 14.386719 247.699219 C 13.824219 248.257813 13.511719 249.019531 13.511719 249.808594 C 13.511719 250.601563 13.824219 251.363281 14.386719 251.921875 C 14.945313 252.484375 15.707031 252.796875 16.496094 252.796875 C 17.289063 252.796875 18.050781 252.484375 18.609375 251.921875 C 19.171875 251.363281 19.484375 250.601563 19.484375 249.808594 Z M 19.484375 249.808594 "/>
<path style="fill-rule:evenodd;fill:rgb(63.998413%,70.399475%,79.998779%);fill-opacity:1;stroke-width:1;stroke-linecap:square;stroke-linejoin:miter;stroke:rgb(0%,0%,0%);stroke-opacity:0.7;stroke-miterlimit:3.25;" d="M 202.183594 145.617188 C 202.183594 144.824219 201.867188 144.066406 201.308594 143.503906 C 200.75 142.945313 199.988281 142.628906 199.195313 142.628906 C 198.402344 142.628906 197.644531 142.945313 197.085938 143.503906 C 196.523438 144.066406 196.210938 144.824219 196.210938 145.617188 C 196.210938 146.410156 196.523438 147.167969 197.085938 147.730469 C 197.644531 148.289063 198.402344 148.605469 199.195313 148.605469 C 199.988281 148.605469 200.75 148.289063 201.308594 147.730469 C 201.867188 147.167969 202.183594 146.410156 202.183594 145.617188 Z M 202.183594 145.617188 "/>
<path style="fill-rule:evenodd;fill:rgb(63.998413%,70.399475%,79.998779%);fill-opacity:1;stroke-width:1;stroke-linecap:square;stroke-linejoin:miter;stroke:rgb(0%,0%,0%);stroke-opacity:0.7;stroke-miterlimit:3.25;" d="M 64.117188 276.636719 C 64.117188 275.84375 63.800781 275.085938 63.242188 274.523438 C 62.679688 273.964844 61.921875 273.648438 61.128906 273.648438 C 60.335938 273.648438 59.574219 273.964844 59.015625 274.523438 C 58.457031 275.085938 58.140625 275.84375 58.140625 276.636719 C 58.140625 277.429688 58.457031 278.191406 59.015625 278.75 C 59.574219 279.308594 60.335938 279.625 61.128906 279.625 C 61.921875 279.625 62.679688 279.308594 63.242188 278.75 C 63.800781 278.191406 64.117188 277.429688 64.117188 276.636719 Z M 64.117188 276.636719 "/>
<path style="fill-rule:evenodd;fill:rgb(69.999695%,0%,0%);fill-opacity:1;stroke-width:1;stroke-linecap:square;stroke-linejoin:miter;stroke:rgb(69.999695%,0%,0%);stroke-opacity:1;stroke-miterlimit:3.25;" d="M 236.679688 232.613281 C 236.679688 231.820313 236.367188 231.0625 235.804688 230.5 C 235.246094 229.941406 234.484375 229.625 233.695313 229.625 C 232.902344 229.625 232.140625 229.941406 231.582031 230.5 C 231.019531 231.0625 230.707031 231.820313 230.707031 232.613281 C 230.707031 233.40625 231.019531 234.164063 231.582031 234.726563 C 232.140625 235.285156 232.902344 235.601563 233.695313 235.601563 C 234.484375 235.601563 235.246094 235.285156 235.804688 234.726563 C 236.367188 234.164063 236.679688 233.40625 236.679688 232.613281 Z M 236.679688 232.613281 "/>
</g>
</svg>
