<?xml version="1.0" encoding="UTF-8"?>
<svg xmlns="http://www.w3.org/2000/svg" xmlns:xlink="http://www.w3.org/1999/xlink" width="360pt" height="109pt" viewBox="0 0 360 109" version="1.1">
<g id="surface28">
<path style="fill:none;stroke-width:1;stroke-linecap:square;stroke-linejoin:miter;stroke:rgb(84.999084%,84.999084%,84.999084%);stroke-opacity:0.7;stroke-miterlimit:3.25;" d="M 303.746094 65.511719 L 245.886719 44.890625 "/>
<path style="fill:none;stroke-width:1;stroke-linecap:square;stroke-linejoin:miter;stroke:rgb(84.999084%,84.999084%,84.999084%);stroke-opacity:0.7;stroke-miterlimit:3.25;" d="M 303.746094 65.511719 L 349.195313 79.511719 "/>
<path style="fill:none;stroke-width:1;stroke-linecap:square;stroke-linejoin:miter;stroke:rgb(84.999084%,84.999084%,84.999084%);stroke-opacity:0.7;stroke-miterlimit:3.25;" d="M 9.804688 38.574219 L 56.679688 46.582031 "/>
<path style="fill:none;stroke-width:1;stroke-linecap:square;stroke-linejoin:miter;stroke:rgb(84.999084%,84.999084%,84.999084%);stroke-opacity:0.7;stroke-miterlimit:3.25;" d="M 277.460938 9.515625 L 245.886719 44.890625 "/>
<path style="fill:none;stroke-width:1;stroke-linecap:square;stroke-linejoin:miter;stroke:rgb(84.999084%,84.999084%,84.999084%);stroke-opacity:0.7;stroke-miterlimit:3.25;" d="M 202.765625 34.316406 L 181.554688 54.234375 "/>
<path style="fill:none;stroke-width:1;stroke-linecap:square;stroke-linejoin:miter;stroke:rgb(84.999084%,84.999084%,84.999084%);stroke-opacity:0.7;stroke-miterlimit:3.25;" d="M 202.765625 34.316406 L 156.398438 38.921875 "/>
<path style="fill:none;stroke-width:1;stroke-linecap:square;stroke-linejoin:miter;stroke:rgb(84.999084%,84.999084%,84.999084%);stroke-opacity:0.7;stroke-miterlimit:3.25;" d="M 202.765625 34.316406 L 245.886719 44.890625 "/>
<path style="fill:none;stroke-width:1;stroke-linecap:square;stroke-linejoin:miter;stroke:rgb(84.999084%,84.999084%,84.999084%);stroke-opacity:0.7;stroke-miterlimit:3.25;" d="M 56.679688 46.582031 L 116.863281 59.128906 "/>
<path style="fill:none;stroke-width:1;stroke-linecap:square;stroke-linejoin:miter;stroke:rgb(84.999084%,84.999084%,84.999084%);stroke-opacity:0.7;stroke-miterlimit:3.25;" d="M 91.496094 98.695313 L 116.863281 59.128906 "/>
<path style="fill:none;stroke-width:1;stroke-linecap:square;stroke-linejoin:miter;stroke:rgb(84.999084%,84.999084%,84.999084%);stroke-opacity:0.7;stroke-miterlimit:3.25;" d="M 181.554688 54.234375 L 156.398438 38.921875 "/>
<path style="fill:none;stroke-width:1;stroke-linecap:square;stroke-linejoin:miter;stroke:rgb(84.999084%,84.999084%,84.999084%);stroke-opacity:0.7;stroke-miterlimit:3.25;" d="M 181.554688 54.234375 L 116.863281 59.128906 "/>
<path style="fill:none;stroke-width:1;stroke-linecap:square;stroke-linejoin:miter;stroke:rgb(69.999695%,0%,0%);stroke-opacity:1;stroke-miterlimit:3.25;" d="M 181.554688 54.234375 L 245.886719 44.890625 "/>
<path style="fill:none;stroke-width:1;stroke-linecap:square;stroke-linejoin:miter;stroke:rgb(84.999084%,84.999084%,84.999084%);stroke-opacity:0.7;stroke-miterlimit:3.25;" d="M 156.398438 38.921875 L 116.863281 59.128906 "/>
<path style="fill-rule:evenodd;fill:rgb(63.998413%,70.399475%,79.998779%);fill-opacity:1;stroke-width:1;stroke-linecap:square;stroke-linejoin:miter;stroke:rgb(0%,0%,0%);stroke-opacity:0.7;stroke-miterlimit:3.25;" d="M 306.371094 65.511719 C 306.371094 64.816406 306.09375 64.148438 305.601563 63.65625 C 305.109375 63.164063 304.441406 62.886719 303.746094 62.886719 C 303.050781 62.886719 302.382813 63.164063 301.890625 63.65625 C 301.398438 64.148438 301.125 64.816406 301.125 65.511719 C 301.125 66.207031 301.398438 66.875 301.890625 67.367188 C 302.382813 67.859375 303.050781 68.132813 303.746094 68.132813 C 304.441406 68.132813 305.109375 67.859375 305.601563 67.367188 C 306.09375 66.875 306.371094 66.207031 306.371094 65.511719 Z M 306.371094 65.511719 "/>
<path style="fill-rule:evenodd;fill:rgb(69.999695%,0%,0%);fill-opacity:1;stroke-width:1;stroke-linecap:square;stroke-linejoin:miter;stroke:rgb(69.999695%,0%,0%);stroke-opacity:1;stroke-miterlimit:3.25;" d="M 12.425781 38.574219 C 12.425781 37.878906 12.152344 37.210938 11.660156 36.71875 C 11.167969 36.226563 10.5 35.953125 9.804688 35.953125 C 9.109375 35.953125 8.441406 36.226563 7.949219 36.71875 C 7.457031 37.210938 7.179688 37.878906 7.179688 38.574219 C 7.179688 39.269531 7.457031 39.9375 7.949219 40.429688 C 8.441406 40.921875 9.109375 41.199219 9.804688 41.199219 C 10.5 41.199219 11.167969 40.921875 11.660156 40.429688 C 12.152344 39.9375 12.425781 39.269531 12.425781 38.574219 Z M 12.425781 38.574219 "/>
<path style="fill-rule:evenodd;fill:rgb(63.998413%,70.399475%,79.998779%);fill-opacity:1;stroke-width:1;stroke-linecap:square;stroke-linejoin:miter;stroke:rgb(0%,0%,0%);stroke-opacity:0.7;stroke-miterlimit:3.25;" d="M 280.082031 9.515625 C 280.082031 8.820313 279.808594 8.152344 279.316406 7.660156 C 278.824219 7.167969 278.15625 6.894531 277.460938 6.894531 C 276.765625 6.894531 276.097656 7.167969 275.605469 7.660156 C 275.113281 8.152344 274.835938 8.820313 274.835938 9.515625 C 274.835938 10.210938 275.113281 10.878906 275.605469 11.371094 C 276.097656 11.863281 276.765625 12.140625 277.460938 12.140625 C 278.15625 12.140625 278.824219 11.863281 279.316406 11.371094 C 279.808594 10.878906 280.082031 10.210938 280.082031 9.515625 Z M 280.082031 9.515625 "/>
<path style="fill-rule:evenodd;fill:rgb(63.998413%,70.399475%,79.998779%);fill-opacity:1;stroke-width:1;stroke-linecap:square;stroke-linejoin:miter;stroke:rgb(0%,0%,0%);stroke-opacity:0.7;stroke-miterlimit:3.25;" d="M 205.390625 34.316406 C 205.390625 33.621094 205.113281 32.953125 204.621094 32.460938 C 204.128906 31.96875 203.464844 31.691406 202.765625 31.691406 C 202.070313 31.691406 201.40625 31.96875 200.914063 32.460938 C 200.421875 32.953125 200.144531 33.621094 200.144531 34.316406 C 200.144531 35.011719 200.421875 35.679688 200.914063 36.171875 C 201.40625 36.664063 202.070313 36.9375 202.765625 36.9375 C 203.464844 36.9375 204.128906 36.664063 204.621094 36.171875 C 205.113281 35.679688 205.390625 35.011719 205.390625 34.316406 Z M 205.390625 34.316406 "/>
<path style="fill-rule:evenodd;fill:rgb(63.998413%,70.399475%,79.998779%);fill-opacity:1;stroke-width:1;stroke-linecap:square;stroke-linejoin:miter;stroke:rgb(0%,0%,0%);stroke-opacity:0.7;stroke-miterlimit:3.25;" d="M 59.304688 46.582031 C 59.304688 45.886719 59.027344 45.21875 58.535156 44.726563 C 58.042969 44.234375 57.375 43.957031 56.679688 43.957031 C 55.984375 43.957031 55.316406 44.234375 54.824219 44.726563 C 54.332031 45.21875 54.054688 45.886719 54.054688 46.582031 C 54.054688 47.277344 54.332031 47.945313 54.824219 48.4375 C 55.316406 48.929688 55.984375 49.203125 56.679688 49.203125 C 57.375 49.203125 58.042969 48.929688 58.535156 48.4375 C 59.027344 47.945313 59.304688 47.277344 59.304688 46.582031 Z M 59.304688 46.582031 "/>
<path style="fill-rule:evenodd;fill:rgb(69.999695%,0%,0%);fill-opacity:1;stroke-width:1;stroke-linecap:square;stroke-linejoin:miter;stroke:rgb(69.999695%,0%,0%);stroke-opacity:1;stroke-miterlimit:3.25;" d="M 94.121094 98.695313 C 94.121094 98 93.84375 97.332031 93.351563 96.839844 C 92.859375 96.347656 92.191406 96.070313 91.496094 96.070313 C 90.800781 96.070313 90.132813 96.347656 89.640625 96.839844 C 89.148438 97.332031 88.871094 98 88.871094 98.695313 C 88.871094 99.390625 89.148438 100.058594 89.640625 100.550781 C 90.132813 101.042969 90.800781 101.316406 91.496094 101.316406 C 92.191406 101.316406 92.859375 101.042969 93.351563 100.550781 C 93.84375 100.058594 94.121094 99.390625 94.121094 98.695313 Z M 94.121094 98.695313 "/>
<path style="fill-rule:evenodd;fill:rgb(69.999695%,0%,0%);fill-opacity:1;stroke-width:1;stroke-linecap:square;stroke-linejoin:miter;stroke:rgb(69.999695%,0%,0%);stroke-opacity:1;stroke-miterlimit:3.25;" d="M 184.179688 54.234375 C 184.179688 53.539063 183.902344 52.871094 183.410156 52.378906 C 182.917969 51.886719 182.253906 51.609375 181.554688 51.609375 C 180.859375 51.609375 180.191406 51.886719 179.703125 52.378906 C 179.210938 52.871094 178.933594 53.539063 178.933594 54.234375 C 178.933594 54.929688 179.210938 55.597656 179.703125 56.089844 C 180.191406 56.582031 180.859375 56.859375 181.554688 56.859375 C 182.253906 56.859375 182.917969 56.582031 183.410156 56.089844 C 183.902344 55.597656 184.179688 54.929688 184.179688 54.234375 Z M 184.179688 54.234375 "/>
<path style="fill-rule:evenodd;fill:rgb(63.998413%,70.399475%,79.998779%);fill-opacity:1;stroke-width:1;stroke-linecap:square;stroke-linejoin:miter;stroke:rgb(0%,0%,0%);stroke-opacity:0.7;stroke-miterlimit:3.25;" d="M 159.019531 38.921875 C 159.019531 38.226563 158.746094 37.558594 158.253906 37.066406 C 157.761719 36.574219 157.09375 36.300781 156.398438 36.300781 C 155.703125 36.300781 155.035156 36.574219 154.542969 37.066406 C 154.050781 37.558594 153.773438 38.226563 153.773438 38.921875 C 153.773438 39.621094 154.050781 40.285156 154.542969 40.777344 C 155.035156 41.269531 155.703125 41.546875 156.398438 41.546875 C 157.09375 41.546875 157.761719 41.269531 158.253906 40.777344 C 158.746094 40.285156 159.019531 39.621094 159.019531 38.921875 Z M 159.019531 38.921875 "/>
<path style="fill-rule:evenodd;fill:rgb(63.998413%,70.399475%,79.998779%);fill-opacity:1;stroke-width:1;stroke-linecap:square;stroke-linejoin:miter;stroke:rgb(0%,0%,0%);stroke-opacity:0.7;stroke-miterlimit:3.25;" d="M 119.488281 59.128906 C 119.488281 58.433594 119.210938 57.765625 118.71875 57.277344 C 118.226563 56.785156 117.558594 56.507813 116.863281 56.507813 C 116.167969 56.507813 115.5 56.785156 115.007813 57.277344 C 114.515625 57.765625 114.242188 58.433594 114.242188 59.128906 C 114.242188 59.828125 114.515625 60.492188 115.007813 60.984375 C 115.5 61.476563 116.167969 61.753906 116.863281 61.753906 C 117.558594 61.753906 118.226563 61.476563 118.71875 60.984375 C 119.210938 60.492188 119.488281 59.828125 119.488281 59.128906 Z M 119.488281 59.128906 "/>
<path style="fill-rule:evenodd;fill:rgb(69.999695%,0%,0%);fill-opacity:1;stroke-width:1;stroke-linecap:square;stroke-linejoin:miter;stroke:rgb(69.999695%,0%,0%);stroke-opacity:1;stroke-miterlimit:3.25;" d="M 248.511719 44.890625 C 248.511719 44.195313 248.234375 43.527344 247.742188 43.035156 C 247.25 42.542969 246.582031 42.265625 245.886719 42.265625 C 245.191406 42.265625 244.523438 42.542969 244.03125 43.035156 C 243.539063 43.527344 243.265625 44.195313 243.265625 44.890625 C 243.265625 45.585938 243.539063 46.253906 244.03125 46.746094 C 244.523438 47.238281 245.191406 47.515625 245.886719 47.515625 C 246.582031 47.515625 247.25 47.238281 247.742188 46.746094 C 248.234375 46.253906 248.511719 45.585938 248.511719 44.890625 Z M 248.511719 44.890625 "/>
<path style="fill-rule:evenodd;fill:rgb(63.998413%,70.399475%,79.998779%);fill-opacity:1;stroke-width:1;stroke-linecap:square;stroke-linejoin:miter;stroke:rgb(0%,0%,0%);stroke-opacity:0.7;stroke-miterlimit:3.25;" d="M 351.820313 79.511719 C 351.820313 78.816406 351.542969 78.148438 351.050781 77.65625 C 350.558594 77.164063 349.890625 76.886719 349.195313 76.886719 C 348.5 76.886719 347.832031 77.164063 347.339844 77.65625 C 346.847656 78.148438 346.574219 78.816406 346.574219 79.511719 C 346.574219 80.207031 346.847656 80.875 347.339844 81.367188 C 347.832031 81.859375 348.5 82.136719 349.195313 82.136719 C 349.890625 82.136719 350.558594 81.859375 351.050781 81.367188 C 351.542969 80.875 351.820313 80.207031 351.820313 79.511719 Z M 351.820313 79.511719 "/>
</g>
</svg>
